<?xml version="1.0" encoding="utf-8"?>
<!-- Generator: Adobe Illustrator 25.2.0, SVG Export Plug-In . SVG Version: 6.00 Build 0)  -->
<svg version="1.1" id="Layer_1" xmlns="http://www.w3.org/2000/svg" xmlns:xlink="http://www.w3.org/1999/xlink" x="0px" y="0px"
	 viewBox="0 0 750.9 712.7" style="enable-background:new 0 0 750.9 712.7;" xml:space="preserve">
<style type="text/css">
	.st0{fill:#0B0043;}
	.st1{fill:#8E95CA;}
	.st2{fill:#D2DDF1;}
	.st3{fill:#515682;}
</style>
<g>
	<path class="st0" d="M576.3,293.4l-8.7-29.2l-86,25.7c-4.6-11.5-12.2-21.5-21.8-29l24.9-89.8l-33.7-9.3l-23.7,85.5
		c-3-0.4-6.1-0.6-9.2-0.6c-21.3,0-40.4,9.8-53,25.2l-62.1-28.5l-14.6,31.8l62.3,28.6c-0.6,3.7-1,7.5-1,11.4
		c0,37.7,30.7,68.4,68.4,68.4c36,0,65.5-27.9,68.2-63.2L576.3,293.4z M418,348.6c-18.4,0-33.4-15-33.4-33.4s15-33.4,33.4-33.4
		c18.4,0,33.4,15,33.4,33.4S436.4,348.6,418,348.6z"/>
	<g>
		<path class="st1" d="M481.2,175c-48.2,0-87.5-39.2-87.5-87.5S432.9,0,481.2,0s87.5,39.2,87.5,87.5S529.4,175,481.2,175z M481.2,35
			c-28.9,0-52.5,23.5-52.5,52.5s23.5,52.5,52.5,52.5c28.9,0,52.5-23.5,52.5-52.5S510.1,35,481.2,35z"/>
	</g>
	<g>
		<path class="st2" d="M617.9,317.9c-32.4,0-58.8-26.4-58.8-58.8s26.4-58.8,58.8-58.8s58.8,26.4,58.8,58.8S650.3,317.9,617.9,317.9z
			 M617.9,230.7c-15.6,0-28.4,12.7-28.4,28.4s12.7,28.4,28.4,28.4s28.4-12.7,28.4-28.4S633.5,230.7,617.9,230.7z"/>
	</g>
	<g>
		<path class="st0" d="M128.4,442.3v124.9h-37v-24c-7.7,17-21.5,28-44.2,28c-33,0-47.2-19.5-47.2-52.4v-76.4h37v70.9
			c0,20,8.5,27.7,24.5,27.7c18.7,0,30-13.7,30-42v-56.7H128.4z"/>
		<path class="st0" d="M275.9,504.5c0,36-16.7,66.7-57.7,66.7c-21.7,0-35.7-8-44.4-22v18h-37V392.3h37v68.2
			c8.7-14,22.7-22.2,44.4-22.2C259.2,438.3,275.9,469.3,275.9,504.5z M238.7,504.7c0-26-8-37.5-31.7-37.5s-33.2,11.7-33.2,37.5
			c0,25.7,9.5,37.5,33.2,37.5S238.7,530.7,238.7,504.7z"/>
		<path class="st0" d="M269.7,428.3l-3.2-9.7l63.4-21.7l7.2,23.5L269.7,428.3z M283.4,442.3h37v124.9h-37V442.3z"/>
		<path class="st0" d="M466.4,442.3v174.8h-37v-68.7c-8.7,14.2-23,22.7-44.7,22.7c-40.7,0-57.4-31-57.4-66.4
			c0-36,16.7-66.4,57.4-66.4c21.7,0,36,8.2,44.7,22.5v-18.5H466.4z M429.5,504.7c0-25.7-10-37.5-33.2-37.5c-23.7,0-32,11.5-32,37.5
			c0,26,8.2,37.5,32,37.5C419.5,542.2,429.5,530.4,429.5,504.7z"/>
		<path class="st0" d="M603,442.3v124.9h-37v-24c-7.7,17-21.5,28-44.2,28c-33,0-47.2-19.5-47.2-52.4v-76.4h37v70.9
			c0,20,8.5,27.7,24.5,27.7c18.7,0,30-13.7,30-42v-56.7H603z"/>
		<path class="st0" d="M746.6,442.3v124.9h-37v-18.7c-8.2,14.2-22,22.7-43.7,22.7c-41.2,0-56.2-31-56.2-66.4
			c0-36.2,15-66.4,56.2-66.4c21.7,0,35.5,8.2,43.7,22.5v-18.5H746.6z M709.7,504.7c0-27.2-10.2-37.5-32.2-37.5
			c-22.7,0-31,10.5-31,37.5c0,26.7,8.2,37.5,31,37.5C699.4,542.2,709.7,531.7,709.7,504.7z"/>
	</g>
	<g>
		<path class="st3" d="M180.5,336.9c-79.7,0-144.6-64.9-144.6-144.6c0-79.7,64.9-144.6,144.6-144.6c79.7,0,144.6,64.9,144.6,144.6
			C325.1,272,260.2,336.9,180.5,336.9z M180.5,88.6c-57.2,0-103.7,46.5-103.7,103.7S123.3,296,180.5,296s103.7-46.5,103.7-103.7
			S237.6,88.6,180.5,88.6z"/>
	</g>
	<g>
		<g>
			<path class="st1" d="M49.2,644.7v6.5H20.9v-35.9H49v6.5h-20v8h18.4v6.1H29.1v8.7H49.2z"/>
			<path class="st1" d="M72.1,615.3c11.7,0,17,8.4,17,17.9c0,9.5-5.3,18-17,18H54.8v-35.9H72.1z M70.2,644.7
				c7.4,0,10.3-3.9,10.3-11.5c0-7.7-2.9-11.4-10.3-11.4H63v22.9H70.2z"/>
			<path class="st1" d="M93.3,615.3h8.2v21.3c0,7,2.6,8.7,7.9,8.7s7.9-1.8,7.9-8.7v-21.3h8.2v22.5c0,9.4-5.3,14.3-16.1,14.3
				s-16.1-4.9-16.1-14.3V615.3z"/>
			<path class="st1" d="M129.9,633.3c0-9.9,5.3-18.9,18.8-18.9c12.4,0,17.3,5.2,18.2,15h-8.4c-0.5-5.3-3-8.3-9.7-8.3
				c-7.3,0-10.4,4.2-10.4,12.2c0,8,2.9,12.1,10.1,12.1c6.9,0,9.6-3.1,10-8.7h8.5c-0.7,10.4-5.7,15.4-18.4,15.4
				C135.1,652.1,129.9,643.4,129.9,633.3z"/>
			<path class="st1" d="M194.4,643.9h-16.1l-2.6,7.3h-8.3l12.6-35.9h12.5l12.6,35.9H197L194.4,643.9z M192.2,637.5l-5.8-16.6
				l-5.8,16.6H192.2z"/>
			<path class="st1" d="M243.2,636.7c-0.7,9.3-4.7,14.4-14.9,15.3l0.9,4.1c0.7,3-0.9,5.1-3.9,5.1h-5.8v-5h4.2l-1-4
				c-12.1-0.9-16.8-9.2-16.8-18.8c0-9.9,5.3-18.9,18.8-18.9c12.4,0,17.3,5.2,18.2,15h-8.4c-0.5-5.3-3-8.3-9.7-8.3
				c-7.3,0-10.4,4.2-10.4,12.2c0,8,2.9,12.1,10.1,12.1c6.9,0,9.6-3.1,10-8.7H243.2z"/>
			<path class="st1" d="M270.6,643.9h-16.1l-2.6,7.3h-8.3l12.6-35.9h12.5l12.6,35.9h-8.3L270.6,643.9z M257.9,611.7h-5v-1.6
				c0-3.2,2.2-4.4,5-4.4c3.8,0,6,2.5,8,2.5c0.9,0,1.3-0.5,1.3-1.6v-0.8h5v1.4c0,3.2-2.2,4.6-5,4.6c-3.4,0-6.2-2.5-8-2.5
				c-0.9,0-1.3,0.5-1.3,1.6V611.7z M268.3,637.5l-5.8-16.6l-5.8,16.6H268.3z"/>
			<path class="st1" d="M282.2,633.3c0-9.8,5.2-18.9,19-18.9c13.8,0,18.9,9.2,18.9,18.9c0,9.9-5.1,18.8-18.9,18.8
				C287.3,652.1,282.2,643.2,282.2,633.3z M301.1,645.4c7.9,0,10.4-4.3,10.4-12.1c0-8-2.5-12.2-10.4-12.2s-10.4,4.2-10.4,12.2
				C290.8,641.1,293.2,645.4,301.1,645.4z"/>
			<path class="st1" d="M129.4,689.3c0-9.8,5.2-18.9,19-18.9c13.8,0,18.9,9.2,18.9,18.9c0,9.9-5.1,18.8-18.9,18.8
				C134.6,708.1,129.4,699.2,129.4,689.3z M148.4,701.4c7.9,0,10.4-4.3,10.4-12.1c0-8-2.5-12.2-10.4-12.2s-10.4,4.2-10.4,12.2
				C138,697.1,140.5,701.4,148.4,701.4z"/>
			<path class="st1" d="M206.9,671.3v35.9h-13.6L182,682.7c-0.8-1.9-1.5-3.6-2.1-5.5v30h-7.9v-35.9h13.6l11.3,24.9
				c0.6,1.5,1.4,3.3,1.9,5.2v-30.1H206.9z"/>
			<path class="st1" d="M227.8,677.8v22.9h6.6v6.5h-21.5v-6.5h6.6v-22.9h-6.6v-6.5h21.5v6.5H227.8z"/>
			<path class="st1" d="M259.4,671.3c8.2,0,11.4,5.2,11.4,11.5c0,6.6-3.2,11.9-11.4,11.9h-10.8v12.5h-8.3v-35.9H259.4z M256.8,688.3
				c4,0,5.5-2.3,5.5-5.5c0-3-1.3-5.2-5.4-5.2h-8.3v10.6H256.8z"/>
			<path class="st1" d="M305.1,700.9c0,3,0.3,4.6,0.7,6.3h-8.2c-0.4-1.3-0.7-3.2-0.7-6.2v-1.9c0-4.1-2.4-5.8-6-5.8h-7.4v13.9h-8.3
				v-35.9h19c7.9,0,11.9,4,11.9,9.8c0,5.1-3.2,8.5-7.5,9.4c3.7,0.9,6.5,2.8,6.5,7.9V700.9z M292.4,687.4c3.7,0,5.1-1.7,5.1-5.1
				c0-3-1.5-4.6-5.1-4.6h-8.9v9.8H292.4z"/>
			<path class="st1" d="M340,700.7v6.5h-28.4v-35.9h28.2v6.5h-20v8h18.4v6.1h-18.4v8.7H340z"/>
			<path class="st1" d="M351.4,695.4c0.2,3.8,2.6,6.6,8.3,6.6c5.5,0,7.2-1.9,7.2-4.8c0-2.8-1.6-4.1-4.8-4.5l-7.9-1
				c-6.4-0.8-9.9-4.2-9.9-10.2c0-6.5,4.9-11.1,15-11.1c10.7,0,15.2,5.2,15.6,11.6h-8c-0.4-3.4-2.8-5.5-7.6-5.5
				c-4.4,0-6.7,1.8-6.7,4.6c0,2.1,1.2,3.6,4.2,4l7.5,0.9c7.3,0.8,11,4.3,11,10.5c0,7.1-4.4,11.7-15.6,11.7
				c-11.9,0-15.9-6.3-16.1-12.7H351.4z"/>
			<path class="st1" d="M408.8,700.7v6.5h-28.4v-35.9h28.2v6.5h-20v8h18.4v6.1h-18.4v8.7H408.8z"/>
			<path class="st1" d="M449.2,671.3v35.9h-13.6l-11.2-24.5c-0.8-1.9-1.5-3.6-2.1-5.5v30h-7.9v-35.9H428l11.3,24.9
				c0.6,1.5,1.4,3.3,1.9,5.2v-30.1H449.2z"/>
			<path class="st1" d="M484.9,677.8h-11.8v29.4h-8.2v-29.4h-11.8v-6.5h31.9V677.8z"/>
			<path class="st1" d="M516.6,700.7v6.5h-28.4v-35.9h28.2v6.5h-20v8h18.4v6.1h-18.4v8.7H516.6z"/>
		</g>
	</g>
</g>
</svg>
