<?xml version="1.0" encoding="utf-8"?>
<!-- Generator: Adobe Illustrator 25.2.0, SVG Export Plug-In . SVG Version: 6.00 Build 0)  -->
<svg version="1.1" id="Layer_1" xmlns="http://www.w3.org/2000/svg" xmlns:xlink="http://www.w3.org/1999/xlink" x="0px" y="0px"
	 viewBox="0 0 749.6 449.1" style="enable-background:new 0 0 749.6 449.1;" xml:space="preserve">
<style type="text/css">
	.st0{fill:#FFFFFF;}
</style>
<path class="st0" d="M680.3,234.1c-37.9,0-68.7,30.8-68.7,68.7c0,3,0.2,5.9,0.6,8.8L521.1,339c-5.3-13.5-14.2-25.1-25.5-33.9
	l27.9-100.6c55.1-1.5,99.4-46.8,99.4-102.2C622.8,45.9,577,0,520.6,0S418.3,45.9,418.3,102.3c0,43.1,26.8,80,64.6,95.1l-25.4,91.8
	c-3.5-0.5-7.1-0.7-10.8-0.7c-24.9,0-47.2,11.5-61.9,29.4l-59.9-27.5c8.5-20.2,13.2-42.3,13.2-65.6c0-93.2-75.8-169.1-169.1-169.1
	S0,131.5,0,224.8s75.8,169.1,169.1,169.1c55.3,0,104.5-26.7,135.4-67.9l63.4,29.1c-0.7,4.3-1.1,8.8-1.1,13.3c0,44.1,35.9,80,80,80
	c42,0,76.6-32.6,79.7-73.9l99.4-29.7c12.6,16.3,32.3,26.9,54.5,26.9c37.9,0,68.7-30.8,68.7-68.7C749.1,265,718.2,234.1,680.3,234.1z
	 M459.2,102.3c0-33.8,27.5-61.3,61.3-61.3c33.8,0,61.3,27.5,61.3,61.3c0,33.8-27.5,61.3-61.3,61.3
	C486.7,163.6,459.2,136.1,459.2,102.3z M169.1,346c-66.8,0-121.2-54.4-121.2-121.2s54.4-121.2,121.2-121.2s121.2,54.4,121.2,121.2
	S235.9,346,169.1,346z M446.7,407.5c-21.5,0-39.1-17.5-39.1-39.1s17.5-39.1,39.1-39.1s39.1,17.5,39.1,39.1S468.2,407.5,446.7,407.5z
	 M680.3,336c-18.3,0-33.2-14.9-33.2-33.2c0-18.3,14.9-33.2,33.2-33.2s33.2,14.9,33.2,33.2C713.5,321.2,698.6,336,680.3,336z"/>
</svg>
