<svg version="1.1" id="Camada_1" xmlns="http://www.w3.org/2000/svg" x="0" y="0" viewBox="0 0 204.2 84.9" style="enable-background:new 0 0 204.2 84.9" xml:space="preserve"><style>.st0{fill:#525682}.st1{fill:#8e95ca}.st2{fill:#fff}.st3{fill:#d3ddf1}.st7{fill:#1c1d3c}</style><path class="st0" d="M69.3 34.8C69.3 52.6 54.9 67 37.1 67S4.9 52.6 4.9 34.8C4.9 17 19.3 2.6 37.1 2.6s32.2 14.5 32.2 32.2"/><path class="st1" d="M37.1 42.8 25.7 36v4.2c0 2.8 5.1 7.8 11.5 7.8s11.5-5 11.5-7.8v-4.3l-11.6 6.9z"/><path class="st2" d="M12.4 26.3h1v9.8h-1z"/><path class="st2" d="M11.8 39c0 2.9.5 5.2 1.1 5.2.6 0 1.1-2.3 1.1-5.2 0-2.9-.5-5.2-1.1-5.2-.6 0-1.1 2.3-1.1 5.2M37.3 11.4l-23 13.7h22.8v1.4l-24.4-.1 24.4 14.5 24.8-14.8z"/><path class="st3" d="M24.4 43.2c.6 1.1.3 2.6-.9 3.2l-4.9 2.9c-1.1.6-2.6.3-3.2-.9-.6-1.1-.3-2.6.9-3.2l4.9-2.9c1.1-.6 2.6-.2 3.2.9M29.8 48.6c1.1.6 1.5 2.1.9 3.2l-2.9 4.9c-.6 1.1-2.1 1.5-3.2.9s-1.5-2.1-.9-3.2l2.9-4.9c.6-1.2 2.1-1.5 3.2-.9"/><path d="M37.1 50.6c1.3 0 2.3 1 2.3 2.3v5.7c0 1.3-1 2.3-2.3 2.3-1.3 0-2.3-1-2.3-2.3v-5.7c-.1-1.3 1-2.3 2.3-2.3" style="fill:#c1c9e2"/><path d="M44.4 48.6c1.1-.6 2.6-.3 3.2.9l2.9 4.9c.6 1.1.3 2.6-.9 3.2-1.1.6-2.6.3-3.2-.9l-2.9-4.9c-.6-1.1-.2-2.6.9-3.2" style="fill:#b2b9dd"/><path d="M49.8 43.2c.6-1.1 2.1-1.5 3.2-.9l4.9 2.9c1.1.6 1.5 2.1.9 3.2s-2.1 1.5-3.2.9l-4.9-2.9c-1.2-.6-1.6-2-.9-3.2" style="fill:#a1a6d3"/><path class="st1" d="M51.7 35.9c0-1.3 1-2.3 2.3-2.3h5.7c1.3 0 2.3 1 2.3 2.3 0 1.3-1 2.3-2.3 2.3H54c-1.2.1-2.3-1-2.3-2.3"/><path class="st0" d="M102.1 56v4.5H82.8V36H102v4.4H88.4v5.5h12.5v4.2H88.4V56zM127.7 36v24.5h-9.3l-7.7-16.7c-.6-1.3-1-2.5-1.4-3.8v20.5H104V36h9.3l7.7 17c.4 1 .9 2.2 1.3 3.5V36h5.4zM147 55.5h-11l-1.8 5h-5.6l8.6-24.5h8.5l8.6 24.5h-5.6l-1.7-5zm-1.5-4.3-4-11.3-4 11.3h8zM167.3 36c8 0 11.6 5.7 11.6 12.2 0 6.5-3.6 12.3-11.6 12.3h-11.8V36h11.8zm-1.2 20c5 0 7-2.7 7-7.8 0-5.3-2-7.8-7-7.8h-4.9V56h4.9zM199.3 56v4.5H180V36h19.2v4.4h-13.6v5.5h12.5v4.2h-12.5V56z"/><path class="st1" d="M83 25.7c0-3.1 1.5-5.2 5.9-5.9l4.9-.8c1.9-.3 2.7-.9 2.7-2.3 0-1.8-.9-3-4.3-3-3.2 0-4.7 1.3-4.9 3.8h-3.9c0-4.2 3.1-6.8 8.7-6.8 5.4 0 8.1 2.5 8.1 6.1v9.7c0 1.4 0 2.6.2 4.5h-3.6c-.2-1.5-.2-2.9-.2-4.4-.7 2.5-2.9 4.9-7.1 4.9-4 0-6.5-2.2-6.5-5.8m13.6-4.2v-1.2c-1.1.8-2.3 1.1-3.5 1.4l-2.7.6c-2.4.6-3.4 1.4-3.4 3.3s1.4 2.9 3.4 2.9c4.1 0 6.2-3.1 6.2-7M111.9 10.8c6.1 0 9.2 3.4 9.4 7.9h-3.7c-.3-2.6-1.8-4.8-5.6-4.8-3.9 0-6.2 2-6.2 7.3 0 5.5 2.3 7.3 6.1 7.3s5.5-2.2 5.8-5h3.7c-.1 4.3-3.4 8.2-9.5 8.2-6.6 0-10.1-4.6-10.1-10.4.1-6 3.5-10.5 10.1-10.5M138.8 25.1h3.6c-.3 2.7-2.5 6.5-9.4 6.5-7 0-9.9-4.7-9.9-10.5 0-5.7 3.2-10.4 9.9-10.4 6.2 0 9.4 4.4 9.4 10 0 .5 0 1-.1 1.5h-15.4c.3 4.9 2.9 6.4 6.2 6.4 3.6.1 5.2-1.5 5.7-3.5M127 19.4h11.7c-.2-4-2.2-5.8-5.6-5.8-3.4.1-5.7 1.5-6.1 5.8M143.4 3.6h3.9V31h-3.9zM164.3 25.1h3.6c-.3 2.7-2.5 6.5-9.4 6.5-7 0-9.9-4.7-9.9-10.5 0-5.7 3.2-10.4 9.9-10.4 6.2 0 9.4 4.4 9.4 10 0 .5 0 1-.1 1.5h-15.4c.3 4.9 2.9 6.4 6.2 6.4 3.6.1 5.2-1.5 5.7-3.5m-11.8-5.7h11.7c-.2-4-2.2-5.8-5.6-5.8-3.3.1-5.6 1.5-6.1 5.8M181.2 11.1v3.8h-1c-5.2 0-6.5 3.2-6.5 8.6V31h-3.9V11.4h3.9v4.7c1.2-2.9 3.3-5 6.9-5h.6zM181.8 25.7c0-3.1 1.5-5.2 5.9-5.9l4.9-.8c1.9-.3 2.7-.9 2.7-2.3 0-1.8-.9-3-4.3-3-3.2 0-4.7 1.3-4.9 3.8h-3.9c0-4.2 3.1-6.8 8.7-6.8 5.4 0 8.1 2.5 8.1 6.1v9.7c0 1.4 0 2.6.2 4.5h-3.6c-.2-1.5-.2-2.9-.2-4.4-.7 2.5-2.9 4.9-7.1 4.9-4 0-6.5-2.2-6.5-5.8m13.6-4.2v-1.2c-1.1.8-2.3 1.1-3.5 1.4l-2.7.6c-2.5.6-3.5 1.4-3.5 3.3s1.4 2.9 3.4 2.9c4.2 0 6.3-3.1 6.3-7"/><path class="st7" d="M114.4 74.1c0 2.6-1.2 4.8-4.2 4.8-1.6 0-2.6-.6-3.2-1.6v1.3h-2.7V66h2.7v4.9c.6-1 1.6-1.6 3.2-1.6 3 0 4.2 2.2 4.2 4.8m-2.7 0c0-1.9-.6-2.7-2.3-2.7-1.7 0-2.4.9-2.4 2.7 0 1.9.7 2.7 2.4 2.7 1.8 0 2.3-.8 2.3-2.7"/><path class="st7" d="m123.5 69.6-3.2 9.3c-.7 2.2-1.5 3.3-4.1 3.3H114v-2.1h3.5l.6-1.7h-1.5l-3.1-8.9h2.7l2 5.6.5 1.5.4-1.5 1.9-5.6h2.5zM154.4 69.6v9h-2.7v-1.7c-.6 1.2-1.6 2-3.2 2-2.4 0-3.4-1.4-3.4-3.8v-5.5h2.7v5.1c0 1.4.6 2 1.8 2 1.4 0 2.2-1 2.2-3v-4.1h2.6zM165.1 74.1c0 2.6-1.2 4.8-4.2 4.8-1.6 0-2.6-.6-3.2-1.6v1.3H155V66h2.7v4.9c.6-1 1.6-1.6 3.2-1.6 3 0 4.2 2.2 4.2 4.8m-2.7 0c0-1.9-.6-2.7-2.3-2.7-1.7 0-2.4.9-2.4 2.7 0 1.9.7 2.7 2.4 2.7s2.3-.8 2.3-2.7M164.6 68.6l-.2-.7 4.6-1.6.5 1.7-4.9.6zm1 1h2.7v9.1h-2.7v-9.1zM178.9 69.6v12.7h-2.7v-5c-.6 1-1.7 1.6-3.2 1.6-3 0-4.2-2.2-4.2-4.8 0-2.6 1.2-4.8 4.2-4.8 1.6 0 2.6.6 3.2 1.6v-1.3h2.7zm-2.7 4.5c0-1.9-.7-2.7-2.4-2.7s-2.3.8-2.3 2.7c0 1.9.6 2.7 2.3 2.7 1.7 0 2.4-.8 2.4-2.7M188.8 69.6v9h-2.7v-1.7c-.6 1.2-1.6 2-3.2 2-2.4 0-3.4-1.4-3.4-3.8v-5.5h2.7v5.1c0 1.4.6 2 1.8 2 1.4 0 2.2-1 2.2-3v-4.1h2.6zM199.2 69.6v9h-2.7v-1.4c-.6 1-1.6 1.6-3.2 1.6-3 0-4.1-2.2-4.1-4.8 0-2.6 1.1-4.8 4.1-4.8 1.6 0 2.6.6 3.2 1.6v-1.3h2.7zm-2.7 4.5c0-2-.7-2.7-2.3-2.7-1.6 0-2.2.8-2.2 2.7 0 1.9.6 2.7 2.2 2.7s2.3-.7 2.3-2.7"/><path transform="rotate(-65.337 133.41 76.209)" class="st7" d="M132.9 74.9h1v2.6h-1z"/><path transform="rotate(-16.654 138.918 76.722)" class="st7" d="M137.3 76.3h3.3v.9h-3.3z"/><path transform="rotate(-74.509 136.941 74.52)" class="st7" d="M135.3 74h3.4v1h-3.4z"/><path class="st7" d="M137.8 73.2c-1.4 0-2.6-1.2-2.6-2.6 0-1.4 1.2-2.6 2.6-2.6 1.4 0 2.6 1.2 2.6 2.6 0 1.4-1.2 2.6-2.6 2.6m0-4.2c-.9 0-1.6.7-1.6 1.6 0 .9.7 1.6 1.6 1.6.9 0 1.6-.7 1.6-1.6 0-.9-.7-1.6-1.6-1.6M141.9 77.4c-1 0-1.8-.8-1.8-1.8s.8-1.8 1.8-1.8 1.8.8 1.8 1.8c-.1 1-.8 1.8-1.8 1.8m0-2.6c-.5 0-.8.4-.8.8 0 .5.4.8.8.8.5 0 .8-.4.8-.8s-.3-.8-.8-.8M135.9 79.4c-1.1 0-2-.9-2-2s.9-2 2-2 2 .9 2 2c.1 1.1-.9 2-2 2m0-3.1c-.6 0-1 .4-1 1s.4 1 1 1 1-.4 1-1c0-.5-.4-1-1-1M128.8 78c-2.4 0-4.3-1.9-4.3-4.3s1.9-4.3 4.3-4.3 4.3 1.9 4.3 4.3-1.9 4.3-4.3 4.3m0-7.4c-1.7 0-3.1 1.4-3.1 3.1 0 1.7 1.4 3.1 3.1 3.1 1.7 0 3.1-1.4 3.1-3.1 0-1.7-1.4-3.1-3.1-3.1"/></svg>