<svg version="1.1" id="Camada_1" xmlns="http://www.w3.org/2000/svg" x="0" y="0" viewBox="0 0 241.7 79.9" style="enable-background:new 0 0 241.7 79.9" xml:space="preserve"><style>.st0{fill:#505584}.st1{fill:#8c95cb}.st2{fill:#1d1a39}</style><path class="st0" d="M76 23.9C76 15.8 80.3 8 91.7 8c10.6 0 14.7 4.3 15.4 13h-8c-.4-4.1-2-6.5-7.2-6.5-5.4 0-7.7 3.1-7.7 9.4 0 6.1 2.1 9.3 7.5 9.3 5.3 0 7.2-2.3 7.5-6.7h8.1c-.7 9.3-4.8 13.2-15.6 13.2-11.4 0-15.7-7.5-15.7-15.8M134.7 33.5c0 2.5.3 3.7.6 5.5h-7.9c-.4-1.2-.5-3-.5-5.5v-1.2c0-2.9-1.8-4.3-4.4-4.3h-5.4v11h-7.9V8.7h16.3c6.7 0 9.9 3.5 9.9 8.4 0 4.3-2.7 7.2-6.4 8 3.1.7 5.6 2.3 5.6 6.7v1.7zm-7.4-15.1c0-2.4-1.2-3.5-3.8-3.5h-6.4v7.4h6.4c2.7 0 3.8-1.3 3.8-3.9M150.9 15.1v17.5h5.2V39h-18.2v-6.4h5.2V15.1h-5.2V8.7h18.2v6.4zM178.7 33.3H166l-1.9 5.7h-7.8l10.1-30.2h12L188.5 39h-7.9l-1.9-5.7zm-2-6.1-4.4-12.9-4.3 12.9h8.7z"/><path class="st1" d="M82.1 45.2v8.2h2.3v2.4h-7.5v-2.4h2.3v-8.2h-2.3v-2.4h7.5v2.4zM95.5 49.8v6h-2.8v-5.5c0-1.6-.6-2.2-1.8-2.2-1.5 0-2.3 1-2.3 3.3v4.4h-2.8v-9.7h2.8V48c.6-1.3 1.7-2.2 3.4-2.2 2.5-.1 3.5 1.5 3.5 4M101.5 45.7c3.3 0 4.9 1.9 5 4.3h-2.7c-.1-1.2-.7-2-2.2-2-1.5 0-2.4.7-2.4 2.9s.9 2.9 2.4 2.9 2.1-.9 2.3-2.1h2.7c-.1 2.3-1.6 4.3-5 4.3-3.7 0-5.3-2.4-5.3-5.2 0-2.6 1.5-5.1 5.2-5.1M117.1 46.1v9.7h-2.8v-1.9c-.6 1.3-1.6 2.2-3.4 2.2-2.5 0-3.6-1.5-3.6-4.1v-5.9h2.8v5.5c0 1.6.6 2.2 1.9 2.2 1.4 0 2.3-1.1 2.3-3.3v-4.4h2.8zM129.2 50.9c0 2.8-1.3 5.2-4.4 5.2-1.7 0-2.7-.6-3.4-1.7v1.4h-2.8V42.2h2.8v5.3c.7-1.1 1.7-1.7 3.4-1.7 3.1-.1 4.4 2.3 4.4 5.1m-2.9 0c0-2-.6-2.9-2.4-2.9-1.8 0-2.5.9-2.5 2.9s.7 2.9 2.5 2.9 2.4-.9 2.4-2.9M129.9 53.2c0-1.5.7-2.6 3.1-3l2.2-.4c.9-.2 1.2-.4 1.2-1 0-.7-.4-1.1-1.7-1.1-1.3 0-1.9.5-1.9 1.5H130c.1-2.1 1.7-3.5 4.6-3.5 2.9 0 4.3 1.2 4.3 3.3v4.2c0 .9.1 1.7.2 2.5h-2.4c-.1-.6-.2-1.3-.2-2.1-.4 1.4-1.5 2.4-3.5 2.4-1.9 0-3.1-1.1-3.1-2.8m6.5-2.1v-.4c-.5.4-1 .5-1.6.6l-.8.2c-1 .3-1.4.6-1.4 1.4 0 .8.6 1.2 1.3 1.2 1.6 0 2.5-1.2 2.5-3M150.5 42.2v13.6h-2.8v-1.4c-.7 1.1-1.7 1.7-3.4 1.7-3.1 0-4.4-2.4-4.4-5.2 0-2.7 1.3-5.1 4.4-5.1 1.7 0 2.7.7 3.4 1.8v-5.3h2.8zm-2.8 8.7c0-2-.8-2.9-2.5-2.9-1.8 0-2.4.9-2.4 2.9s.6 2.9 2.4 2.9c1.7 0 2.5-.9 2.5-2.9M151.3 50.9c0-2.7 1.5-5.1 5.3-5.1s5.3 2.5 5.3 5.1c0 2.7-1.5 5.2-5.3 5.2s-5.3-2.5-5.3-5.2m5.3 2.9c1.7 0 2.4-.8 2.4-2.9 0-2.2-.7-2.9-2.4-2.9s-2.4.8-2.4 2.9c0 2.2.7 2.9 2.4 2.9M169.1 45.9v2.8h-.9c-1.9 0-2.5 1-2.5 3.2v3.8h-2.8V46h2.7v2.1c.5-1.4 1.3-2.2 2.9-2.2h.6zM169.4 53.2c0-1.5.7-2.6 3.1-3l2.2-.4c.9-.2 1.2-.4 1.2-1 0-.7-.4-1.1-1.7-1.1-1.3 0-1.9.5-1.9 1.5h-2.8c.1-2.1 1.7-3.5 4.6-3.5 2.9 0 4.3 1.2 4.3 3.3v4.2c0 .9.1 1.7.2 2.5h-2.4c-.1-.6-.2-1.3-.2-2.1-.4 1.3-1.6 2.3-3.5 2.3-1.9.1-3.1-1-3.1-2.7m6.5-2.1v-.4c-.5.4-1 .5-1.6.6l-.8.2c-1 .3-1.4.6-1.4 1.4 0 .8.6 1.2 1.3 1.2 1.6 0 2.5-1.2 2.5-3M190.2 42.8c4.1 0 6 3 6 6.4 0 3.4-1.9 6.5-6 6.5h-6.1V42.8h6.1zm-.6 10.6c2.6 0 3.6-1.4 3.6-4.1 0-2.8-1-4.1-3.6-4.1h-2.5v8.2h2.5zM197.1 42.8h3.1v1.9h-3.1v-1.9zm.1 3.3h2.8v9.7h-2.8v-9.7zM211.6 46.1v9.3c0 3-1.4 4.5-5.3 4.5-3.2 0-4.9-1.5-5-3.7h2.8c.1 1 .8 1.7 2.4 1.7 1.7 0 2.4-.6 2.4-2.1V54c-.7 1-1.7 1.5-3.3 1.5-3.1 0-4.4-2.2-4.4-4.8 0-2.7 1.3-4.9 4.4-4.9 1.6 0 2.6.6 3.3 1.6v-1.3h2.7zm-2.8 4.6c0-1.9-.7-2.7-2.4-2.7-1.8 0-2.5.7-2.5 2.7 0 1.9.7 2.7 2.5 2.7 1.7 0 2.4-.9 2.4-2.7M213 42.8h3.1v1.9H213v-1.9zm.1 3.3h2.8v9.7h-2.8v-9.7zM221.7 55.8c-2.7 0-3.5-1.2-3.5-3.5v-4h-1.7v-1.4l2-.8 1.2-2.3h1.4v2.3h2.7v2.2h-2.7v5.2h2.5v2.3h-1.9zM224.3 53.2c0-1.5.7-2.6 3.1-3l2.2-.4c.9-.2 1.2-.4 1.2-1 0-.7-.4-1.1-1.7-1.1-1.3 0-1.9.5-1.9 1.5h-2.8c.1-2.1 1.7-3.5 4.6-3.5 2.9 0 4.3 1.2 4.3 3.3v4.2c0 .9.1 1.7.2 2.5h-2.4c-.1-.6-.2-1.3-.2-2.1-.4 1.3-1.6 2.3-3.5 2.3-1.9.1-3.1-1-3.1-2.7m6.5-2.1v-.4c-.5.4-1 .5-1.6.6l-.8.2c-1 .3-1.4.6-1.4 1.4 0 .8.6 1.2 1.3 1.2 1.6 0 2.5-1.2 2.5-3M234.8 42.2h2.8v13.6h-2.8z"/><path class="st2" d="M154.4 69.8c0 2.5-1.2 4.7-4.1 4.7-1.5 0-2.5-.6-3.1-1.5v1.3h-2.6V61.9h2.6v4.8c.6-1 1.6-1.6 3.1-1.6 2.9.1 4.1 2.2 4.1 4.7m-2.6 0c0-1.8-.6-2.6-2.2-2.6-1.7 0-2.3.8-2.3 2.6s.7 2.6 2.3 2.6c1.6.1 2.2-.8 2.2-2.6"/><path class="st2" d="m163.2 65.4-3.1 9c-.7 2.2-1.5 3.2-4 3.2H154v-2.1h3.4l.6-1.6h-1.5l-3-8.6h2.7l1.9 5.5.5 1.4.4-1.4 1.9-5.5h2.3zM193.2 65.4v8.8h-2.6v-1.7c-.5 1.2-1.5 2-3.1 2-2.3 0-3.3-1.4-3.3-3.7v-5.4h2.6v5c0 1.4.6 1.9 1.7 1.9 1.3 0 2.1-1 2.1-3v-4h2.6zM203.6 69.8c0 2.5-1.2 4.7-4.1 4.7-1.5 0-2.5-.6-3.1-1.5v1.3h-2.6V61.9h2.6v4.8c.6-1 1.6-1.6 3.1-1.6 2.9.1 4.1 2.2 4.1 4.7m-2.6 0c0-1.8-.6-2.6-2.2-2.6-1.7 0-2.3.8-2.3 2.6s.7 2.6 2.3 2.6c1.6.1 2.2-.8 2.2-2.6M203.1 64.4l-.2-.7 4.5-1.5.5 1.7-4.8.5zm1 1h2.6v8.8h-2.6v-8.8zM217 65.4v12.3h-2.6v-4.8c-.6 1-1.6 1.6-3.1 1.6-2.9 0-4-2.2-4-4.7s1.2-4.7 4-4.7c1.5 0 2.5.6 3.1 1.6v-1.3h2.6zm-2.6 4.4c0-1.8-.7-2.6-2.3-2.6-1.7 0-2.2.8-2.2 2.6s.6 2.6 2.2 2.6c1.6.1 2.3-.8 2.3-2.6M226.6 65.4v8.8H224v-1.7c-.5 1.2-1.5 2-3.1 2-2.3 0-3.3-1.4-3.3-3.7v-5.4h2.6v5c0 1.4.6 1.9 1.7 1.9 1.3 0 2.1-1 2.1-3v-4h2.6zM236.7 65.4v8.8h-2.6v-1.3c-.6 1-1.5 1.6-3.1 1.6-2.9 0-4-2.2-4-4.7s1.1-4.7 4-4.7c1.5 0 2.5.6 3.1 1.6v-1.3h2.6zm-2.6 4.4c0-1.9-.7-2.6-2.3-2.6-1.6 0-2.2.7-2.2 2.6 0 1.9.6 2.6 2.2 2.6 1.6.1 2.3-.7 2.3-2.6"/><path transform="rotate(-65.329 172.83 71.856)" class="st2" d="M172.3 70.6h1v2.5h-1z"/><path transform="rotate(-16.654 178.177 72.356)" class="st2" d="M176.6 71.9h3.2v.9h-3.2z"/><path transform="rotate(-74.527 176.248 70.21)" class="st2" d="M174.6 69.7h3.3v1h-3.3z"/><path class="st2" d="M177.1 68.9c-1.4 0-2.5-1.1-2.5-2.5s1.1-2.5 2.5-2.5 2.5 1.1 2.5 2.5c0 1.3-1.1 2.5-2.5 2.5m0-4.1c-.8 0-1.5.7-1.5 1.5s.7 1.5 1.5 1.5 1.5-.7 1.5-1.5-.7-1.5-1.5-1.5M181 73c-.9 0-1.7-.8-1.7-1.7 0-.9.8-1.7 1.7-1.7.9 0 1.7.8 1.7 1.7.1 1-.7 1.7-1.7 1.7m0-2.5c-.5 0-.8.4-.8.8 0 .5.4.8.8.8.5 0 .8-.4.8-.8.1-.4-.3-.8-.8-.8M175.2 74.9c-1.1 0-2-.9-2-2s.9-2 2-2 2 .9 2 2c0 1.2-.9 2-2 2m0-2.9c-.5 0-1 .4-1 1s.4 1 1 1c.5 0 1-.4 1-1s-.4-1-1-1M168.4 73.6c-2.3 0-4.2-1.9-4.2-4.2s1.9-4.2 4.2-4.2c2.3 0 4.2 1.9 4.2 4.2s-1.9 4.2-4.2 4.2m0-7.2c-1.7 0-3 1.4-3 3 0 1.7 1.3 3 3 3s3-1.3 3-3-1.4-3-3-3"/><path class="st0" d="M35.3 2.2c-17.2 0-31.2 14-31.2 31.2 0 15.3 11 28 25.6 30.7v-.5l4.7-11h-3.9c-.3 0-.6-.2-.8-.4-.2-.3-.2-.6 0-.9l4.1-7.3c-.2-.1-.3-.3-.5-.5l-.9-1.5H20.9c-3.1 0-5.9-1-8-2.9-2.2-1.9-3.4-4.6-3.4-7.7 0-4.2 3-7.8 7.1-8.6.6-5.1 4.8-8.9 10-8.9.5 0 1 .1 1.5.1h.4c1.7-1.3 3.8-1.9 5.9-1.9 1.9 0 3.7.5 5.3 1.5 1.1-.4 2.3-.6 3.5-.6 4.1 0 7.8 2.5 9.3 6.2 4.9.7 8.7 5 8.7 10 0 1.8-.5 3.5-1.4 5.1.9 1.2 1.4 2.6 1.4 4.1 0 2-.9 4-2.4 5.3-1.3 1.1-2.9 1.7-4.6 1.7h-9.7L43 47.2h2.5c.3 0 .7.2.8.5.1.3.1.7-.2.9L31.3 64.3c1.3.2 2.7.3 4 .3 17.2 0 31.2-14 31.2-31.2 0-17.3-13.9-31.2-31.2-31.2"/><path class="st1" d="M40.2 48.5c-.1-.3-.1-.7.1-.9l5.3-6.1c.3-.4.9-.4 1.2-.1.4.3.4.9.1 1.2l-1 1.2h8.2c1.3 0 2.5-.5 3.4-1.3 1.2-1 1.8-2.5 1.8-4 0-.9-.3-1.8-.7-2.6-.1.2-.3.3-.4.5-.2.2-.4.3-.6.3-.2 0-.4-.1-.6-.2-.3-.3-.4-.9 0-1.2.4-.4.7-.8 1-1.2.9-1.4 1.4-3 1.4-4.6 0-3.8-2.7-7.2-6.3-8.1.1.4.1.9.2 1.3 0 .5-.3.9-.8.9h-.1c-.5 0-.8-.4-.9-.8 0-.8-.2-1.5-.4-2.2-1.2-3.3-4.3-5.6-7.9-5.6-1.1 0-2.2.2-3.2.7h-.7c-.1 0-.1 0-.2-.1H39c-1.4-.9-3-1.4-4.7-1.4-1.4 0-2.7.3-3.9 1 .8.4 1.5.9 2.2 1.6 1.6 1.6 2.5 3.7 2.6 6 0 .5-.4.9-.8.9-.5 0-.9-.4-.9-.8-.1-1.8-.8-3.6-2.1-4.9-.9-.9-1.9-1.5-3.1-1.8-.6-.1-1.2-.2-1.8-.2-4.1 0-7.6 3-8.2 7H18.6c2 .1 3.9.9 5.4 2.2 1.2-1.4 2.9-2.2 4.7-2.2.5 0 .9.4.9.9s-.4.9-.9.9c-1.4 0-2.7.7-3.5 1.8 1.1 1.5 1.8 3.3 1.8 5.2 0 .5-.4.9-.9.9s-.9-.4-.9-.9c0-1.7-.6-3.3-1.7-4.6-1.3-1.4-3-2.3-4.9-2.4h-1.1c-3.6.4-6.2 3.4-6.2 7 0 5.1 4.1 8.8 9.6 8.8h11c0-.3-.1-.6-.1-.9 0-1.4.5-2.8 1.4-3.9.1-.2.2-.3.3-.4.7-.8 1.6-1.3 2.6-1.6.3-1.1.8-2.1 1.5-3.1.1-.2.3-.4.5-.6.8-1 1.8-1.8 3-2.4 0 0 .1 0 .1-.1v-.1c.3-1.3.8-2.5 1.5-3.5.4-.6.8-1.1 1.3-1.6.3-.3.9-.3 1.2 0 .3.3.3.9 0 1.2-.4.4-.8.9-1.1 1.3-.4.6-.7 1.2-.9 1.9.8-.2 1.7-.4 2.6-.4 1.9 0 3.7.5 5.3 1.5.4.3.5.8.3 1.2-.2.3-.5.4-.7.4-.2 0-.3 0-.5-.1-1.3-.8-2.8-1.3-4.4-1.3-1.2 0-2.4.3-3.5.8h-.1c-.1.1-.3.1-.4.2-.9.5-1.8 1.2-2.4 2-.2.2-.3.4-.4.5-.4.6-.7 1.1-1 1.8 2.3.1 4.3 1.3 5.3 3.4.2.4 0 1-.4 1.2-.1.1-.3.1-.4.1-.3 0-.6-.2-.8-.5-.6-1.7-2.1-2.6-3.7-2.6-.3 0-.6 0-.9.1h-.2c-.8.2-1.6.7-2.1 1.3l-.1.1c-.7.8-1.1 1.8-1.1 2.9 0 1.1.4 2.1 1.1 2.9.8.9 2 1.5 3.3 1.5.5 0 .9.4.9.9s-.4.9-.9.9c-.9 0-1.9-.2-2.7-.6L32 50.8h3.8c.3 0 .6.1.7.4.2.2.2.6.1.8l-3.3 7.7L43.4 49H41c-.3 0-.6-.2-.8-.5"/></svg>