<svg version="1.1" id="Camada_1" xmlns="http://www.w3.org/2000/svg" x="0" y="0" viewBox="0 0 255.8 84.9" style="enable-background:new 0 0 255.8 84.9" xml:space="preserve"><style>.st0{fill:#8c95cb}.st1{fill:#505584}.st2{fill:#1d1a39}</style><path class="st0" d="M23.9 24.8c0-2.8 2.2-5 5-5s5 2.2 5 5c0 .3 0 .7-.1 1h2.7V21.4c0-.1.1-.2.1-.3.1-.1.1-.2.2-.3.1-.1.2-.1.3-.2h.4c.1 0 .2.1.3.1.5.3 1 .4 1.5.4 1.6 0 3-1.3 3-3 0-1.6-1.3-3-3-3-.5 0-1 .1-1.5.4-.1.1-.2.1-.3.1h-.4c-.1 0-.2-.1-.3-.2-.1-.1-.2-.2-.2-.3-.1-.1-.1-.2-.1-.3v-4.4h-9.6c-3.1 0-5.6 2.5-5.6 5.6v9.6H24c-.1-.1-.1-.4-.1-.8"/><path class="st1" d="M34.9 1.5C17.1 1.5 2.6 16 2.6 33.9c0 5.5 1.4 10.8 3.9 15.3l4.5-4.5 2.2 2.2c1-1 2.7-2.5 3.8-3.6.8-.8 2-1.6 3.3-2.1-.6-1.1-.9-2.3-.9-3.6V16.2c0-4.2 3.4-7.7 7.7-7.7h12.6c.6 0 1 .5 1 1 0 .6-.5 1-1 1h-1v2.7c.3-.1.6-.1 1-.1 2.8 0 5 2.2 5 5s-2.2 5-5 5c-.3 0-.7 0-1-.1v2.7H43.5c.1.1.2.1.3.2.1.1.1.2.2.3v.4c0 .1-.1.2-.1.3-.3.5-.4 1-.4 1.5 0 1.6 1.3 3 3 3 1.6 0 3-1.3 3-3 0-.5-.1-1-.4-1.5-.1-.1-.1-.2-.1-.3v-.4c0-.1.1-.2.2-.3.1-.1.2-.2.3-.2.1-.1.2-.1.3-.1h4.4v-1c0-.6.5-1 1-1s1 .5 1 1V37.9c.3.2.5.4.7.7l.4.5-.7.9c-1.1 2.6-4.9 8.3-5.8 9.3-.1.1-7.7 8.2-9.8 8.2H24.4c-.2 0-.4 0-.6.1l1 1-4.2 4.2c4.3 2.1 9.1 3.3 14.3 3.3 17.8 0 32.3-14.5 32.3-32.3C67.3 16 52.8 1.5 34.9 1.5m12.5 9.1h-4c-.6 0-1-.5-1-1 0-.6.5-1 1-1h4c.6 0 1 .5 1 1 .1.5-.4 1-1 1m5.7 3c-.5-1-1.3-1.8-2.3-2.3-.5-.3-.7-.9-.4-1.4.3-.5.9-.7 1.4-.4 1.4.7 2.5 1.8 3.2 3.2.3.5.1 1.1-.4 1.4-.1.1-.3.1-.5.1-.5-.1-.8-.3-1-.6m2.7 7.3c0 .6-.5 1-1 1s-1-.5-1-1v-4c0-.6.5-1 1-1s1 .5 1 1v4z"/><path class="st1" d="M40.9 55.3c1.3-.5 7-6 8.3-7.5.7-.8 3.8-5.4 5.1-8-.6-.4-1.7-.6-2.9-.3-1.5.3-2.4 1.4-3.7 3.9l-.2.3-4.4 2.3c.1.3.1.6.1.9 0 2-1.5 3.9-4.5 3.9H28.6v-2.2h10.1c1.6 0 2.2-.8 2.2-1.7s-.7-1.7-2.2-1.7H32c-.8 0-1.5-.5-2.3-1.2-.6-.4-1.4-1.1-1.9-1.1h-5.6c-1.1 0-2.7 1-3.7 1.9-1.1 1.1-2.7 2.6-3.7 3.6l7.5 7.5c.5-.4 1.2-.7 2.2-.7h16.4z"/><path transform="rotate(-45.001 14.896 54.695)" class="st2" d="M12.8 47.1h4.1v15.2h-4.1z"/><path class="st2" d="M51.1 27.9c.1.3.1.6.1 1 0 2.8-2.2 5-5 5s-5-2.2-5-5c0-.3 0-.7.1-1h-2.7V32.2c0 .1-.1.2-.1.3-.1.1-.1.2-.2.3-.3.1-.4.2-.5.2h-.4c-.1 0-.2-.1-.3-.1-.5-.3-1-.4-1.5-.4-1.6 0-3 1.3-3 3 0 1.6 1.3 3 3 3 .5 0 1-.1 1.5-.4H37.9c.1 0 .2.1.3.2.1.1.2.2.2.3.1.1.1.2.1.3v4.2h.2c1.4 0 2.5.5 3.2 1.1l3.8-2c1.3-2.5 2.7-4.2 5.1-4.8 1.1-.3 2.1-.2 2.9 0V28h-2.6z"/><path d="M35.5 40.5c-2.8 0-5-2.2-5-5s2.2-5 5-5c.3 0 .7 0 1 .1v-2.7h-4.2c-.1 0-.2 0-.3-.1h-.2c-.1-.1-.2-.1-.3-.2-.1-.1-.1-.2-.2-.3v-.4c0-.1.1-.2.1-.3.3-.5.4-1 .4-1.5 0-1.6-1.3-3-3-3-1.6 0-3 1.3-3 3 0 .5.1 1 .4 1.5.1.1.1.2.1.3v.4c0 .1-.1.2-.2.3-.1.1-.2.2-.3.2-.1 0-.1.1-.2.1h-4.5v9.6c0 1.2.4 2.3 1 3.2h5.5c1.2 0 2.3.8 3.2 1.5.3.3.9.7 1 .7h4.4v-2.5s-.3.1-.7.1" style="fill:#cfddf1"/><path class="st0" d="M92.1 23.9h6.8c-.7 3.6-3.4 6.9-10.8 6.9-8.3 0-11.2-5.4-11.2-11.1 0-6 3.4-11 11.2-11 8.3 0 10.9 5.4 10.9 11.1 0 .7 0 1.3-.1 1.7H83.7c.4 3.3 2 4.4 4.6 4.4 2 .2 3.3-.7 3.8-2m-8.4-6.4h8.6c-.2-2.6-1.5-4-4.2-4-2.5 0-3.9 1-4.4 4M105.6 23.5c.2 1.7 1.5 3.1 4.1 3.1 2.3 0 3.2-.7 3.2-1.9 0-1-.4-1.9-2.7-2.2l-4.3-.5c-3.9-.5-6-2.6-6-6.2 0-4.9 4.1-6.9 9.6-6.9 5.6 0 9.5 1.9 9.9 6.8H113c-.2-1.6-1.3-2.6-3.5-2.6-2.4 0-3.2.9-3.2 2 0 .9.5 1.7 2.4 1.9l4.2.4c4.8.5 6.8 2.5 6.8 6.5 0 3.9-2.4 7.1-9.9 7.1-7.4 0-10.2-3.5-10.3-7.3h6.1zM131.5 8.8c7.3 0 10.9 4.2 11.1 9.4h-6.8c-.2-2.4-1.4-3.9-4.1-3.9-2.9 0-4.6 1.3-4.6 5.5s1.6 5.5 4.5 5.5 4.1-1.6 4.3-3.9h6.9c-.2 4.9-3.5 9.5-11.1 9.5-8.4 0-11.6-5.4-11.6-11-.1-5.7 3-11.1 11.4-11.1M142.9 19.8c0-5.6 3-11 11.6-11s11.6 5.5 11.6 11c0 5.6-3 11-11.6 11-8.6.1-11.6-5.4-11.6-11m11.6 5.5c3.3 0 4.6-1.3 4.6-5.5 0-4.1-1.3-5.5-4.6-5.5s-4.6 1.3-4.6 5.5 1.3 5.5 4.6 5.5M167.3 1.2h7v29h-7zM176 24.7c0-3.3 1.3-5.5 6.9-6.5l4.6-.8c1.9-.3 2.4-.8 2.4-1.9 0-1.2-.7-2-3-2-2.4 0-3.6 1-3.6 2.8h-6.8c.2-4.4 3.9-7.5 10.3-7.5s9.6 2.7 9.6 7.4v8.3c0 2.2.1 4 .4 5.7h-6c-.2-1.2-.3-2.6-.3-4.3-1 3-3.5 4.9-7.6 4.9-4.2-.1-6.9-2.4-6.9-6.1m13.9-4.2v-.8c-1 .7-1.9 1-3.2 1.3l-1.2.3c-1.9.5-2.7 1.2-2.7 2.6 0 1.5 1.1 2.2 2.5 2.2 2.7 0 4.6-1.9 4.6-5.6M230 1.2v29h-7v-2.8c-1.4 2.2-3.7 3.5-7.1 3.5-6.7 0-9.3-5.1-9.3-11.1 0-5.8 2.6-11 9.3-11 3.4 0 5.7 1.3 7.1 3.5V1.2h7zm-6.9 18.6c0-3.7-1.2-5.5-4.8-5.5-3.4 0-4.6 1.6-4.6 5.5s1.2 5.5 4.6 5.5c3.6 0 4.8-1.8 4.8-5.5M246.3 23.9h6.8c-.7 3.6-3.4 6.9-10.8 6.9-8.3 0-11.2-5.4-11.2-11.1 0-6 3.4-11 11.2-11 8.3 0 10.9 5.4 10.9 11.1 0 .7 0 1.3-.1 1.7h-15.2c.4 3.3 2 4.4 4.6 4.4 2 .2 3.3-.7 3.8-2m-8.3-6.4h8.6c-.2-2.6-1.5-4-4.2-4-2.5 0-4 1-4.4 4"/><path class="st1" d="M101.6 46.9v12.9h-7.1V48.2c0-2.8-1.1-4.3-3.6-4.3-2.9 0-4.5 1.9-4.5 6v10h-7.1V38.6h7.1v3.9c1.4-2.8 3.8-4.6 7.5-4.6 5.4 0 7.7 3.5 7.7 9M118.3 53.4h6.9c-.7 3.7-3.5 7.1-11.1 7.1-8.5 0-11.5-5.5-11.5-11.3 0-6.2 3.5-11.3 11.5-11.3 8.5 0 11.2 5.5 11.2 11.4 0 .7 0 1.3-.1 1.8h-15.6c.4 3.4 2 4.5 4.7 4.5 2.2 0 3.5-.9 4-2.2m-8.6-6.5h8.8c-.2-2.7-1.5-4.1-4.3-4.1-2.5-.1-4 1-4.5 4.1M149.6 38.6v20c0 6.9-3.4 10.2-12.1 10.2-7.5 0-10.9-3.6-11.2-8.2h6.9c.2 1.9 1.6 3.1 4.6 3.1 3.2 0 4.6-1.2 4.6-4V56c-1.4 2-3.7 3.2-7.1 3.2-6.8 0-9.6-5-9.6-10.6 0-5.7 2.8-10.6 9.6-10.6 3.4 0 5.7 1.2 7.1 3.2v-2.5h7.2zm-7.1 10.1c0-3.4-1.2-5.1-4.6-5.1-3.6 0-4.9 1.4-4.9 5.1 0 3.7 1.4 5.1 4.9 5.1 3.4.1 4.6-1.6 4.6-5.1M150.7 49.2c0-5.7 3.1-11.3 11.9-11.3s11.9 5.6 11.9 11.3c0 5.7-3.1 11.3-11.9 11.3s-11.9-5.5-11.9-11.3m6-12.9-.5-1.7 11.4-3.6 1.2 4.4-12.1.9zm5.9 18.5c3.4 0 4.7-1.4 4.7-5.6 0-4.2-1.3-5.6-4.7-5.6-3.4 0-4.7 1.4-4.7 5.6-.1 4.3 1.3 5.6 4.7 5.6M186.7 37.9c7.5 0 11.2 4.3 11.3 9.6h-7c-.2-2.5-1.5-4-4.2-4-3 0-4.7 1.4-4.7 5.6s1.6 5.6 4.6 5.6c2.9 0 4.2-1.7 4.4-4h7c-.2 5.1-3.6 9.7-11.3 9.7-8.6 0-11.8-5.6-11.8-11.3s3.1-11.2 11.7-11.2M199.1 31.6h7.4V36h-7.4v-4.4zm.1 7h7.1v21.2h-7.1V38.6zM207.6 49.2c0-5.7 3.1-11.3 11.9-11.3s11.9 5.6 11.9 11.3c0 5.7-3.1 11.3-11.9 11.3s-11.9-5.5-11.9-11.3m11.9 5.6c3.4 0 4.7-1.4 4.7-5.6 0-4.2-1.3-5.6-4.7-5.6-3.4 0-4.7 1.4-4.7 5.6 0 4.3 1.3 5.6 4.7 5.6M238.2 53c.2 1.7 1.6 3.1 4.2 3.1 2.3 0 3.2-.8 3.2-2 0-1.1-.4-2-2.8-2.3l-4.4-.5c-4-.5-6.2-2.7-6.2-6.4 0-5.1 4.2-7.1 9.8-7.1 5.7 0 9.7 2 10.1 7h-6.5c-.2-1.7-1.3-2.6-3.6-2.6-2.4 0-3.3.9-3.3 2.1 0 .9.5 1.7 2.4 1.9l4.3.4c4.9.5 6.9 2.5 6.9 6.6 0 4-2.4 7.2-10.2 7.2-7.6 0-10.4-3.6-10.6-7.5h6.7z"/><path class="st2" d="M165.1 75.5c0 2.6-1.2 4.9-4.2 4.9-1.6 0-2.6-.6-3.3-1.6v1.3h-2.7V67.3h2.7v5c.6-1 1.7-1.6 3.3-1.6 3-.1 4.2 2.2 4.2 4.8m-2.7 0c0-1.9-.6-2.7-2.3-2.7s-2.4.9-2.4 2.7c0 1.9.7 2.7 2.4 2.7s2.3-.8 2.3-2.7"/><path class="st2" d="m174.3 70.9-3.2 9.4c-.7 2.3-1.6 3.4-4.2 3.4h-2.3v-2.1h3.5l.6-1.7h-1.6l-3.1-9h2.8l2 5.7.5 1.5.4-1.5 2-5.7h2.6zM205.5 70.9v9.2h-2.7v-1.8c-.6 1.2-1.6 2.1-3.2 2.1-2.4 0-3.5-1.4-3.5-3.8V71h2.7v5.2c0 1.5.6 2 1.8 2 1.4 0 2.2-1 2.2-3.1v-4.2h2.7zM216.4 75.5c0 2.6-1.2 4.9-4.2 4.9-1.6 0-2.6-.6-3.3-1.6v1.3h-2.7V67.3h2.7v5c.6-1 1.7-1.6 3.3-1.6 2.9-.1 4.2 2.2 4.2 4.8m-2.8 0c0-1.9-.6-2.7-2.3-2.7-1.7 0-2.4.9-2.4 2.7 0 1.9.7 2.7 2.4 2.7 1.7.1 2.3-.8 2.3-2.7M215.9 69.9l-.2-.7 4.7-1.6.5 1.7-5 .6zm1 1h2.7v9.2h-2.7v-9.2zM230.3 70.9v12.8h-2.7v-5c-.6 1-1.7 1.7-3.3 1.7-3 0-4.2-2.3-4.2-4.9 0-2.6 1.2-4.9 4.2-4.9 1.6 0 2.6.6 3.3 1.6v-1.4h2.7zm-2.7 4.6c0-1.9-.7-2.7-2.4-2.7s-2.3.8-2.3 2.7c0 1.9.6 2.7 2.3 2.7 1.7.1 2.4-.8 2.4-2.7M240.3 70.9v9.2h-2.7v-1.8c-.6 1.2-1.6 2.1-3.2 2.1-2.4 0-3.5-1.4-3.5-3.8V71h2.7v5.2c0 1.5.6 2 1.8 2 1.4 0 2.2-1 2.2-3.1v-4.2h2.7zM250.9 70.9V80h-2.7v-1.4c-.6 1-1.6 1.7-3.2 1.7-3 0-4.1-2.3-4.1-4.9 0-2.7 1.1-4.9 4.1-4.9 1.6 0 2.6.6 3.2 1.6v-1.4h2.7zm-2.8 4.6c0-2-.8-2.7-2.4-2.7-1.7 0-2.3.8-2.3 2.7 0 2 .6 2.7 2.3 2.7 1.7.1 2.4-.7 2.4-2.7"/><path transform="rotate(-65.342 184.324 77.635)" class="st2" d="M183.8 76.3h1.1v2.6h-1.1z"/><path transform="rotate(-16.665 189.904 78.153)" class="st2" d="M188.2 77.7h3.3v.9h-3.3z"/><path transform="rotate(-74.562 187.898 75.927)" class="st2" d="M186.2 75.4h3.4v1.1h-3.4z"/><path class="st2" d="M188.8 74.5c-1.5 0-2.6-1.2-2.6-2.6 0-1.5 1.2-2.6 2.6-2.6 1.5 0 2.6 1.2 2.6 2.6 0 1.5-1.2 2.6-2.6 2.6m0-4.2c-.9 0-1.6.7-1.6 1.6 0 .9.7 1.6 1.6 1.6s1.6-.7 1.6-1.6c-.1-.9-.8-1.6-1.6-1.6M192.9 78.9c-1 0-1.8-.8-1.8-1.8s.8-1.8 1.8-1.8 1.8.8 1.8 1.8-.8 1.8-1.8 1.8m0-2.7c-.5 0-.9.4-.9.9s.4.9.9.9.9-.4.9-.9c-.1-.5-.4-.9-.9-.9M186.8 80.9c-1.1 0-2.1-.9-2.1-2.1 0-1.1.9-2.1 2.1-2.1 1.1 0 2.1.9 2.1 2.1 0 1.1-.9 2.1-2.1 2.1m0-3.1c-.6 0-1 .5-1 1 0 .6.5 1 1 1 .6 0 1-.5 1-1 .1-.6-.4-1-1-1M179.7 79.4c-2.4 0-4.4-2-4.4-4.4 0-2.4 2-4.4 4.4-4.4 2.4 0 4.4 2 4.4 4.4-.1 2.5-2 4.4-4.4 4.4m0-7.5c-1.7 0-3.1 1.4-3.1 3.1 0 1.7 1.4 3.1 3.1 3.1 1.7 0 3.1-1.4 3.1-3.1 0-1.7-1.4-3.1-3.1-3.1"/></svg>