<svg version="1.1" id="Camada_1" xmlns="http://www.w3.org/2000/svg" x="0" y="0" viewBox="0 0 242.9 77.5" style="enable-background:new 0 0 242.9 77.5" xml:space="preserve"><style>.st0{fill:#525682}.st1{fill:#fff}.st2{fill:#d3ddf1}.st4{fill:#1c1d3c}</style><path class="st0" d="M36 3.4c-17.6 0-32 14.3-32 32 0 17.6 14.3 32 32 32 17.6 0 32-14.3 32-32s-14.3-32-32-32"/><path class="st1" d="M66.5 50.6c0 1.3-1.1 2.4-2.4 2.4h-1.5c-.5 0-.9-.4-.9-.9s.4-.9.9-.9h1.5c.4 0 .7-.3.7-.7V12.3c0-.4-.3-.7-.7-.7H43.6c-1 0-2.6.3-3.5.8l-2.8 1.3c-.1.1-.3.1-.4.1v39.4l2.5-1.1c1.1-.5 3-.9 4.2-.9h3c.5 0 .9.4.9.9s-.4.9-.9.9h-3c-1 0-2.6.3-3.5.8L37.4 55c-.4.2-.8.3-1.3.3s-.9-.1-1.3-.3L32 53.7c-.9-.4-2.5-.8-3.5-.8H8.1c-1.3 0-2.4-1.1-2.4-2.4V12.3C5.7 11 6.8 10 8.1 10h20.5c1.2 0 3.1.4 4.2.9l2.8 1.3c.3.1.8.1 1.1 0l2.8-1.3c1.1-.5 3-.9 4.2-.9h20.5c1.3 0 2.4 1.1 2.4 2.4v38.2z"/><path class="st0" d="M109.1 35.1v16h-7.7V36.3c0-4.2-1.8-5.8-5-5.8-4.2 0-6.4 2.6-6.4 8.8v11.9h-7.7V14.6H90v15.6c1.7-3.6 4.6-6 9.4-6 6.8 0 9.7 4.1 9.7 10.9M111.9 25h7.7v26.1h-7.7zM150.8 38c0 7.5-3.5 13.9-12.1 13.9-4.5 0-7.5-1.7-9.3-4.6v3.8h-7.7V14.6h7.7v14.3c1.8-2.9 4.8-4.6 9.3-4.6 8.6-.1 12.1 6.4 12.1 13.7m-7.8.1c0-5.4-1.7-7.8-6.6-7.8-5 0-6.9 2.5-6.9 7.8 0 5.4 2 7.8 6.9 7.8s6.6-2.4 6.6-7.8M168.7 24.6v7.5h-2.6c-5.2 0-6.9 2.8-6.9 8.7v10.3h-7.7V25h7.5v5.6c1.3-3.8 3.6-6 8-6h1.7zM170.4 16.4h8.4v5.2h-8.4v-5.2zm.3 8.6h7.7v26.1h-7.7V25zM208.6 14.6v36.6h-7.7v-3.9c-1.8 3-4.8 4.7-9.4 4.7-8.5 0-12-6.4-12-13.9 0-7.4 3.5-13.8 12-13.8 4.5 0 7.5 1.8 9.4 4.8V14.6h7.7zm-7.7 23.5c0-5.4-2.1-7.8-6.9-7.8-5 0-6.7 2.4-6.7 7.8s1.7 7.8 6.7 7.8c4.8 0 6.9-2.4 6.9-7.8M209.9 38c0-7.3 4.1-13.8 14.5-13.8s14.5 6.7 14.5 13.8c0 7.3-4 13.9-14.5 13.9-10.4.1-14.5-6.6-14.5-13.9m14.5 7.9c4.8 0 6.7-2 6.7-7.8s-2-7.8-6.7-7.8c-4.6 0-6.7 2-6.7 7.8s2 7.8 6.7 7.8"/><path class="st0" d="m114.1 23.5-1.3-1.5 9.5-9 3.2 3.6z"/><path class="st1" d="m113.9 24.8-2.5-2.8 11-10.3 4.7 5.3-13.2 7.8zm.3-2.7.1.1 9.6-5.8-1.7-1.9-8 7.6z"/><path class="st2" d="M58 40.7H42.8c-.5 0-.9-.4-.9-.9s.4-.9.9-.9H58c.5 0 .9.4.9.9s-.4.9-.9.9M58 31.3H42.8c-.5 0-.9-.4-.9-.9s.4-.9.9-.9H58c.5 0 .9.4.9.9s-.4.9-.9.9M58 21.9H42.8c-.5 0-.9-.4-.9-.9s.4-.9.9-.9H58c.5 0 .9.4.9.9s-.4.9-.9.9"/><path class="st1" d="M63 55.6 50.8 45.1c-.2-.2-.4-.2-.6-.2-.2 0-.4.1-.5.2-.1.1-.2.3-.2.6l-.1 16.1c0 .6.4.8.7.8.1 0 .3 0 .6-.2l3.3-2.7 2.6 5.7c.2.4.6.6 1 .6.2 0 .3 0 .5-.1l2.4-1.1c.3-.1.5-.3.6-.6.1-.3.1-.6 0-.8l-2.6-5.7 4.2-.7c.5-.1.6-.4.7-.5-.1-.2 0-.6-.4-.9m-5.4 1.2c-.2 0-.3.1-.4.3-.1.1-.1.3 0 .4l2.9 6.3v.1l-.1.1-2.3 1h-.2l-2.9-6.3-.3-.3h-.1c-.1 0-.2 0-.3.1l-3.4 2.8.1-15.1L62 56.1l-4.4.7z"/><path class="st2" d="M57.6 56.8c-.2 0-.3.1-.4.3-.1.1-.1.3 0 .4l2.9 6.3v.1l-.1.1-2.3 1h-.2l-2.9-6.3-.3-.3h-.1c-.1 0-.2 0-.3.1l-3.4 2.8.1-15.1L62 56.1l-4.4.7z"/><path d="M32.3 12.7c-.9-.4-2.5-.8-3.5-.8H8.5c-.4 0-.6.3-.6.6v37.8c0 .4.3.6.6.6h20.3c1.2 0 3 .4 4.2.9l2.4 1.1v-39c-.1 0-.3-.1-.4-.1l-2.7-1.1zm-3.4 26.5h-14c-.5 0-.9-.4-.9-.9s.4-.8.9-.8h14c.5 0 .9.4.9.8-.1.5-.5.9-.9.9m0-8.7h-14c-.5 0-.9-.4-.9-.9s.4-.8.9-.8h14c.5 0 .9.4.9.8-.1.5-.5.9-.9.9m0-8.8h-14c-.5 0-.9-.4-.9-.9s.4-.9.9-.9h14c.5 0 .9.4.9.9-.1.6-.5.9-.9.9" style="fill:#8e95ca"/><path class="st4" d="M152 66c0 2.6-1.2 4.8-4.2 4.8-1.6 0-2.6-.6-3.2-1.6v1.3h-2.7V57.9h2.7v4.9c.6-1 1.6-1.6 3.2-1.6 3 0 4.2 2.2 4.2 4.8m-2.7 0c0-1.9-.6-2.7-2.3-2.7-1.7 0-2.4.9-2.4 2.7 0 1.9.7 2.7 2.4 2.7s2.3-.8 2.3-2.7"/><path class="st4" d="m161.1 61.5-3.2 9.3c-.7 2.2-1.5 3.3-4.1 3.3h-2.3V72h3.5l.6-1.7h-1.5l-3.1-8.9h2.7l2 5.6.5 1.5.4-1.5 1.9-5.6h2.6zM191.9 61.5v9h-2.7v-1.7c-.6 1.2-1.6 2-3.2 2-2.4 0-3.4-1.4-3.4-3.8v-5.5h2.7v5.1c0 1.4.6 2 1.8 2 1.4 0 2.2-1 2.2-3v-4.1h2.6zM202.6 66c0 2.6-1.2 4.8-4.2 4.8-1.6 0-2.6-.6-3.2-1.6v1.3h-2.7V57.9h2.7v4.9c.6-1 1.6-1.6 3.2-1.6 3 0 4.2 2.2 4.2 4.8m-2.7 0c0-1.9-.6-2.7-2.3-2.7-1.7 0-2.4.9-2.4 2.7 0 1.9.7 2.7 2.4 2.7 1.8 0 2.3-.8 2.3-2.7M202.2 60.5l-.2-.7 4.6-1.6.5 1.7-4.9.6zm1 1h2.7v9h-2.7v-9zM216.4 61.5v12.7h-2.7v-5c-.6 1-1.7 1.6-3.2 1.6-3 0-4.2-2.2-4.2-4.8 0-2.6 1.2-4.8 4.2-4.8 1.6 0 2.6.6 3.2 1.6v-1.3h2.7zm-2.6 4.5c0-1.9-.7-2.7-2.4-2.7s-2.3.8-2.3 2.7c0 1.9.6 2.7 2.3 2.7 1.6 0 2.4-.8 2.4-2.7M226.3 61.5v9h-2.7v-1.7c-.6 1.2-1.6 2-3.2 2-2.4 0-3.4-1.4-3.4-3.8v-5.5h2.7v5.1c0 1.4.6 2 1.8 2 1.4 0 2.2-1 2.2-3v-4.1h2.6zM236.7 61.5v9H234v-1.4c-.6 1-1.6 1.6-3.2 1.6-3 0-4.1-2.2-4.1-4.8 0-2.6 1.1-4.8 4.1-4.8 1.6 0 2.6.6 3.2 1.6v-1.3h2.7zm-2.6 4.5c0-2-.7-2.7-2.3-2.7-1.6 0-2.2.8-2.2 2.7 0 1.9.6 2.7 2.2 2.7 1.5 0 2.3-.7 2.3-2.7"/><path transform="rotate(-65.355 170.962 68.089)" class="st4" d="M170.4 66.8h1v2.6h-1z"/><path transform="rotate(-16.724 176.475 68.602)" class="st4" d="M174.8 68.2h3.3v.9h-3.3z"/><path transform="rotate(-74.543 174.502 66.4)" class="st4" d="M172.8 65.9h3.4v1h-3.4z"/><path class="st4" d="M175.3 65c-1.4 0-2.6-1.2-2.6-2.6 0-1.4 1.2-2.6 2.6-2.6 1.4 0 2.6 1.2 2.6 2.6.1 1.5-1.1 2.6-2.6 2.6m0-4.2c-.9 0-1.6.7-1.6 1.6 0 .9.7 1.6 1.6 1.6.9 0 1.6-.7 1.6-1.6 0-.8-.7-1.6-1.6-1.6M179.4 69.3c-1 0-1.8-.8-1.8-1.8s.8-1.8 1.8-1.8 1.8.8 1.8 1.8-.8 1.8-1.8 1.8m0-2.6c-.5 0-.8.4-.8.8 0 .5.4.8.8.8.5 0 .8-.4.8-.8.1-.4-.3-.8-.8-.8M173.5 71.3c-1.1 0-2-.9-2-2s.9-2 2-2 2 .9 2 2-.9 2-2 2m0-3.1c-.6 0-1 .4-1 1s.4 1 1 1 1-.4 1-1-.5-1-1-1M166.4 69.9c-2.4 0-4.3-1.9-4.3-4.3s1.9-4.3 4.3-4.3 4.3 1.9 4.3 4.3c0 2.3-2 4.3-4.3 4.3m0-7.4c-1.7 0-3.1 1.4-3.1 3.1 0 1.7 1.4 3.1 3.1 3.1 1.7 0 3.1-1.4 3.1-3.1 0-1.8-1.4-3.1-3.1-3.1"/></svg>