<svg version="1.1" id="Camada_1" xmlns="http://www.w3.org/2000/svg" x="0" y="0" viewBox="0 0 324.3 77.3" style="enable-background:new 0 0 324.3 77.3" xml:space="preserve"><style>.st0{fill:#8e95ca}.st1{fill:#535680}.st2{fill:#1b1e3c}</style><path class="st0" d="M109.6 26.3h-4.7V8.6l-5.5 17.7h-5.5L88.4 8.5v17.8h-4.7V5.5h8.2l4.8 16.1 4.9-16.1h8zM122.1 21.6h4.4c-.4 2.5-2.5 5.2-8.1 5.2-6.1 0-8.4-3.9-8.4-8.3 0-4.5 2.6-8.3 8.4-8.3 5.9 0 8.1 3.8 8.1 8.2 0 .5 0 .9-.1 1.2h-11.9c.3 3 1.7 3.9 4 3.9 2.1.1 3.1-.8 3.6-1.9m-7.5-4.8h7.5c-.2-2.4-1.3-3.6-3.6-3.6-2.3.1-3.5 1-3.9 3.6M137.1 10.4v4.5h-1.5c-3.1 0-4.2 1.7-4.2 5.2v6.2h-4.6V10.7h4.5V14c.7-2.2 2.2-3.6 4.8-3.6h1z"/><path class="st0" d="M144.6 10.2c5.4 0 8.1 3 8.2 6.8h-4.5c-.2-2-1.2-3.2-3.6-3.2-2.5 0-4 1.2-4 4.7s1.4 4.7 3.9 4.7 3.5-1.4 3.7-3.3h4.5c-.1 3.7-2.7 6.9-8.2 6.9-6.1 0-8.7-3.9-8.7-8.3.1-4.4 2.6-8.3 8.7-8.3"/><path class="st0" d="M152.7 22.1c0-2.5 1.1-4.1 5.1-4.8l3.7-.6c1.5-.2 1.9-.7 1.9-1.6 0-1.1-.6-1.8-2.7-1.8s-3.1.8-3.2 2.4H153c.1-3.4 2.8-5.6 7.6-5.6s7.1 2 7.1 5.3v6.7c0 1.5.1 2.7.2 4.1h-4c-.2-1-.2-2.1-.2-3.3-.7 2.2-2.6 3.7-5.8 3.7-3.2.1-5.2-1.6-5.2-4.5m10.8-3.3v-.7c-.8.6-1.6.8-2.6 1l-1.3.3c-1.7.4-2.3 1-2.3 2.2 0 1.2.9 1.9 2.2 1.9 2.4 0 4-1.8 4-4.7M185.4 4.4v21.9h-4.6V24c-1.1 1.8-2.9 2.8-5.6 2.8-5.1 0-7.2-3.8-7.2-8.3 0-4.4 2.1-8.3 7.2-8.3 2.7 0 4.5 1.1 5.6 2.8V4.4h4.6zm-4.6 14.1c0-3.2-1.2-4.7-4.2-4.7s-4 1.4-4 4.7c0 3.2 1 4.7 4 4.7 2.9-.1 4.2-1.5 4.2-4.7M185.5 18.4c0-4.3 2.4-8.3 8.7-8.3 6.2 0 8.7 4 8.7 8.3 0 4.4-2.4 8.3-8.7 8.3-6.2.1-8.7-3.9-8.7-8.3m8.7 4.7c2.8 0 4-1.2 4-4.7s-1.2-4.7-4-4.7-4 1.2-4 4.7 1.2 4.7 4 4.7M225.9 4.4v21.9h-4.6V24c-1.1 1.8-2.9 2.8-5.6 2.8-5.1 0-7.2-3.8-7.2-8.3 0-4.4 2.1-8.3 7.2-8.3 2.7 0 4.5 1.1 5.6 2.8V4.4h4.6zm-4.6 14.1c0-3.2-1.2-4.7-4.2-4.7s-4 1.4-4 4.7c0 3.2 1 4.7 4 4.7 2.9-.1 4.2-1.5 4.2-4.7M238.1 21.6h4.4c-.4 2.5-2.5 5.2-8.1 5.2-6.1 0-8.4-3.9-8.4-8.3 0-4.5 2.6-8.3 8.4-8.3 5.9 0 8.1 3.8 8.1 8.2 0 .5 0 .9-.1 1.2h-11.9c.3 3 1.7 3.9 4 3.9 2.1.1 3.1-.8 3.6-1.9m-7.5-4.8h7.5c-.2-2.4-1.3-3.6-3.6-3.6-2.3.1-3.5 1-3.9 3.6"/><path class="st1" d="M101.3 36.2h-6.8v17h-4.7v-17h-6.9v-3.8h18.4z"/><path class="st1" d="M110.5 37.3v4.5H109c-3.1 0-4.2 1.7-4.2 5.2v6.2h-4.6V37.6h4.5v3.3c.8-2.2 2.2-3.6 4.8-3.6h1z"/><path class="st1" d="M109.8 49.1c0-2.5 1.1-4.1 5.1-4.8l3.7-.6c1.5-.2 1.9-.7 1.9-1.6 0-1.1-.6-1.8-2.7-1.8s-3.1.8-3.2 2.4h-4.5c.1-3.4 2.8-5.6 7.6-5.6s7.1 2 7.1 5.3v6.7c0 1.5.1 2.7.2 4.1h-4c-.2-1-.2-2.1-.2-3.3-.7 2.2-2.6 3.7-5.8 3.7-3.2 0-5.2-1.7-5.2-4.5m10.7-3.3v-.7c-.8.6-1.6.8-2.6 1l-1.3.3c-1.7.4-2.3 1-2.3 2.2 0 1.2.9 1.9 2.2 1.9 2.5 0 4-1.8 4-4.7M143.3 45.4c0 4.5-2.1 8.3-7.2 8.3-2.7 0-4.5-1-5.6-2.7v2.2h-4.6V31.4h4.6v8.5c1.1-1.7 2.8-2.8 5.6-2.8 5.1 0 7.2 3.9 7.2 8.3m-4.6 0c0-3.2-1-4.7-4-4.7s-4.2 1.5-4.2 4.7 1.2 4.7 4.2 4.7 4-1.4 4-4.7M143.3 49.1c0-2.5 1.1-4.1 5.1-4.8l3.7-.6c1.5-.2 1.9-.7 1.9-1.6 0-1.1-.6-1.8-2.7-1.8s-3.1.8-3.2 2.4h-4.5c.1-3.4 2.8-5.6 7.6-5.6s7.1 2 7.1 5.3v6.7c0 1.5.1 2.7.2 4.1h-4c-.2-1-.2-2.1-.2-3.3-.7 2.2-2.6 3.7-5.8 3.7-3.2 0-5.2-1.7-5.2-4.5m10.7-3.3v-.7c-.8.6-1.6.8-2.6 1l-1.3.3c-1.7.4-2.3 1-2.3 2.2 0 1.2.9 1.9 2.2 1.9 2.5 0 4-1.8 4-4.7M159.3 31.4h4.6v21.9h-4.6zM181.3 43.6v9.6h-4.6v-8.9c0-2.5-1.1-3.5-3-3.5-2.5 0-3.8 1.5-3.8 5.3v7.1h-4.6V31.4h4.6v9.3c1-2.1 2.7-3.6 5.6-3.6 4.1 0 5.8 2.4 5.8 6.5M181.4 45.4c0-4.3 2.4-8.3 8.7-8.3 6.2 0 8.7 4 8.7 8.3 0 4.4-2.4 8.3-8.7 8.3-6.2 0-8.7-3.9-8.7-8.3m8.7 4.7c2.8 0 4-1.2 4-4.7s-1.2-4.7-4-4.7-4 1.2-4 4.7 1.2 4.7 4 4.7M216.4 48.5h4.4c-.4 2.5-2.5 5.2-8.1 5.2-6.1 0-8.4-3.9-8.4-8.3 0-4.5 2.6-8.3 8.4-8.3 5.9 0 8.1 3.8 8.1 8.2 0 .5 0 .9-.1 1.2h-11.9c.3 3 1.8 3.9 4 3.9 2.1.1 3.1-.7 3.6-1.9m-7.5-4.7h7.5c-.2-2.4-1.3-3.6-3.6-3.6-2.2 0-3.5.9-3.9 3.6M247.6 43.6v9.6H243v-8.9c0-2.3-.9-3.4-2.8-3.4-2.4 0-3.5 1.5-3.5 5.3v7.1h-4.5v-8.9c0-2.3-.9-3.4-2.8-3.4-2.4 0-3.5 1.5-3.5 5.3v7.1h-4.6V37.6h4.6v2.8c1-2 2.6-3.3 5.3-3.3 2.8 0 4.4 1.3 5.2 3.6 1-2.2 2.6-3.6 5.6-3.6 3.9 0 5.6 2.4 5.6 6.5M259.1 36.2v5h10.4v3.6h-10.4v8.4h-4.7V32.4h16.2v3.8z"/><path class="st1" d="M269.5 45.4c0-4.3 2.4-8.3 8.7-8.3 6.2 0 8.7 4 8.7 8.3 0 4.4-2.4 8.3-8.7 8.3-6.3 0-8.7-3.9-8.7-8.3m8.7 4.7c2.8 0 4-1.2 4-4.7s-1.2-4.7-4-4.7-4 1.2-4 4.7 1.2 4.7 4 4.7"/><path class="st1" d="M295 37.1c5.4 0 8.1 3 8.2 6.8h-4.5c-.2-2-1.2-3.2-3.6-3.2-2.5 0-4 1.2-4 4.7s1.4 4.7 3.9 4.7 3.5-1.4 3.7-3.3h4.5c-.1 3.7-2.7 6.9-8.2 6.9-6.1 0-8.7-3.9-8.7-8.3s2.6-8.3 8.7-8.3"/><path class="st1" d="M302.8 45.4c0-4.3 2.4-8.3 8.7-8.3 6.2 0 8.7 4 8.7 8.3 0 4.4-2.4 8.3-8.7 8.3-6.2 0-8.7-3.9-8.7-8.3m8.7 4.7c2.8 0 4-1.2 4-4.7s-1.2-4.7-4-4.7-4 1.2-4 4.7 1.2 4.7 4 4.7"/><path class="st2" d="M235.4 66.9c0 2.6-1.2 4.8-4.2 4.8-1.6 0-2.6-.6-3.2-1.6v1.3h-2.7V58.8h2.7v4.9c.6-1 1.6-1.6 3.2-1.6 3 0 4.2 2.3 4.2 4.8m-2.7.1c0-1.9-.6-2.7-2.3-2.7-1.7 0-2.4.8-2.4 2.7 0 1.9.7 2.7 2.4 2.7s2.3-.9 2.3-2.7"/><path class="st2" d="m244.5 62.4-3.2 9.3c-.7 2.2-1.5 3.3-4.1 3.3h-2.3v-2h3.5l.6-1.7h-1.5l-3.1-8.9h2.7l2 5.6.5 1.5.4-1.5 1.9-5.6h2.6zM275.3 62.4v9h-2.7v-1.7c-.6 1.2-1.6 2-3.2 2-2.4 0-3.4-1.4-3.4-3.8v-5.5h2.7v5.1c0 1.4.6 2 1.8 2 1.4 0 2.2-1 2.2-3v-4.1h2.6zM286 66.9c0 2.6-1.2 4.8-4.2 4.8-1.6 0-2.6-.6-3.2-1.6v1.3H276V58.8h2.7v4.9c.6-1 1.6-1.6 3.2-1.6 2.9 0 4.1 2.3 4.1 4.8m-2.7.1c0-1.9-.6-2.7-2.3-2.7s-2.4.8-2.4 2.7c0 1.9.7 2.7 2.4 2.7s2.3-.9 2.3-2.7M285.6 61.4l-.2-.7 4.6-1.6.5 1.7-4.9.6zm1 1h2.7v9h-2.7v-9zM299.8 62.4v12.7h-2.7v-5c-.6 1-1.7 1.6-3.2 1.6-2.9 0-4.2-2.2-4.2-4.8 0-2.6 1.2-4.8 4.2-4.8 1.6 0 2.6.6 3.2 1.6v-1.3h2.7zm-2.6 4.6c0-1.9-.7-2.7-2.4-2.7s-2.3.8-2.3 2.7c0 1.9.6 2.7 2.3 2.7 1.6 0 2.4-.9 2.4-2.7M309.7 62.4v9H307v-1.7c-.6 1.2-1.6 2-3.2 2-2.4 0-3.4-1.4-3.4-3.8v-5.5h2.7v5.1c0 1.4.6 2 1.8 2 1.4 0 2.2-1 2.2-3v-4.1h2.6zM320.1 62.4v9h-2.7V70c-.6 1-1.6 1.6-3.2 1.6-3 0-4.1-2.2-4.1-4.8 0-2.6 1.1-4.8 4.1-4.8 1.6 0 2.6.6 3.2 1.6v-1.3h2.7zm-2.6 4.6c0-2-.7-2.7-2.3-2.7-1.6 0-2.2.8-2.2 2.7 0 1.9.6 2.7 2.2 2.7 1.5 0 2.3-.8 2.3-2.7"/><path transform="rotate(-65.337 254.348 69.054)" class="st2" d="M253.8 67.8h1v2.6h-1z"/><path transform="rotate(-16.672 259.842 69.569)" class="st2" d="M258.2 69.1h3.3v.9h-3.3z"/><path transform="rotate(-74.543 257.908 67.366)" class="st2" d="M256.2 66.8h3.4v1h-3.4z"/><path class="st2" d="M258.7 66c-1.4 0-2.6-1.2-2.6-2.6 0-1.4 1.2-2.6 2.6-2.6 1.4 0 2.6 1.2 2.6 2.6.1 1.4-1.1 2.6-2.6 2.6m0-4.2c-.9 0-1.6.7-1.6 1.6 0 .9.7 1.6 1.6 1.6.9 0 1.6-.7 1.6-1.6 0-.9-.7-1.6-1.6-1.6M262.8 70.3c-1 0-1.8-.8-1.8-1.8s.8-1.8 1.8-1.8 1.8.8 1.8 1.8-.8 1.8-1.8 1.8m0-2.6c-.5 0-.8.4-.8.8 0 .5.4.8.8.8.5 0 .8-.4.8-.8.1-.5-.3-.8-.8-.8M256.9 72.2c-1.1 0-2-.9-2-2s.9-2 2-2 2 .9 2 2-.9 2-2 2m0-3c-.6 0-1 .4-1 1s.4 1 1 1 1-.4 1-1-.5-1-1-1M249.8 70.8c-2.4 0-4.3-1.9-4.3-4.3s1.9-4.3 4.3-4.3 4.3 1.9 4.3 4.3-2 4.3-4.3 4.3m0-7.4c-1.7 0-3.1 1.4-3.1 3.1 0 1.7 1.4 3.1 3.1 3.1 1.7 0 3.1-1.4 3.1-3.1 0-1.7-1.4-3.1-3.1-3.1"/><path class="st1" d="M36.1 2.2c-17.6 0-32 14.3-32 32 0 17.6 14.3 32 32 32 17.6 0 32-14.3 32-32s-14.3-32-32-32"/><path class="st0" d="M35.8 10.8c-13 .2-23.2 10.8-23 23.8.2 13 10.8 23.2 23.8 23 13-.2 23.2-10.8 23-23.8-.3-13-10.9-23.2-23.8-23"/><path d="m54.9 31.8-1-.1h-4.3c-1-5.7-5.5-10.2-11.2-11.2v-4.3l-.1-1c-.7-1.6-2.3-1.6-2.3-1.6-2.2.1-2.4 2-2.4 2l-.1 1v3.9c-5.7 1-10.2 5.5-11.2 11.2h-4.2l-1 .1c-1.6.7-1.6 2.3-1.6 2.3.1 2.2 2 2.4 2 2.4l.9.1h3.7c1 5.7 5.5 10.2 11.2 11.2v3.9l.1.9s.2 1.9 2.4 2c0 0 1.6 0 2.3-1.6l.1-1v-4.4c5.7-1 10.2-5.5 11.2-11.2h3.9l.9-.1s1.9-.2 2-2.4c.3.2.3-1.4-1.3-2.1M36.1 43.2c-5 0-9-4-9-9s4-9 9-9 9 4 9 9-4 9-9 9" style="fill:#fff"/><path d="M36.1 24.9c-5.2 0-9.3 4.1-9.3 9.3 0 5.2 4.1 9.3 9.3 9.3 5.2 0 9.3-4.1 9.3-9.3 0-5.2-4.1-9.3-9.3-9.3" style="fill:#d3ddef"/><path class="st0" d="M51.7 33.3h-6.4c-.4-4.4-3.9-7.9-8.3-8.3v-6.4c0-.4-.3-.7-.7-.7H36c-.4 0-.7.3-.7.7V25c-4.4.4-7.9 3.9-8.3 8.3h-6.4c-.4 0-.7.3-.7.7v.3c0 .4.3.7.7.7H27c.4 4.4 3.9 7.9 8.3 8.3v6.4c0 .4.3.7.7.7h.3c.4 0 .7-.3.7-.7v-6.4c4.4-.4 7.9-3.9 8.3-8.3h6.4c.4 0 .7-.3.7-.7V34c0-.4-.3-.7-.7-.7m-8 0h-4.4c-.3-1.1-1.2-2-2.3-2.3v-4.4c3.5.4 6.3 3.2 6.7 6.7m-8.5-6.7V31c-1.1.3-2 1.2-2.3 2.3h-4.4c.5-3.5 3.2-6.3 6.7-6.7m-6.6 8.5H33c.3 1.1 1.2 2 2.3 2.3v4.4c-3.6-.5-6.3-3.3-6.7-6.7m8.4 6.6v-4.4c1.1-.3 2-1.2 2.3-2.3h4.4c-.4 3.5-3.2 6.3-6.7 6.7"/></svg>