<svg version="1.1" id="Camada_1" xmlns="http://www.w3.org/2000/svg" x="0" y="0" viewBox="0 0 303.8 82.6" style="enable-background:new 0 0 303.8 82.6" xml:space="preserve"><style>.st0{fill:#505584}.st1{fill:#8c95cb}.st2{fill:#1d1a39}.st3{fill:#cfddf1}</style><path class="st0" d="M109.4 15.6V28h-6.9V16.7c0-2.6-1-4-3.3-4-2.7 0-3.9 1.8-4 5.8v9.6h-6.7V16.8c0-2.6-1-4-3.3-4-2.7 0-4 1.8-4 5.8v9.6h-6.9l.1-20.4h6.9v3.5c1.2-2.5 3.4-4.1 6.8-4.1s5.6 1.7 6.6 4.5c1.2-2.7 3.4-4.5 7.1-4.5 5.3-.2 7.7 3.1 7.6 8.4M110.5 17.8c0-5.5 3-10.8 11.4-10.8s11.4 5.4 11.4 10.9-3 10.8-11.5 10.8c-8.4 0-11.4-5.4-11.3-10.9m11.3 5.4c3.3 0 4.5-1.3 4.6-5.4 0-4.1-1.3-5.4-4.5-5.4-3.3 0-4.5 1.3-4.6 5.4 0 4.1 1.3 5.4 4.5 5.4M156 15.8v12.4h-6.9V17c0-2.7-1.1-4.2-3.4-4.2-2.7 0-4.3 1.8-4.4 5.8v9.6h-6.9l.1-20.4h6.9v3.8c1.3-2.7 3.6-4.4 7.2-4.4 5.2-.1 7.4 3.2 7.4 8.6M157.9 1.1h7.1v4.2h-7.1V1.1zm.1 6.7h6.9l-.1 20.4h-6.9l.1-20.4zM168.9 20.2v-7.1h-3.5V9.8l4.1-1.8 2.8-5.1h3.5v4.9h5.4v5.3h-5.4v9.6h4.8v5.5H177c-6.2 0-8.1-2.8-8.1-8"/><path class="st0" d="M181 18.1c0-5.5 3-10.8 11.4-10.8s11.4 5.4 11.4 10.9-3 10.8-11.5 10.8c-8.4-.1-11.3-5.4-11.3-10.9m11.4 5.4c3.3 0 4.5-1.3 4.6-5.4 0-4.1-1.3-5.4-4.5-5.4-3.3 0-4.5 1.3-4.6 5.4 0 4.1 1.2 5.4 4.5 5.4M219.1 7.7v6.8h-2.4c-3.3 0-4.7 1.6-4.7 5.7v8.2h-6.9V8h6.7v4.2c.8-2.9 2.4-4.5 5.7-4.5h1.6zM219.8 1.3h7.1v4.2h-7.1V1.3zm.1 6.7h6.9l-.1 20.4h-6.9l.1-20.4zM228.3 23c0-3.3 1.3-5.4 6.8-6.3l4.5-.8c1.8-.3 2.3-.8 2.3-1.9 0-1.2-.7-2-3-2-2.4 0-3.5 1-3.6 2.8h-6.7c.2-4.3 3.9-7.4 10.2-7.4 6.3 0 9.4 2.7 9.4 7.3v8.1c0 2.2.1 4 .3 5.6h-5.9c-.2-1.2-.3-2.6-.3-4.2-1 3-3.5 4.8-7.5 4.7-3.9.1-6.5-2.3-6.5-5.9m13.7-4.1v-.8c-1 .7-1.9 1-3.1 1.3l-1.2.3c-1.9.5-2.6 1.2-2.6 2.6 0 1.4 1.1 2.2 2.5 2.2 2.5-.1 4.3-1.9 4.4-5.6"/><path class="st1" d="M86.7 38.5c7.2 0 10.7 4.2 10.9 9.3h-6.7c-.2-2.4-1.4-3.8-4.1-3.8-2.9 0-4.5 1.3-4.5 5.4 0 4.1 1.6 5.4 4.4 5.4 2.8 0 4-1.6 4.3-3.8h6.7c-.2 4.9-3.5 9.3-10.9 9.3-8.2 0-11.4-5.3-11.4-10.8 0-5.6 3-11 11.3-11M97.9 49.4c0-5.5 2.9-10.8 11.4-10.8 8.4 0 11.4 5.4 11.4 10.8 0 5.5-3 10.8-11.4 10.8-8.5 0-11.4-5.3-11.4-10.8m11.4 5.4c3.3 0 4.5-1.3 4.5-5.4 0-4.1-1.3-5.4-4.5-5.4-3.3 0-4.5 1.3-4.5 5.4 0 4.1 1.2 5.4 4.5 5.4M121.8 31h6.9v28.5h-6.9zM130.4 54.2c0-3.3 1.3-5.4 6.8-6.4l4.5-.8c1.8-.3 2.3-.8 2.3-1.9 0-1.2-.7-2-3-2-2.4 0-3.5 1-3.6 2.8h-6.7c.2-4.3 3.9-7.4 10.2-7.4 6.3 0 9.4 2.6 9.4 7.3v8.1c0 2.2.1 4 .4 5.6h-5.9c-.2-1.2-.3-2.6-.3-4.2-1 3-3.5 4.8-7.5 4.8-3.9 0-6.6-2.3-6.6-5.9m13.7-4.2v-.8c-1 .7-1.9 1-3.1 1.3l-1.2.3c-1.9.5-2.6 1.2-2.6 2.6 0 1.4 1.1 2.2 2.5 2.2 2.5-.1 4.4-1.9 4.4-5.6M175.7 49.3c0 5.8-2.6 10.9-9.1 10.9-3.4 0-5.7-1.3-7-3.5v2.8h-6.9V31h6.9v11c1.4-2.2 3.6-3.5 7-3.5 6.5 0 9.1 5.2 9.1 10.8m-6.9.1c0-3.8-1.2-5.4-4.6-5.4-3.5 0-4.7 1.8-4.7 5.4 0 3.6 1.2 5.4 4.7 5.4s4.6-1.6 4.6-5.4M176.3 49.4c0-5.5 2.9-10.8 11.4-10.8 8.4 0 11.4 5.4 11.4 10.8 0 5.5-3 10.8-11.4 10.8s-11.4-5.3-11.4-10.8m11.4 5.4c3.3 0 4.5-1.3 4.5-5.4 0-4.1-1.3-5.4-4.5-5.4-3.3 0-4.5 1.3-4.5 5.4 0 4.1 1.3 5.4 4.5 5.4M214.3 38.9v6.8h-2.4c-3.3 0-4.7 1.6-4.7 5.7v8.2h-6.9V39.2h6.7v4.2c.8-2.9 2.4-4.5 5.7-4.5h1.6zM214.3 54.2c0-3.3 1.3-5.4 6.8-6.4l4.5-.8c1.8-.3 2.3-.8 2.3-1.9 0-1.2-.7-2-3-2-2.4 0-3.5 1-3.6 2.8h-6.7c.2-4.3 3.9-7.4 10.2-7.4 6.3 0 9.4 2.6 9.4 7.3v8.1c0 2.2.1 4 .4 5.6h-5.9c-.2-1.2-.3-2.6-.3-4.2-1 3-3.5 4.8-7.5 4.8-3.9 0-6.6-2.3-6.6-5.9M228 50v-.8c-1 .7-1.9 1-3.1 1.3l-1.2.3c-1.9.5-2.6 1.2-2.6 2.6 0 1.4 1.1 2.2 2.5 2.2 2.5-.1 4.4-1.9 4.4-5.6M238.1 51.5v-7.1h-3.5v-3.3l4.1-1.8 2.8-5.1h3.5v4.9h5.4v5.3H245V54h4.8v5.5h-3.6c-6.2.1-8.1-2.7-8.1-8M251.8 32.5h7.1v4.2h-7.1v-4.2zm.1 6.7h6.9v20.4h-6.9V39.2zM282.3 39.2l-6.6 20.4h-9.8l-6.7-20.4h7l4.8 15.1 4.8-15.1zM281.3 54.2c0-3.3 1.3-5.4 6.8-6.4l4.5-.8c1.8-.3 2.3-.8 2.3-1.9 0-1.2-.7-2-3-2-2.4 0-3.5 1-3.6 2.8h-6.7c.2-4.3 3.9-7.4 10.2-7.4 6.3 0 9.4 2.6 9.4 7.3v8.1c0 2.2.1 4 .4 5.6h-5.9c-.2-1.2-.3-2.6-.3-4.2-1 3-3.5 4.8-7.5 4.8s-6.6-2.3-6.6-5.9m13.6-4.2v-.8c-1 .7-1.9 1-3.1 1.3l-1.2.3c-1.9.5-2.6 1.2-2.6 2.6 0 1.4 1.1 2.2 2.5 2.2 2.6-.1 4.4-1.9 4.4-5.6"/><path class="st2" d="M217.8 73.6c0 2.5-1.2 4.7-4.1 4.7-1.5 0-2.5-.6-3.1-1.5V78H208V65.7h2.6v4.8c.6-1 1.6-1.6 3.1-1.6 2.9.1 4.1 2.2 4.1 4.7m-2.7 0c0-1.8-.6-2.6-2.2-2.6-1.7 0-2.3.8-2.3 2.6s.7 2.6 2.3 2.6c1.7.1 2.2-.7 2.2-2.6"/><path class="st2" d="m226.6 69.2-3.1 9c-.7 2.2-1.5 3.2-4 3.2h-2.2v-2.1h3.4l.6-1.6h-1.5l-3-8.6h2.7l1.9 5.5.5 1.4.4-1.4 1.9-5.5h2.4zM256.5 69.2V78h-2.6v-1.7c-.5 1.2-1.5 2-3.1 2-2.3 0-3.3-1.4-3.3-3.7v-5.4h2.6v5c0 1.4.6 1.9 1.7 1.9 1.3 0 2.1-1 2.1-3v-4h2.6zM266.9 73.6c0 2.5-1.2 4.7-4.1 4.7-1.5 0-2.5-.6-3.1-1.5V78h-2.6V65.7h2.6v4.8c.6-1 1.6-1.6 3.1-1.6 3 .1 4.1 2.2 4.1 4.7m-2.6 0c0-1.8-.6-2.6-2.2-2.6-1.7 0-2.3.8-2.3 2.6s.7 2.6 2.3 2.6c1.7.1 2.2-.7 2.2-2.6M266.5 68.3l-.2-.7 4.5-1.5.5 1.7-4.8.5zm1 .9h2.6V78h-2.6v-8.8zM280.3 69.2v12.3h-2.6v-4.8c-.6 1-1.6 1.6-3.1 1.6-2.9 0-4-2.2-4-4.7s1.2-4.7 4-4.7c1.5 0 2.5.6 3.1 1.6v-1.3h2.6zm-2.6 4.4c0-1.8-.7-2.6-2.3-2.6-1.7 0-2.2.8-2.2 2.6s.6 2.6 2.2 2.6c1.6.1 2.3-.8 2.3-2.6M289.9 69.2V78h-2.6v-1.7c-.5 1.2-1.5 2-3.1 2-2.3 0-3.3-1.4-3.3-3.7v-5.4h2.6v5c0 1.4.6 1.9 1.7 1.9 1.3 0 2.1-1 2.1-3v-4h2.6zM300 69.2V78h-2.6v-1.3c-.6 1-1.5 1.6-3.1 1.6-2.9 0-4-2.2-4-4.7s1.1-4.7 4-4.7c1.5 0 2.5.6 3.1 1.6v-1.3h2.6zm-2.6 4.4c0-1.9-.7-2.6-2.3-2.6-1.6 0-2.2.7-2.2 2.6 0 1.9.6 2.6 2.2 2.6 1.6.1 2.3-.7 2.3-2.6"/><path transform="rotate(-65.329 236.19 75.67)" class="st2" d="M235.7 74.4h1v2.5h-1z"/><path transform="rotate(-16.654 241.53 76.171)" class="st2" d="M239.9 75.7h3.2v.9h-3.2z"/><path transform="rotate(-74.527 239.602 74.024)" class="st2" d="M238 73.5h3.3v1H238z"/><path class="st2" d="M240.4 72.7c-1.4 0-2.5-1.1-2.5-2.5s1.1-2.5 2.5-2.5 2.5 1.1 2.5 2.5c.1 1.4-1.1 2.5-2.5 2.5m0-4.1c-.8 0-1.5.7-1.5 1.5s.7 1.5 1.5 1.5 1.5-.7 1.5-1.5c.1-.8-.6-1.5-1.5-1.5M244.4 76.9c-.9 0-1.7-.8-1.7-1.7 0-.9.8-1.7 1.7-1.7.9 0 1.7.8 1.7 1.7 0 .9-.8 1.7-1.7 1.7m0-2.6c-.5 0-.8.4-.8.8 0 .5.4.8.8.8.5 0 .8-.4.8-.8s-.3-.8-.8-.8M238.6 78.8c-1.1 0-2-.9-2-2s.9-2 2-2 2 .9 2 2-.9 2-2 2m0-3c-.5 0-1 .4-1 1s.4 1 1 1c.5 0 1-.4 1-1s-.5-1-1-1M231.7 77.4c-2.3 0-4.2-1.9-4.2-4.2s1.9-4.2 4.2-4.2c2.3 0 4.2 1.9 4.2 4.2s-1.9 4.2-4.2 4.2m0-7.2c-1.7 0-3 1.4-3 3 0 1.7 1.3 3 3 3s3-1.3 3-3-1.3-3-3-3"/><path class="st0" d="M14.4 39.3c-2.2 0-4 1.8-4 4s1.8 4 4 4 4-1.8 4-4-1.8-4-4-4M32.4 39.3c-2.2 0-4 1.8-4 4s1.8 4 4 4 4-1.8 4-4c-.1-2.2-1.9-4-4-4M50.3 39.3c-2.2 0-4 1.8-4 4s1.8 4 4 4 4-1.8 4-4-1.8-4-4-4"/><path class="st0" d="M51.3 52.4h-2c-3.1 0-4.4.7-5.2 1.3-.5.3-1.1.2-1.5-.2-.3-.5-.2-1.1.2-1.5 1.1-.8 2.8-1.7 6.4-1.7h2c3.7 0 5.4.9 6.4 1.7.1.1.2.2.3.2 3.9-5.2 6.3-11.7 6.3-18.7 0-17.2-13.9-31.1-31.1-31.1-17 0-30.9 14-30.9 31.1 0 6.7 2.1 12.8 5.7 17.9 1.1-.6 2.7-1.1 5.5-1.1h2c3.7 0 5.4.9 6.4 1.7.5.3.6 1 .2 1.5-.3.5-1 .6-1.5.2-.9-.6-2.1-1.3-5.2-1.3h-2c-2.1 0-3.3.3-4.2.7 5.7 7 14.4 11.5 24.1 11.5 9.4 0 17.7-4.1 23.4-10.7l-.2-.2c-.7-.6-2-1.3-5.1-1.3m-1-3.1c-3.4 0-6.1-2.7-6.1-6.1 0-3.4 2.7-6.1 6.1-6.1 3.4 0 6.1 2.7 6.1 6.1 0 3.4-2.7 6.1-6.1 6.1m.4-35.4h-2.1c-.6 0-1.1-.5-1.1-1.1 0-.6.5-1.1 1.1-1.1h2.1c3.6 0 6.7 3.1 6.7 6.5v6.4c0 3.6-3.2 6.9-6.7 6.9h-2.8l.7 4.1c.1.4-.2.9-.6 1.1-.2.3-.4.3-.6.3-.3 0-.5-.1-.7-.3l-5.3-5H40c-.6 0-1.1-.5-1.1-1.1 0-.6.5-1.1 1.1-1.1h1.8c.3 0 .5.1.7.3l3.3 3.1-.4-2.2c0-.3 0-.6.2-.9.2-.2.5-.4.8-.4h4.1c2.3 0 4.6-2.4 4.6-4.8v-6.4c.2-2.2-2-4.3-4.4-4.3M22.2 15c0-3.5 3.2-6.6 6.7-6.6h10.4c3.6 0 7 3.2 7 6.6v6.4c0 3.5-3.4 6.9-7 6.9h-1.5l-.8 6.1c-.1.4-.4.8-.8.9h-.3c-.3 0-.6-.2-.8-.4L30 28.3h-1c-3.5 0-6.7-3.3-6.7-6.9V15zm16.2 28.3c0 3.4-2.7 6.1-6.1 6.1-3.4 0-6.1-2.7-6.1-6.1 0-3.4 2.7-6.1 6.1-6.1 3.4 0 6.1 2.7 6.1 6.1m-24 6c-3.4 0-6.1-2.7-6.1-6.1 0-3.4 2.7-6.1 6.1-6.1 3.4 0 6.1 2.7 6.1 6.1 0 3.4-2.8 6.1-6.1 6.1m4.1-12.9c-.2.2-.4.2-.7.2-.2 0-.4-.1-.6-.2-.4-.2-.6-.7-.5-1.1l1-4.5H17c-3.5 0-6.7-3.3-6.7-6.9v-6.4c0-3.5 3.2-6.6 6.7-6.6h3.5c.6 0 1.1.5 1.1 1.1 0 .6-.5 1.1-1.1 1.1H17c-2.4 0-4.6 2.1-4.6 4.5V24c0 2.4 2.3 4.7 4.6 4.7h2c.3 0 .6.2.8.4.2.2.3.6.2.9l-.6 2.9 4.9-3.9c.2-.1.4-.2.7-.2h2c.6 0 1.1.5 1.1 1.1 0 .6-.5 1.1-1.1 1.1h-1.5l-7 5.4zm23.2 21.5c-.6.1-1.1-.2-1.2-.8-.3-1.5-1-2.7-1.8-3.4-.9-.6-2.1-1.3-5.2-1.3h-2c-3.1 0-4.3.6-5.2 1.3-.8.6-1.5 1.9-1.8 3.4-.1.5-.5.9-1 .9h-.2c-.6-.1-.9-.7-.8-1.2.4-2 1.4-3.8 2.7-4.7 1.1-.8 2.8-1.7 6.4-1.7h2c3.7 0 5.4.9 6.4 1.7 1.3.9 2.3 2.6 2.7 4.6-.1.5-.5 1.1-1 1.2"/><path class="st1" d="M29 10.5c-2.4 0-4.6 2.1-4.6 4.5v6.4c0 2.4 2.3 4.7 4.6 4.7h1.5c.3 0 .6.2.8.4l3.9 5 .6-4.5c.1-.5.5-.9 1-.9h2.4c2.4 0 4.9-2.4 4.9-4.7V15c0-2.2-2.4-4.5-4.9-4.5H29z"/><path class="st3" d="M30.9 18c0 .9-.8 1.7-1.7 1.7-.9 0-1.7-.8-1.7-1.7 0-.9.8-1.7 1.7-1.7.9 0 1.7.7 1.7 1.7M36 18c0 .9-.8 1.7-1.7 1.7-.9 0-1.7-.8-1.7-1.7 0-.9.8-1.7 1.7-1.7.9 0 1.7.7 1.7 1.7M41.1 18c0 .9-.8 1.7-1.7 1.7-.9 0-1.7-.8-1.7-1.7 0-.9.8-1.7 1.7-1.7.9 0 1.7.7 1.7 1.7"/></svg>