<svg version="1.1" id="Camada_1" xmlns="http://www.w3.org/2000/svg" x="0" y="0" viewBox="0 0 242.3 80.8" style="enable-background:new 0 0 242.3 80.8" xml:space="preserve"><style>.st0{fill:#525682}.st1{fill:#1c1d3c}</style><path class="st0" d="M104.7 31v16H97V32.2c0-4.2-1.8-5.8-5-5.8-4.2 0-6.4 2.6-6.4 8.8V47h-7.7V20.9h7.7V26c1.7-3.6 4.6-6 9.4-6 6.8 0 9.7 4.1 9.7 11M105.6 40c0-4.1 1.8-6.9 8.6-8l6.2-1c2.5-.4 3.2-1.1 3.2-2.6 0-1.8-1-3-4.5-3s-5.2 1.4-5.3 4.1h-7.6c.2-5.6 4.8-9.4 12.7-9.4s11.8 3.3 11.8 8.9v11.3c0 2.5.2 4.5.4 6.8h-6.7c-.3-1.7-.4-3.4-.4-5.6-1.2 3.6-4.3 6.3-9.7 6.3-5.3-.1-8.7-3-8.7-7.8m18-5.4v-1.1c-1.4 1-2.7 1.3-4.3 1.7l-2.2.5c-2.8.7-3.9 1.6-3.9 3.7s1.6 3.1 3.7 3.1c4.1-.1 6.7-3.1 6.7-7.9M158.4 20.9l-9 26.1h-10.9l-9.1-26.1h7.9l6.9 20.1 6.9-20.1zM175.6 39.1h7.4c-.7 4.2-4.1 8.7-13.5 8.7-10.2 0-14-6.6-14-13.9 0-7.6 4.4-13.8 14-13.8 9.9 0 13.5 6.4 13.5 13.8 0 .8.1 1.5-.1 2.1H163c.5 5 2.9 6.6 6.6 6.6 3.5-.1 5.2-1.6 6-3.5m-12.5-7.9h12.6c-.3-4-2.2-6-6.1-6-3.7.1-5.9 1.6-6.5 6M212.7 20.9V46c0 8-4 12.1-14.6 12.1-8.9 0-13.4-4-13.7-9.9h7.6c.4 2.7 2.1 4.4 6.5 4.4 4.6 0 6.6-1.6 6.6-5.7v-4.8c-1.8 2.7-4.7 4.1-9.1 4.1-8.5 0-12.2-5.8-12.2-13 0-7.3 3.7-13.1 12.2-13.1 4.4 0 7.3 1.6 9.1 4.2v-3.4h7.6zm-7.8 12.4c0-5-1.8-7.2-6.6-7.2-5 0-6.9 2-6.9 7.2s1.9 7.2 6.9 7.2c4.8 0 6.6-2.2 6.6-7.2M213.8 40c0-4.1 1.8-6.9 8.6-8l6.2-1c2.5-.4 3.2-1.1 3.2-2.6 0-1.8-1-3-4.5-3s-5.2 1.4-5.3 4.1h-7.6c.2-5.6 4.8-9.4 12.7-9.4s11.8 3.3 11.8 8.9v11.3c0 2.5.2 4.5.4 6.8h-6.7c-.3-1.7-.4-3.4-.4-5.6-1.2 3.6-4.3 6.3-9.7 6.3-5.3-.1-8.7-3-8.7-7.8m18-5.4v-1.1c-1.4 1-2.7 1.3-4.3 1.7l-2.2.5c-2.8.7-3.9 1.6-3.9 3.7s1.6 3.1 3.7 3.1c4.1-.1 6.7-3.1 6.7-7.9"/><path class="st1" d="M153.5 71.5c0 2.6-1.2 4.8-4.2 4.8-1.6 0-2.6-.6-3.2-1.6V76h-2.7V63.4h2.7v4.9c.6-1 1.6-1.6 3.2-1.6 3 0 4.2 2.3 4.2 4.8m-2.7 0c0-1.9-.6-2.7-2.3-2.7-1.7 0-2.4.9-2.4 2.7 0 1.9.7 2.7 2.4 2.7s2.3-.8 2.3-2.7"/><path class="st1" d="m162.6 67-3.2 9.3c-.7 2.2-1.5 3.3-4.1 3.3H153v-2.1h3.5l.6-1.7h-1.5l-3.1-8.9h2.7l2 5.6.5 1.5.4-1.5L160 67h2.6zM193.5 67v9h-2.7v-1.7c-.6 1.2-1.6 2-3.2 2-2.4 0-3.4-1.4-3.4-3.8V67h2.7v5.1c0 1.4.6 2 1.8 2 1.4 0 2.2-1 2.2-3V67h2.6zM204.2 71.5c0 2.6-1.2 4.8-4.2 4.8-1.6 0-2.6-.6-3.2-1.6V76h-2.7V63.4h2.7v4.9c.6-1 1.6-1.6 3.2-1.6 2.9 0 4.2 2.3 4.2 4.8m-2.7 0c0-1.9-.6-2.7-2.3-2.7-1.7 0-2.4.9-2.4 2.7 0 1.9.7 2.7 2.4 2.7s2.3-.8 2.3-2.7M203.7 66l-.2-.7 4.6-1.6.5 1.7-4.9.6zm1 1h2.7v9h-2.7v-9zM218 67v12.7h-2.7v-5c-.6 1-1.7 1.6-3.2 1.6-3 0-4.2-2.2-4.2-4.8 0-2.6 1.2-4.8 4.2-4.8 1.6 0 2.6.6 3.2 1.6V67h2.7zm-2.7 4.5c0-1.9-.7-2.7-2.4-2.7s-2.3.8-2.3 2.7c0 1.9.6 2.7 2.3 2.7 1.7 0 2.4-.8 2.4-2.7M227.9 67v9h-2.7v-1.7c-.6 1.2-1.6 2-3.2 2-2.4 0-3.4-1.4-3.4-3.8V67h2.7v5.1c0 1.4.6 2 1.8 2 1.4 0 2.2-1 2.2-3V67h2.6zM238.3 67v9h-2.7v-1.4c-.6 1-1.6 1.6-3.2 1.6-3 0-4.1-2.2-4.1-4.8 0-2.6 1.1-4.8 4.1-4.8 1.6 0 2.6.6 3.2 1.6V67h2.7zm-2.7 4.5c0-2-.7-2.7-2.3-2.7-1.6 0-2.2.8-2.2 2.7 0 1.9.6 2.7 2.2 2.7 1.5 0 2.3-.7 2.3-2.7"/><path transform="rotate(-65.337 172.475 73.614)" class="st1" d="M172 72.3h1v2.6h-1z"/><path transform="rotate(-16.665 177.995 74.128)" class="st1" d="M176.4 73.7h3.3v.9h-3.3z"/><path transform="rotate(-74.543 176.025 71.928)" class="st1" d="M174.3 71.4h3.4v1h-3.4z"/><path class="st1" d="M176.9 70.6c-1.4 0-2.6-1.2-2.6-2.6 0-1.4 1.2-2.6 2.6-2.6 1.4 0 2.6 1.2 2.6 2.6 0 1.4-1.2 2.6-2.6 2.6m0-4.2c-.9 0-1.6.7-1.6 1.6 0 .9.7 1.6 1.6 1.6.9 0 1.6-.7 1.6-1.6-.1-.9-.8-1.6-1.6-1.6M181 74.8c-1 0-1.8-.8-1.8-1.8s.8-1.8 1.8-1.8 1.8.8 1.8 1.8c-.1 1-.9 1.8-1.8 1.8m0-2.6c-.5 0-.8.4-.8.8 0 .5.4.8.8.8.5 0 .8-.4.8-.8s-.4-.8-.8-.8M175 76.8c-1.1 0-2-.9-2-2s.9-2 2-2 2 .9 2 2-.9 2-2 2m0-3c-.6 0-1 .4-1 1s.4 1 1 1 1-.4 1-1-.5-1-1-1M167.9 75.4c-2.4 0-4.3-1.9-4.3-4.3s1.9-4.3 4.3-4.3 4.3 1.9 4.3 4.3-1.9 4.3-4.3 4.3m0-7.4c-1.7 0-3.1 1.4-3.1 3.1 0 1.7 1.4 3.1 3.1 3.1 1.7 0 3.1-1.4 3.1-3.1 0-1.7-1.4-3.1-3.1-3.1"/><path d="m30.4 30.9 15.4-10.7c.4-.3.8.2.6.5l-7.9 14.5-.1.1L23 46.1c-.4.3-.8-.2-.6-.5l7.9-14.5.1-.2z" style="fill:#8e95ca"/><path class="st0" d="M34.4 1.7C17 1.7 2.9 15.8 2.9 33.2c0 13.2 8.3 25 20.7 29.5l9.1 15.8c.7 1.2 2.5 1.2 3.2 0L45 62.7c12.4-4.5 20.7-16.3 20.7-29.5.1-17.4-13.9-31.5-31.3-31.5m0 8.1c12.9 0 23.3 10.4 23.3 23.3S47.3 56.4 34.4 56.4 11.1 46 11.1 33.1c0-12.8 10.4-23.3 23.3-23.3"/></svg>