<svg version="1.1" id="Camada_1" xmlns="http://www.w3.org/2000/svg" x="0" y="0" viewBox="0 0 251.2 101.1" style="enable-background:new 0 0 251.2 101.1" xml:space="preserve"><style>.st0{fill:#525682}.st1{fill:#8e95ca}.st3{fill:#1c1d3c}</style><path class="st0" d="M111.9 22.8v16h-7.7V24c0-4.2-1.8-5.8-5-5.8-4.2 0-6.4 2.6-6.4 8.8v11.9h-7.7V12.7h7.7v5.1c1.7-3.6 4.6-6 9.4-6 6.8 0 9.7 4.1 9.7 11M113.2 25.7c0-7.3 4.1-13.8 14.5-13.8s14.5 6.7 14.5 13.8c0 7.3-4 13.9-14.5 13.9s-14.5-6.6-14.5-13.9m14.4 7.9c4.8 0 6.7-2 6.7-7.8s-2-7.8-6.7-7.8c-4.6 0-6.7 2-6.7 7.8 0 5.7 2.1 7.8 6.7 7.8"/><path class="st0" d="M155.5 38.8c-7.4 0-9.6-3.2-9.6-9.4V18.5h-4.8v-3.7l5.4-2.2 3.2-6.2h3.9v6.2h7.5v5.8h-7.5v14.1h6.8v6.2h-4.9z"/><path class="st0" d="M160.4 31.9c0-4.1 1.8-6.9 8.6-8l6.2-1c2.5-.4 3.2-1.1 3.2-2.6 0-1.8-1-3-4.5-3s-5.2 1.4-5.3 4.1H161c.2-5.6 4.8-9.4 12.7-9.4 8 0 11.8 3.3 11.8 8.9V32c0 2.5.2 4.5.4 6.8h-6.7c-.3-1.7-.4-3.4-.4-5.6-1.2 3.6-4.3 6.3-9.7 6.3-5.3 0-8.7-2.9-8.7-7.6m6.3-22.1-.6-2 13.2-4.5 1.5 4.9-14.1 1.6zm11.7 16.6v-1.1c-1.4 1-2.7 1.3-4.3 1.7l-2.2.5c-2.8.7-3.9 1.6-3.9 3.7s1.6 3.1 3.7 3.1c4.1-.1 6.7-3.1 6.7-7.9M214.3 12.7l-9.1 26.1h-10.9l-9.1-26.1h7.9l6.9 20.1 6.9-20.1zM232.4 30.9h7.4c-.7 4.2-4.1 8.7-13.5 8.7-10.2 0-14-6.6-14-13.9 0-7.6 4.4-13.8 14-13.8 9.9 0 13.5 6.4 13.5 13.8 0 .8.1 1.5-.1 2.1h-19.9c.5 5 2.9 6.6 6.6 6.6 3.5-.1 5.3-1.6 6-3.5M220 23h12.6c-.3-4-2.2-6-6.1-6-3.8.1-5.9 1.6-6.5 6M241.3 2.2h7.7v36.6h-7.7z"/><path class="st1" d="M129.3 58.2v16h-7.7V59.3c0-3.8-1.6-5.7-4.7-5.7-4 0-5.9 2.6-5.9 8.8v11.9h-7.6v-15c0-3.8-1.6-5.7-4.7-5.7-4 0-5.9 2.6-5.9 8.8v11.9h-7.7V48.2h7.7V53c1.6-3.3 4.3-5.6 8.9-5.6 4.6 0 7.4 2.1 8.6 6.1 1.6-3.6 4.4-6.1 9.3-6.1 6.8-.1 9.7 4 9.7 10.8M150.7 66.4h7.4c-.7 4.2-4.1 8.7-13.5 8.7-10.2 0-14-6.6-14-13.9 0-7.6 4.4-13.8 14-13.8 9.9 0 13.5 6.4 13.5 13.8 0 .8.1 1.5-.1 2.1h-19.9c.5 5 2.9 6.6 6.6 6.6 3.5-.1 5.2-1.6 6-3.5m-12.5-7.9h12.6c-.3-4-2.2-6-6.1-6-3.8.1-5.9 1.6-6.5 6M165.5 65.8c.2 2.5 2 4.5 6 4.5 3.6 0 4.7-1.2 4.7-3 0-1.6-.7-2.7-3.7-3.1l-5.8-.7c-5-.6-7.6-3.2-7.6-7.6 0-5.8 5-8.5 11.9-8.5 7.1 0 11.8 2.7 12.3 8.5h-7.2c-.3-2.1-1.8-3.7-5.1-3.7s-4.7 1.3-4.7 2.9c0 1.3.6 2.3 3.3 2.7l5.5.6c6.3.8 8.6 3.4 8.6 8.1 0 5.2-3.2 8.7-12.2 8.7-9.3 0-12.8-4.4-13-9.4h7z"/><path class="st1" d="M196.7 74.3c-7.4 0-9.6-3.2-9.6-9.4V54h-4.8v-3.7l5.4-2.2 3.2-6.2h3.9v6.2h7.5V54h-7.5v14.1h6.8v6.2h-4.9zM221.3 47.8v7.5h-2.6c-5.2 0-6.9 2.8-6.9 8.7v10.3h-7.7V48.2h7.5v5.6c1.3-3.8 3.6-6 8-6h1.7z"/><path class="st1" d="M240.6 66.4h7.4c-.7 4.2-4.1 8.7-13.5 8.7-10.2 0-14-6.6-14-13.9 0-7.6 4.4-13.8 14-13.8 9.9 0 13.5 6.4 13.5 13.8 0 .8.1 1.5-.1 2.1H228c.5 5 2.9 6.6 6.6 6.6 3.5-.1 5.3-1.6 6-3.5m-12.4-7.9h12.6c-.3-4-2.2-6-6.1-6-3.8.1-5.9 1.6-6.5 6"/><path style="fill:#d2ddf1" d="m33.6 17.6 5.1 15.7h16.5L41.9 43l5 15.7L33.6 49l-13.3 9.7L25.4 43 12 33.3h16.5z"/><path class="st0" d="m33.5 27.6 2.9 8.8h9.1l-7.4 5.4 2.9 8.7-7.5-5.4-7.4 5.4 2.8-8.7-7.4-5.4h9.2z"/><path class="st1" d="M41.2 30.1h22.9C60 17.3 48.1 8.1 34 8l7.2 22.1z"/><path class="st0" d="M26.5 30.1 33.6 8h-.3c-14 .2-25.7 9.4-29.8 22.1h23z"/><path class="st1" d="M21.9 44.1 3.4 30.7c-.9 3-1.4 6.2-1.3 9.6.2 10.2 5.2 19.3 12.9 25l6.9-21.2zM33.8 52.8l-18 13.1c5.3 3.6 11.7 5.7 18.5 5.6 6.5-.1 12.5-2.2 17.5-5.6l-18-13.1z"/><path class="st0" d="M65.6 39.3c0-3-.5-5.9-1.3-8.6L45.8 44.1l6.9 21.2c7.9-5.8 13.1-15.4 12.9-26"/><path class="st3" d="M163.3 90.7c0 2.6-1.2 4.8-4.2 4.8-1.6 0-2.6-.6-3.2-1.6v1.3h-2.7V82.6h2.7v4.9c.6-1 1.6-1.6 3.2-1.6 3 0 4.2 2.3 4.2 4.8m-2.7 0c0-1.9-.6-2.7-2.3-2.7-1.7 0-2.4.9-2.4 2.7 0 1.9.7 2.7 2.4 2.7s2.3-.8 2.3-2.7"/><path class="st3" d="m172.4 86.2-3.2 9.3c-.7 2.2-1.5 3.3-4.1 3.3h-2.3v-2.1h3.5l.6-1.7h-1.5l-3.1-8.9h2.7l2 5.6.5 1.5.4-1.5 1.9-5.6h2.6zM203.3 86.2v9h-2.7v-1.7c-.6 1.2-1.6 2-3.2 2-2.4 0-3.4-1.4-3.4-3.8v-5.5h2.7v5.1c0 1.4.6 2 1.8 2 1.4 0 2.2-1 2.2-3v-4.1h2.6zM214 90.7c0 2.6-1.2 4.8-4.2 4.8-1.6 0-2.6-.6-3.2-1.6v1.3h-2.7V82.6h2.7v4.9c.6-1 1.6-1.6 3.2-1.6 2.9 0 4.2 2.3 4.2 4.8m-2.7 0c0-1.9-.6-2.7-2.3-2.7-1.7 0-2.4.9-2.4 2.7 0 1.9.7 2.7 2.4 2.7s2.3-.8 2.3-2.7M213.5 85.2l-.2-.7 4.6-1.6.5 1.7-4.9.6zm1 1h2.7v9h-2.7v-9zM227.8 86.2v12.7h-2.7v-5c-.6 1-1.7 1.6-3.2 1.6-3 0-4.2-2.2-4.2-4.8 0-2.6 1.2-4.8 4.2-4.8 1.6 0 2.6.6 3.2 1.6v-1.3h2.7zm-2.7 4.5c0-1.9-.7-2.7-2.4-2.7s-2.3.8-2.3 2.7c0 1.9.6 2.7 2.3 2.7 1.7 0 2.4-.8 2.4-2.7M237.7 86.2v9H235v-1.7c-.6 1.2-1.6 2-3.2 2-2.4 0-3.4-1.4-3.4-3.8v-5.5h2.7v5.1c0 1.4.6 2 1.8 2 1.4 0 2.2-1 2.2-3v-4.1h2.6zM248.1 86.2v9h-2.7v-1.4c-.6 1-1.6 1.6-3.2 1.6-3 0-4.1-2.2-4.1-4.8 0-2.6 1.1-4.8 4.1-4.8 1.6 0 2.6.6 3.2 1.6v-1.3h2.7zm-2.7 4.5c0-2-.7-2.7-2.3-2.7-1.6 0-2.2.8-2.2 2.7 0 1.9.6 2.7 2.2 2.7 1.5 0 2.3-.7 2.3-2.7"/><path transform="rotate(-65.337 182.264 92.816)" class="st3" d="M181.7 91.5h1v2.6h-1z"/><path transform="rotate(-16.665 187.805 93.336)" class="st3" d="M186.2 92.9h3.3v.9h-3.3z"/><path transform="rotate(-74.543 185.816 91.132)" class="st3" d="M184.1 90.6h3.4v1h-3.4z"/><path class="st3" d="M186.7 89.8c-1.4 0-2.6-1.2-2.6-2.6 0-1.4 1.2-2.6 2.6-2.6 1.4 0 2.6 1.2 2.6 2.6 0 1.4-1.2 2.6-2.6 2.6m0-4.2c-.9 0-1.6.7-1.6 1.6 0 .9.7 1.6 1.6 1.6.9 0 1.6-.7 1.6-1.6-.1-.9-.8-1.6-1.6-1.6M190.7 94c-1 0-1.8-.8-1.8-1.8s.8-1.8 1.8-1.8 1.8.8 1.8 1.8-.8 1.8-1.8 1.8m0-2.6c-.5 0-.8.4-.8.8 0 .5.4.8.8.8.5 0 .8-.4.8-.8.1-.4-.3-.8-.8-.8M184.8 96c-1.1 0-2-.9-2-2s.9-2 2-2 2 .9 2 2-.9 2-2 2m0-3c-.6 0-1 .4-1 1s.4 1 1 1 1-.4 1-1-.5-1-1-1M177.7 94.6c-2.4 0-4.3-1.9-4.3-4.3s1.9-4.3 4.3-4.3 4.3 1.9 4.3 4.3-1.9 4.3-4.3 4.3m0-7.4c-1.7 0-3.1 1.4-3.1 3.1 0 1.7 1.4 3.1 3.1 3.1 1.7 0 3.1-1.4 3.1-3.1 0-1.7-1.4-3.1-3.1-3.1"/></svg>