<svg version="1.1" id="Camada_1" xmlns="http://www.w3.org/2000/svg" x="0" y="0" viewBox="0 0 231.9 78.4" style="enable-background:new 0 0 231.9 78.4" xml:space="preserve"><style>.st0{fill:#525682}.st1{fill:#8e95ca}.st2{fill:#1c1d3c}</style><path class="st0" d="M87.2 24.7c0-8.3 4.4-16 16-16s16 7.8 16 16c0 8.4-4.3 15.9-16 15.9-11.6 0-16-7.5-16-15.9m16 10.2c6.7 0 8.8-3.6 8.8-10.2 0-6.8-2.1-10.3-8.8-10.3-6.7 0-8.8 3.6-8.8 10.3.1 6.6 2.2 10.2 8.8 10.2M139.2 33.6h-13.6l-2.2 6.2h-7l10.7-30.4h10.6l10.7 30.4h-7l-2.2-6.2zm-1.8-5.3-4.9-14-4.9 14h9.8zM176.4 31.6c0 5.2-3.3 8.3-9.8 8.3H150V9.5h16.9c6.5 0 9.1 3.4 9.1 7.5 0 4.5-2.8 6.5-6.3 7.2 3.9.6 6.7 2.5 6.7 7.4m-19.5-16.9V22h7.7c3.1 0 4.1-1.5 4.1-3.7 0-2.3-1-3.6-3.9-3.6h-7.9zm8.2 19.8c3.1 0 4.2-1.7 4.2-3.9 0-2.4-1.2-4-4.6-4H157v7.9h8.1z"/><path class="st1" d="M109.6 43.5v23.7h-3.4v-2.9c-1.2 2.2-3.2 3.5-6.3 3.5-5.4 0-7.9-4-7.9-9s2.5-9 7.9-9c3.1 0 5.1 1.3 6.3 3.5v-9.7h3.4zm-3.4 15.3c0-4.4-2-6.3-5.6-6.3-3.8 0-5.2 2.1-5.2 6.3 0 4.2 1.4 6.3 5.2 6.3 3.6 0 5.6-1.9 5.6-6.3M110.7 44.7h4.3v3h-4.3v-3zm.4 5.6h3.4v16.9h-3.4V50.3zM133.2 50.3v16.9c0 4.6-2.4 7.2-8.7 7.2-5.2 0-8.1-2.1-8.4-6.2h3.4c.2 2.3 1.7 3.6 5.1 3.6 3.7 0 5.3-1.2 5.3-4.7v-3.3c-1.1 2-3.1 3-6.1 3-5.5 0-8-3.5-8-8.5s2.5-8.5 8-8.5c3 0 5 1.1 6.1 3.2v-2.7h3.3zm-3.4 8c0-4.2-1.7-5.9-5.3-5.9-3.8 0-5.4 1.6-5.4 5.9 0 4.3 1.6 5.9 5.4 5.9 3.6 0 5.3-1.7 5.3-5.9M135 44.7h4.3v3H135v-3zm.4 5.6h3.4v16.9h-3.4V50.3zM148.6 67.2c-4.1 0-5.1-1.6-5.1-5v-9.3h-3.2v-1.8l3.5-1.2 1.4-3.5h1.7v3.8h5.4v2.6h-5.4v11.6h5.1v2.7h-3.4zM153.1 62.7c0-2.7 1.3-4.5 5.1-5.1l4.2-.7c1.6-.3 2.4-.8 2.4-2 0-1.5-.8-2.6-3.7-2.6-2.8 0-4.1 1.1-4.3 3.3h-3.4c0-3.6 2.7-5.9 7.5-5.9 4.7 0 7 2.1 7 5.2v8.4c0 1.3 0 2.3.2 3.9H165c-.1-1.3-.2-2.5-.2-3.8-.6 2.1-2.5 4.3-6.1 4.3-3.5 0-5.6-1.9-5.6-5m11.7-3.7v-1c-.9.7-2 .9-3 1.2l-2.3.5c-2.1.5-3 1.3-3 2.8 0 1.6 1.2 2.5 2.9 2.5 3.6.1 5.4-2.6 5.4-6M169.7 43.5h3.4v23.7h-3.4zM31.5 40.9c-.3 0-.5.1-.7.4L29.3 44c-.2.4-.1.8.3 1l21.8 12.6c.4.2.8.1 1-.3l1.6-2.7c.2-.4.1-.8-.3-1l-2.1-1.2-17.5-10.2-2.2-1.2c-.1-.1-.2-.1-.4-.1"/><path class="st0" d="m45.7 25-8.8 15.3 14.9 8.6 2.7-4.6 1.4-2.6 4.7-8.1z"/><path class="st0" d="m56.3 47.2-1.9 3.2.8.5c1.8 1 2.4 3.4 1.4 5.2L55 58.8c-.7 1.2-2 1.9-3.3 1.9-.6 0-1.3-.2-1.9-.5L28.1 47.6c-.9-.5-1.5-1.3-1.8-2.3-.3-1-.1-2 .4-2.9l1.6-2.7c1-1.8 3.4-2.4 5.2-1.4l.8.5 8.8-15.3-.9-.5c-.9-.5-1.5-1.3-1.8-2.3-.3-1-.1-2 .4-2.9l1.6-2.7c.5-.9 1.3-1.5 2.3-1.8 1-.3 2-.1 2.9.4l21.8 12.6c1.8 1 2.4 3.3 1.4 5.2l-1.6 2.7c-.7 1.2-2 1.9-3.3 1.9-.6 0-1.3-.2-1.9-.5l-.8-.5-2.4 4.2L77 47.1c1-3.1 1.5-6.3 1.5-9.7 0-17.7-14.3-32-32-32s-32 14.3-32 32 14.3 32 32 32c10.1 0 19.1-4.7 25-12L56.3 47.2z"/><path class="st1" d="m66.6 32.7 1.6-2.7c.2-.4.1-.8-.3-1L46.1 16.4c-.1-.1-.3-.1-.4-.1h-.2c-.1 0-.3.1-.5.3l-1.6 2.7c-.1.2-.1.5-.1.6.1.2.2.4.4.5l10.9 6.3 8.8 5 2.1 1.2c.5.2.9.1 1.1-.2M76 50l-16.6-8.1-1.5 2.7L73.4 55c.9-1.6 1.8-3.3 2.6-5"/><path class="st2" d="M190.7 48.1c0 2.2-1 4.1-3.6 4.1-1.3 0-2.2-.5-2.8-1.4V52H182V41.2h2.3v4.2c.5-.9 1.4-1.4 2.8-1.4 2.6 0 3.6 2 3.6 4.1m-2.3 0c0-1.6-.5-2.3-2-2.3s-2.1.7-2.1 2.3c0 1.6.6 2.3 2.1 2.3 1.5.1 2-.6 2-2.3"/><path class="st2" d="m198.5 44.3-2.7 8c-.6 1.9-1.3 2.9-3.5 2.9h-1.9v-1.8h3l.5-1.4h-1.3l-2.6-7.6h2.3l1.7 4.8.4 1.3.4-1.3 1.7-4.8h2zM190 59.3V67h-2.3v-1.5c-.5 1.1-1.3 1.7-2.7 1.7-2 0-2.9-1.2-2.9-3.3v-4.7h2.3v4.4c0 1.2.5 1.7 1.5 1.7 1.2 0 1.9-.9 1.9-2.6v-3.5h2.2zM199.1 63.2c0 2.2-1 4.1-3.6 4.1-1.3 0-2.2-.5-2.8-1.4V67h-2.3V56.2h2.3v4.2c.5-.9 1.4-1.4 2.8-1.4 2.6.1 3.6 2 3.6 4.2m-2.3 0c0-1.6-.5-2.3-2-2.3s-2.1.7-2.1 2.3c0 1.6.6 2.3 2.1 2.3s2-.7 2-2.3M198.7 58.5l-.2-.6 3.9-1.3.4 1.5-4.1.4zm.9.8h2.3V67h-2.3v-7.7zM210.9 59.3v10.8h-2.3v-4.3c-.5.9-1.4 1.4-2.8 1.4-2.5 0-3.6-1.9-3.6-4.1 0-2.2 1-4.1 3.6-4.1 1.3 0 2.2.5 2.8 1.4v-1.1h2.3zm-2.3 3.9c0-1.6-.6-2.3-2.1-2.3s-2 .7-2 2.3c0 1.6.5 2.3 2 2.3s2.1-.7 2.1-2.3M219.4 59.3V67h-2.3v-1.5c-.5 1.1-1.3 1.7-2.7 1.7-2 0-2.9-1.2-2.9-3.3v-4.7h2.3v4.4c0 1.2.5 1.7 1.5 1.7 1.2 0 1.9-.9 1.9-2.6v-3.5h2.2zM228.3 59.3V67H226v-1.2c-.5.9-1.4 1.4-2.7 1.4-2.6 0-3.5-1.9-3.5-4.1 0-2.2.9-4.1 3.5-4.1 1.3 0 2.2.5 2.7 1.4v-1.1h2.3zm-2.3 3.9c0-1.7-.6-2.3-2-2.3s-1.9.7-1.9 2.3c0 1.7.5 2.3 1.9 2.3s2-.6 2-2.3"/><path transform="rotate(-65.342 206.923 49.944)" class="st2" d="M206.5 48.8h.9V51h-.9z"/><path transform="rotate(-16.724 211.674 50.402)" class="st2" d="M210.2 50h2.8v.8h-2.8z"/><path transform="rotate(-74.525 209.956 48.498)" class="st2" d="M208.5 48h2.9v.9h-2.9z"/><path class="st2" d="M210.7 47.3c-1.2 0-2.2-1-2.2-2.2 0-1.2 1-2.2 2.2-2.2 1.2 0 2.2 1 2.2 2.2 0 1.2-1 2.2-2.2 2.2m0-3.6c-.7 0-1.3.6-1.3 1.3 0 .7.6 1.3 1.3 1.3.7 0 1.3-.6 1.3-1.3 0-.7-.6-1.3-1.3-1.3M214.2 51c-.8 0-1.5-.7-1.5-1.5s.7-1.5 1.5-1.5 1.5.7 1.5 1.5-.7 1.5-1.5 1.5m0-2.2c-.4 0-.7.3-.7.7 0 .4.3.7.7.7.4 0 .7-.3.7-.7 0-.4-.3-.7-.7-.7M209.1 52.7c-1 0-1.8-.8-1.8-1.8s.8-1.8 1.8-1.8 1.8.8 1.8 1.8c-.1 1-.9 1.8-1.8 1.8m0-2.6c-.5 0-.9.4-.9.9s.4.9.9.9.9-.4.9-.9c-.1-.6-.5-.9-.9-.9M203 51.5c-2 0-3.7-1.7-3.7-3.7s1.7-3.7 3.7-3.7 3.7 1.7 3.7 3.7-1.7 3.7-3.7 3.7m0-6.4c-1.5 0-2.7 1.2-2.7 2.7 0 1.5 1.2 2.7 2.7 2.7 1.5 0 2.7-1.2 2.7-2.7-.1-1.5-1.3-2.7-2.7-2.7"/><path d="M28.8 29.8H9c-3 0-5.4-2.4-5.4-5.4C3.6 21.4 6 19 9 19h19.7c3 0 5.4 2.4 5.4 5.4 0 3-2.4 5.4-5.3 5.4" style="fill:#d3ddf1"/><path class="st1" d="M10.2 21.6c1.6 0 2.8 1.3 2.8 2.8s-1.3 2.8-2.8 2.8c-1.6 0-2.8-1.3-2.8-2.8s1.2-2.8 2.8-2.8M19.2 21.6c1.6 0 2.8 1.3 2.8 2.8s-1.3 2.8-2.8 2.8c-1.6 0-2.8-1.3-2.8-2.8s1.2-2.8 2.8-2.8M28.1 21.6c1.6 0 2.8 1.3 2.8 2.8s-1.3 2.8-2.8 2.8c-1.6 0-2.8-1.3-2.8-2.8s1.3-2.8 2.8-2.8"/></svg>