<svg version="1.1" id="Camada_1" xmlns="http://www.w3.org/2000/svg" x="0" y="0" viewBox="0 0 256.7 95.1" style="enable-background:new 0 0 256.7 95.1" xml:space="preserve"><style>.st0{fill:#505584}.st1{fill:#8c95cb}.st2{fill:#1d1a39}.st3{fill:#cfddf1}.st5{fill:#fff}</style><path class="st0" d="M75 23.8c0-8 4.3-16 16-16 11.8 0 16 8.1 16 16 0 8.1-4.2 16-16 16-11.8-.1-16-7.9-16-16m16 9.4c6.2 0 7.8-3.4 7.8-9.4 0-6.1-1.6-9.4-7.8-9.4-6.1 0-7.8 3.4-7.8 9.4 0 5.9 1.6 9.4 7.8 9.4M115.6 29.1c.2 2.5 1.8 4.8 6 4.8 3.8 0 5.2-1.4 5.2-3.5 0-2-1.2-3-3.4-3.3l-6.5-.7c-5.4-.6-8.5-3.8-8.5-8.9 0-5.7 4.2-9.7 12.8-9.7 9.2 0 12.9 4.5 13.3 9.9h-7.8c-.3-2.4-2.1-4-5.5-4-3 0-4.8 1.2-4.8 3.3 0 1.6.9 2.7 3.2 3l5.7.6c6.5.6 9.5 3.8 9.5 9.3 0 6-3.7 10-13.4 10-9.8 0-13.2-5.2-13.5-10.7h7.7zM136.4 23.8c0-8.8 4.8-16 16.4-16 10.3 0 14.3 4.9 14.7 10.9h-7.9c-.4-2.7-2.6-4.6-6.8-4.6-5.3 0-8.2 2.9-8.2 9.8 0 6.5 2.4 9.7 7.7 9.7 5.4 0 7.2-2.7 7.7-6.1h-9.6v-5.1h17.1V39h-6.6v-5.6c-1.2 3.3-3.9 6.3-10.4 6.3-9.8 0-14.1-7.3-14.1-15.9M191.3 33.2h-12.8l-1.9 5.7h-7.9l10.2-30.5H191L201.2 39h-7.9l-2-5.8zm-2-6.1L184.9 14l-4.4 13.1h8.8z"/><path class="st1" d="M79.7 45.2v3.2H86v2.2h-6.3v5.3h-3v-13h10v2.3zM94.2 53h2.7c-.2 1.6-1.5 3.3-4.9 3.3-3.7 0-5.2-2.5-5.2-5.2 0-2.8 1.6-5.2 5.2-5.2s5 2.4 5 5.2v.8h-7.3c.2 1.9 1.1 2.5 2.4 2.5 1.2-.2 1.8-.7 2.1-1.4m-4.6-3h4.6c-.1-1.5-.8-2.2-2.2-2.2-1.4 0-2.2.5-2.4 2.2M100 52.7c.1.9.7 1.7 2.2 1.7 1.3 0 1.7-.5 1.7-1.1 0-.6-.3-1-1.3-1.2l-2.1-.3c-1.8-.2-2.8-1.2-2.8-2.9 0-2.2 1.8-3.2 4.3-3.2 2.6 0 4.3 1 4.5 3.2h-2.6c-.1-.8-.7-1.4-1.9-1.4s-1.7.5-1.7 1.1c0 .5.2.9 1.2 1l2 .2c2.3.3 3.1 1.3 3.1 3 0 1.9-1.2 3.3-4.5 3.3-3.4 0-4.7-1.6-4.7-3.5h2.6zM111.8 55.9c-2.7 0-3.5-1.2-3.5-3.5v-4.1h-1.7v-1.4l2-.8 1.2-2.3h1.4v2.3h2.8v2.2h-2.8v5.3h2.5v2.3h-1.9zM114.8 42.9h3.1v1.9h-3.1v-1.9zm.1 3.2h2.8v9.8h-2.8v-9.8zM129 46.1l-3.4 9.8h-4l-3.3-9.8h2.9l2.5 7.6 2.6-7.6zM128.8 53.3c0-1.5.7-2.6 3.1-3l2.3-.4c.9-.2 1.2-.4 1.2-1 0-.7-.4-1.1-1.7-1.1s-1.9.5-2 1.5H129c.1-2.1 1.7-3.5 4.7-3.5 2.9 0 4.3 1.3 4.3 3.3v4.2c0 .9.1 1.7.2 2.5h-2.5c-.1-.6-.2-1.3-.2-2.1-.4 1.4-1.6 2.4-3.5 2.4-1.9.1-3.2-1-3.2-2.8m6.6-2v-.4c-.5.4-1 .5-1.6.6l-.8.2c-1 .3-1.4.6-1.4 1.4 0 .8.6 1.2 1.3 1.2 1.6-.1 2.5-1.2 2.5-3M139.4 42.2h2.8v13.7h-2.8zM158.3 42.2v13.7h-2.8v-1.4c-.7 1.1-1.8 1.8-3.4 1.8-3.1 0-4.4-2.4-4.4-5.2 0-2.8 1.3-5.2 4.4-5.2 1.7 0 2.8.7 3.4 1.8v-5.4h2.8zm-2.8 8.8c0-2-.8-2.9-2.5-2.9-1.8 0-2.5.9-2.5 2.9s.6 2.9 2.5 2.9c1.7.1 2.5-.9 2.5-2.9M166.5 53h2.7c-.2 1.6-1.5 3.3-4.9 3.3-3.7 0-5.2-2.5-5.2-5.2 0-2.8 1.6-5.2 5.2-5.2s5 2.4 5 5.2v.8H162c.2 1.9 1.1 2.5 2.4 2.5 1.2-.2 1.8-.7 2.1-1.4m-4.6-3h4.6c-.1-1.5-.8-2.2-2.2-2.2-1.4 0-2.1.5-2.4 2.2M86.5 61.8l-3.4 9.8h-3.9l-3.4-9.8h2.9l2.5 7.5 2.6-7.5zM86 60.7l-.2-.8 4.9-1.7.6 1.8-5.3.7zm1 1.1h2.8v9.8H87v-9.8zM101.3 57.9v13.7h-2.8v-1.4c-.7 1.1-1.8 1.8-3.4 1.8-3.1 0-4.4-2.4-4.4-5.2 0-2.8 1.3-5.2 4.4-5.2 1.7 0 2.8.7 3.4 1.8V58h2.8zm-2.8 8.8c0-2-.8-2.9-2.5-2.9-1.8 0-2.5.9-2.5 2.9s.6 2.9 2.5 2.9c1.7 0 2.5-.9 2.5-2.9M109.5 68.6h2.7c-.2 1.6-1.5 3.3-4.9 3.3-3.7 0-5.2-2.5-5.2-5.2 0-2.8 1.6-5.2 5.2-5.2s5 2.4 5 5.2v.8H105c.2 1.9 1.1 2.5 2.4 2.5 1.2-.1 1.8-.6 2.1-1.4m-4.6-2.9h4.6c-.1-1.5-.8-2.2-2.2-2.2-1.3-.1-2.1.5-2.4 2.2M112.8 66.7c0-2.7 1.5-5.2 5.3-5.2s5.3 2.5 5.3 5.2-1.5 5.2-5.3 5.2-5.3-2.5-5.3-5.2m5.3 2.9c1.7 0 2.5-.8 2.5-2.9 0-2.2-.7-2.9-2.5-2.9-1.7 0-2.5.8-2.5 2.9 0 2.2.8 2.9 2.5 2.9M126.5 68.4c.1.9.7 1.7 2.2 1.7 1.3 0 1.7-.5 1.7-1.1 0-.6-.3-1-1.3-1.2l-2.1-.3c-1.8-.2-2.8-1.2-2.8-2.9 0-2.2 1.8-3.2 4.3-3.2 2.6 0 4.3 1 4.5 3.2h-2.6c-.1-.8-.7-1.4-1.9-1.4s-1.7.5-1.7 1.1c0 .5.2.9 1.2 1l2 .2c2.3.3 3.1 1.3 3.1 3 0 1.9-1.2 3.3-4.5 3.3-3.4 0-4.7-1.6-4.7-3.5h2.6zM148.1 61.8v9.8h-2.8v-1.9c-.6 1.3-1.6 2.2-3.4 2.2-2.5 0-3.6-1.5-3.6-4.1v-6h2.8v5.6c0 1.6.7 2.2 1.9 2.2 1.4 0 2.3-1.1 2.3-3.3v-4.4h2.8zM159.5 65.6v6h-2.8V66c0-1.6-.7-2.2-1.8-2.2-1.5 0-2.4 1-2.4 3.3v4.4h-2.8v-9.8h2.8v1.9c.6-1.3 1.7-2.2 3.4-2.2 2.5.1 3.6 1.6 3.6 4.2M160.7 58.6h3.1v1.9h-3.1v-1.9zm.2 3.2h2.8v9.8h-2.8v-9.8zM174.9 61.8l-3.3 9.8h-4l-3.3-9.8h2.9l2.5 7.5 2.5-7.5zM181.9 68.6h2.7c-.2 1.6-1.5 3.3-4.9 3.3-3.7 0-5.2-2.5-5.2-5.2 0-2.8 1.6-5.2 5.2-5.2s5 2.4 5 5.2v.8h-7.3c.2 1.9 1.1 2.5 2.4 2.5 1.2-.1 1.9-.6 2.1-1.4m-4.5-2.9h4.6c-.1-1.5-.8-2.2-2.2-2.2-1.4-.1-2.2.5-2.4 2.2M191.9 61.6v2.8h-.9c-1.9 0-2.5 1.1-2.5 3.3v3.9h-2.8v-9.8h2.8v2.1c.5-1.4 1.3-2.3 2.9-2.3h.5zM194.5 68.4c.1.9.7 1.7 2.2 1.7 1.3 0 1.7-.5 1.7-1.1 0-.6-.3-1-1.3-1.2l-2.1-.3c-1.8-.2-2.8-1.2-2.8-2.9 0-2.2 1.8-3.2 4.3-3.2 2.6 0 4.3 1 4.5 3.2h-2.6c-.1-.8-.7-1.4-1.9-1.4s-1.7.5-1.7 1.1c0 .5.2.9 1.2 1l2 .2c2.3.3 3.1 1.3 3.1 3 0 1.9-1.2 3.3-4.5 3.3-3.4 0-4.7-1.6-4.7-3.5h2.6zM202.1 58.6h3.1v1.9h-3.1v-1.9zm.1 3.2h2.8v9.8h-2.8v-9.8zM210.9 71.6c-2.7 0-3.5-1.2-3.5-3.5V64h-1.7v-1.4l2-.8 1.2-2.3h1.4v2.3h2.8V64h-2.8v5.3h2.5v2.3h-1.9zM213.5 69c0-1.5.7-2.6 3.1-3l2.3-.4c.9-.2 1.2-.4 1.2-1 0-.7-.4-1.1-1.7-1.1s-1.9.5-2 1.5h-2.8c.1-2.1 1.7-3.5 4.7-3.5 2.9 0 4.3 1.3 4.3 3.3V69c0 .9.1 1.7.2 2.5h-2.5c-.1-.6-.2-1.3-.2-2.1-.4 1.4-1.6 2.4-3.5 2.4-1.9.1-3.1-1-3.1-2.8m2.3-8.3-.2-.8 4.8-1.7.6 1.8-5.2.7zm4.3 6.2v-.4c-.5.4-1 .5-1.6.6l-.8.2c-1 .3-1.4.6-1.4 1.4 0 .8.6 1.2 1.3 1.2 1.5 0 2.5-1.1 2.5-3M230.3 61.6v2.8h-.9c-1.9 0-2.5 1.1-2.5 3.3v3.9H224v-9.8h2.8v2.1c.5-1.4 1.3-2.3 2.9-2.3h.6zM230.9 58.6h3.1v1.9h-3.1v-1.9zm.1 3.2h2.8v9.8H231v-9.8zM234.9 66.7c0-2.7 1.5-5.2 5.3-5.2s5.3 2.5 5.3 5.2-1.5 5.2-5.3 5.2-5.3-2.5-5.3-5.2m5.3 2.9c1.7 0 2.5-.8 2.5-2.9 0-2.2-.7-2.9-2.5-2.9-1.7 0-2.5.8-2.5 2.9 0 2.2.8 2.9 2.5 2.9M248.6 68.4c.1.9.7 1.7 2.2 1.7 1.3 0 1.7-.5 1.7-1.1 0-.6-.3-1-1.3-1.2l-2.1-.3c-1.8-.2-2.8-1.2-2.8-2.9 0-2.2 1.8-3.2 4.3-3.2 2.6 0 4.3 1 4.5 3.2h-2.6c-.1-.8-.7-1.4-1.9-1.4s-1.7.5-1.7 1.1c0 .5.2.9 1.2 1l2 .2c2.3.3 3.1 1.3 3.1 3 0 1.9-1.2 3.3-4.5 3.3-3.4 0-4.7-1.6-4.7-3.5h2.6z"/><path class="st2" d="M170.7 84.8c0 2.6-1.2 4.7-4.1 4.7-1.5 0-2.5-.6-3.2-1.6v1.3h-2.6V76.8h2.6v4.8c.6-1 1.6-1.6 3.2-1.6 2.9.1 4.1 2.3 4.1 4.8m-2.6 0c0-1.8-.6-2.7-2.3-2.7-1.7 0-2.4.8-2.4 2.7 0 1.8.7 2.7 2.4 2.7s2.3-.9 2.3-2.7"/><path class="st2" d="m179.6 80.4-3.1 9.1c-.7 2.2-1.5 3.3-4 3.3h-2.2v-2.1h3.4l.6-1.6h-1.5l-3-8.7h2.7l2 5.5.5 1.5.4-1.5 1.9-5.5h2.3zM209.8 80.4v8.9h-2.6v-1.7c-.5 1.2-1.5 2-3.1 2-2.3 0-3.4-1.4-3.4-3.7v-5.4h2.6v5c0 1.4.6 2 1.7 2 1.3 0 2.1-1 2.1-3v-4h2.7zM220.3 84.8c0 2.6-1.2 4.7-4.1 4.7-1.5 0-2.5-.6-3.2-1.6v1.3h-2.6V76.8h2.6v4.8c.6-1 1.6-1.6 3.2-1.6 2.9.1 4.1 2.3 4.1 4.8m-2.6 0c0-1.8-.6-2.7-2.3-2.7-1.7 0-2.4.8-2.4 2.7 0 1.8.7 2.7 2.4 2.7s2.3-.9 2.3-2.7M219.9 79.4l-.2-.7 4.5-1.5.5 1.7-4.8.5zm.9 1h2.6v8.9h-2.6v-8.9zM233.8 80.4v12.4h-2.6v-4.9c-.6 1-1.6 1.6-3.2 1.6-2.9 0-4.1-2.2-4.1-4.7 0-2.6 1.2-4.7 4.1-4.7 1.5 0 2.6.6 3.2 1.6v-1.3h2.6zm-2.6 4.4c0-1.8-.7-2.7-2.4-2.7s-2.3.8-2.3 2.7c0 1.8.6 2.7 2.3 2.7 1.7 0 2.4-.9 2.4-2.7M243.5 80.4v8.9h-2.6v-1.7c-.5 1.2-1.5 2-3.1 2-2.3 0-3.3-1.4-3.3-3.7v-5.4h2.6v5c0 1.4.6 2 1.7 2 1.3 0 2.1-1 2.1-3v-4h2.6zM253.7 80.4v8.9h-2.6V88c-.6 1-1.6 1.6-3.1 1.6-2.9 0-4-2.2-4-4.7 0-2.6 1.1-4.7 4-4.7 1.5 0 2.5.6 3.1 1.6v-1.3h2.6zm-2.6 4.4c0-1.9-.7-2.7-2.3-2.7-1.6 0-2.2.7-2.2 2.7 0 1.9.6 2.7 2.2 2.7s2.3-.8 2.3-2.7"/><path transform="rotate(-65.337 189.265 86.853)" class="st2" d="M188.8 85.6h1v2.5h-1z"/><path transform="rotate(-16.625 194.703 87.37)" class="st2" d="M193.1 86.9h3.2v.9h-3.2z"/><path transform="rotate(-74.556 192.734 85.2)" class="st2" d="M191.1 84.7h3.3v1h-3.3z"/><path class="st2" d="M193.6 83.9c-1.4 0-2.6-1.1-2.6-2.6 0-1.4 1.1-2.6 2.6-2.6 1.4 0 2.6 1.1 2.6 2.6-.1 1.4-1.2 2.6-2.6 2.6m0-4.1c-.8 0-1.5.7-1.5 1.5s.7 1.5 1.5 1.5 1.5-.7 1.5-1.5-.7-1.5-1.5-1.5M197.6 88c-1 0-1.7-.8-1.7-1.7 0-.9.8-1.7 1.7-1.7.9 0 1.7.8 1.7 1.7 0 1-.8 1.7-1.7 1.7m0-2.5c-.5 0-.8.4-.8.8 0 .5.4.8.8.8.5 0 .8-.4.8-.8s-.4-.8-.8-.8M191.7 90c-1.1 0-2-.9-2-2s.9-2 2-2 2 .9 2 2-.9 2-2 2m0-3c-.5 0-1 .4-1 1 0 .5.4 1 1 1 .5 0 1-.4 1-1s-.4-1-1-1M184.8 88.6c-2.3 0-4.2-1.9-4.2-4.2 0-2.3 1.9-4.2 4.2-4.2 2.3 0 4.2 1.9 4.2 4.2 0 2.3-1.9 4.2-4.2 4.2m0-7.3c-1.7 0-3 1.4-3 3 0 1.7 1.4 3 3 3 1.7 0 3-1.4 3-3s-1.4-3-3-3"/><path class="st0" d="m23.4 19.3-11 5.5c-.6.3-.9.9-.9 1.5 0 .3.1.6.2.9l2.3 4.3 7-3.5 2.4-8.7z"/><path class="st1" d="m21.3 32.1-6.7 1.2.9 5.8 11.5-2z"/><path class="st0" d="M49.9 46.3V46l-1.6-10.9-32.5 5.6 1.6 10.9c.1.8.8 1.4 1.6 1.4h.3l29.2-5c.8-.2 1.4-.9 1.4-1.7m-29.8 4.3-.3-1.6 6.5-1.1.3 1.6-6.5 1.1zm8.4-1.4-.3-1.6 2.2-.4.3 1.6-2.2.4zM31.1 23l2.3-8.7-8 4-2.3 8.7zM42.3 17.3c.6-.3.9-.9.9-1.5 0-.3-.1-.6-.3-.9v-.1s-1.2-2.2-1.7-2.9c-.3-.4-.8-.7-1.4-.7-.2 0-.5.1-.7.2l-3.7 1.9-2.3 8.7 9.2-4.7z"/><path class="st0" d="M33.2 2.5C15.8 2.5 1.7 16.6 1.7 34s14.1 31.5 31.5 31.5S64.7 51.4 64.7 34 50.6 2.5 33.2 2.5M19.6 54.6c-.2 0-.4.1-.6.1-1.6 0-3-1.2-3.3-2.8l-2.9-19-2.5-4.9c-.3-.5-.5-1.1-.5-1.7 0-1.3.7-2.4 1.8-3L38.4 9.9c1.6-.8 3.5-.2 4.3 1.2.4.7 1.5 2.7 1.7 2.9.4.5.5 1.2.5 1.8 0 1.3-.7 2.4-1.9 3l-24 12 26.1-4.5c.2 0 .4-.1.6-.1 1.6 0 3 1.2 3.3 2.8l2.5 16.7v.5c0 1.6-1.2 3-2.8 3.3l-29.1 5.1zm29.9-1.7-6.1 1-.3-1.6 6-1c1.2-.2 2.3-.9 3.1-1.9l1.3 1c-.9 1.2-2.3 2.2-4 2.5m5.2-4.8-1.6-.5c.1-.4.2-.9.2-1.4 0-.2 0-.5-.1-.7l-.1-.8 1.7-.3.1.8c0 .4.1.6.1.9-.1.8-.1 1.4-.3 2"/><path class="st1" d="m48 33.5-.6-4.2c-.1-.8-.8-1.4-1.6-1.4h-.3l-10.7 1.8 5.7 5 7.5-1.2z"/><path class="st3" d="m38.3 35.2-5.7-5-9.2 1.6 5.7 5z"/><path d="m55.6 11.6-3 3c-10.7-10.7-28.2-10.7-38.9 0S3 42.7 13.7 53.5l-3 3C-1.7 44.1-1.7 24 10.7 11.6 23.1-.8 43.2-.8 55.6 11.6" style="fill:#8890c3"/><path class="st3" d="M55.6 56.4c-12.4 12.4-32.5 12.4-44.9 0l3-3c10.7 10.7 28.2 10.7 38.9 0s10.7-28.2 0-38.9l3-3C68 23.9 68 44.1 55.6 56.4"/><path transform="rotate(-45.001 52.009 15.006)" class="st5" d="M49.5 14.2h5v1.7h-5z"/><path transform="rotate(-45.001 52.012 25.86)" class="st5" d="M51.2 23.4h1.7v5h-1.7z"/><path class="st5" d="M51.6 19.6h5v1.7h-5z"/></svg>