<svg version="1.1" id="Camada_1" xmlns="http://www.w3.org/2000/svg" x="0" y="0" viewBox="0 0 241.7 79.9" style="enable-background:new 0 0 241.7 79.9" xml:space="preserve"><style>.st0{fill:#505584}.st1{fill:#8c95cb}.st2{fill:#1d1a39}.st3{fill:#525682}.st4{fill:#8e95ca}.st6{fill:#1c1d3c}</style><path class="st0" d="M1568.4 140.6c0-8.1 4.3-15.9 15.7-15.9 10.6 0 14.7 4.3 15.4 13h-8c-.4-4.1-2-6.5-7.2-6.5-5.4 0-7.7 3.1-7.7 9.4 0 6.1 2.1 9.3 7.5 9.3 5.3 0 7.2-2.3 7.5-6.7h8.1c-.7 9.3-4.8 13.2-15.6 13.2-11.4 0-15.7-7.5-15.7-15.8M1627.1 150.2c0 2.5.3 3.7.6 5.5h-7.9c-.4-1.2-.5-3-.5-5.5V149c0-2.9-1.8-4.3-4.4-4.3h-5.4v11h-7.9v-30.2h16.3c6.7 0 9.9 3.5 9.9 8.4 0 4.3-2.7 7.2-6.4 8 3.1.7 5.6 2.3 5.6 6.7v1.6zm-7.4-15.1c0-2.4-1.2-3.5-3.8-3.5h-6.4v7.4h6.4c2.7 0 3.8-1.3 3.8-3.9M1643.3 131.8v17.5h5.2v6.4h-18.2v-6.4h5.2v-17.5h-5.2v-6.4h18.2v6.4zM1671.1 150h-12.7l-1.9 5.7h-7.8l10.1-30.2h12l10.1 30.2h-7.9l-1.9-5.7zm-2-6.1-4.4-12.9-4.4 12.9h8.8z"/><path class="st1" d="M1574.5 161.9v8.2h2.3v2.4h-7.6v-2.4h2.4v-8.2h-2.4v-2.4h7.6v2.4zM1587.9 166.5v6h-2.8V167c0-1.6-.6-2.2-1.8-2.2-1.5 0-2.3 1-2.3 3.3v4.4h-2.8v-9.7h2.8v1.9c.6-1.3 1.7-2.2 3.4-2.2 2.4-.1 3.5 1.5 3.5 4M1593.9 162.4c3.3 0 4.9 1.9 5 4.3h-2.7c-.1-1.2-.7-2-2.2-2-1.5 0-2.4.7-2.4 2.9s.9 2.9 2.4 2.9 2.1-.9 2.3-2.1h2.7c-.1 2.3-1.6 4.3-5 4.3-3.7 0-5.3-2.4-5.3-5.2 0-2.6 1.5-5.1 5.2-5.1M1609.4 162.7v9.7h-2.8v-1.9c-.6 1.3-1.6 2.2-3.4 2.2-2.5 0-3.6-1.5-3.6-4.1v-5.9h2.8v5.5c0 1.6.6 2.2 1.9 2.2 1.4 0 2.3-1.1 2.3-3.3v-4.4h2.8zM1621.5 167.6c0 2.8-1.3 5.2-4.4 5.2-1.7 0-2.7-.6-3.4-1.7v1.4h-2.8v-13.6h2.8v5.3c.7-1.1 1.7-1.7 3.4-1.7 3.2-.1 4.4 2.3 4.4 5.1m-2.8 0c0-2-.6-2.9-2.4-2.9-1.8 0-2.5.9-2.5 2.9s.7 2.9 2.5 2.9 2.4-.9 2.4-2.9M1622.3 169.9c0-1.5.7-2.6 3.1-3l2.2-.4c.9-.2 1.2-.4 1.2-1 0-.7-.4-1.1-1.7-1.1-1.3 0-1.9.5-1.9 1.5h-2.8c.1-2.1 1.7-3.5 4.6-3.5 2.9 0 4.3 1.2 4.3 3.3v4.2c0 .9.1 1.7.2 2.5h-2.4c-.1-.6-.2-1.3-.2-2.1-.4 1.3-1.6 2.3-3.5 2.3-1.9.1-3.1-1-3.1-2.7m6.5-2.1v-.4c-.5.4-1 .5-1.6.6l-.8.2c-1 .3-1.4.6-1.4 1.4 0 .8.6 1.2 1.3 1.2 1.6-.1 2.5-1.2 2.5-3M1642.9 158.9v13.6h-2.8V171c-.7 1.1-1.7 1.7-3.4 1.7-3.1 0-4.4-2.4-4.4-5.2 0-2.7 1.3-5.1 4.4-5.1 1.7 0 2.7.7 3.4 1.8v-5.3h2.8zm-2.8 8.7c0-2-.8-2.9-2.5-2.9-1.8 0-2.4.9-2.4 2.9s.6 2.9 2.4 2.9c1.7 0 2.5-.9 2.5-2.9M1643.7 167.6c0-2.7 1.5-5.1 5.3-5.1s5.3 2.5 5.3 5.1c0 2.7-1.5 5.2-5.3 5.2s-5.3-2.5-5.3-5.2m5.3 2.9c1.7 0 2.4-.8 2.4-2.9 0-2.2-.7-2.9-2.4-2.9s-2.4.8-2.4 2.9c-.1 2.2.7 2.9 2.4 2.9M1661.5 162.6v2.8h-.9c-1.9 0-2.5 1-2.5 3.2v3.8h-2.8v-9.7h2.7v2.1c.5-1.4 1.3-2.2 2.9-2.2h.6zM1661.8 169.9c0-1.5.7-2.6 3.1-3l2.2-.4c.9-.2 1.2-.4 1.2-1 0-.7-.4-1.1-1.7-1.1-1.3 0-1.9.5-1.9 1.5h-2.8c.1-2.1 1.7-3.5 4.6-3.5 2.9 0 4.3 1.2 4.3 3.3v4.2c0 .9.1 1.7.2 2.5h-2.4c-.1-.6-.2-1.3-.2-2.1-.4 1.3-1.6 2.3-3.5 2.3-1.9.1-3.1-1-3.1-2.7m6.5-2.1v-.4c-.5.4-1 .5-1.6.6l-.8.2c-1 .3-1.4.6-1.4 1.4 0 .8.6 1.2 1.3 1.2 1.6-.1 2.5-1.2 2.5-3M1682.6 159.5c4.1 0 6 3 6 6.4 0 3.4-1.9 6.5-6 6.5h-6.1v-12.9h6.1zm-.6 10.6c2.6 0 3.6-1.4 3.6-4.1 0-2.8-1-4.1-3.6-4.1h-2.5v8.2h2.5zM1689.5 159.5h3.1v1.9h-3.1v-1.9zm.1 3.2h2.8v9.7h-2.8v-9.7zM1704 162.7v9.3c0 3-1.4 4.5-5.3 4.5-3.2 0-4.9-1.5-5-3.7h2.8c.1 1 .8 1.7 2.4 1.7 1.7 0 2.4-.6 2.4-2.1v-1.8c-.7 1-1.7 1.5-3.3 1.5-3.1 0-4.4-2.2-4.4-4.8 0-2.7 1.3-4.9 4.4-4.9 1.6 0 2.6.6 3.3 1.6v-1.3h2.7zm-2.8 4.7c0-1.9-.7-2.7-2.4-2.7-1.8 0-2.5.7-2.5 2.7 0 1.9.7 2.7 2.5 2.7 1.7-.1 2.4-.9 2.4-2.7M1705.4 159.5h3.1v1.9h-3.1v-1.9zm.1 3.2h2.8v9.7h-2.8v-9.7zM1714.1 172.5c-2.7 0-3.5-1.2-3.5-3.5v-4h-1.7v-1.4l2-.8 1.2-2.3h1.4v2.3h2.7v2.2h-2.7v5.2h2.5v2.3h-1.9zM1716.7 169.9c0-1.5.7-2.6 3.1-3l2.2-.4c.9-.2 1.2-.4 1.2-1 0-.7-.4-1.1-1.7-1.1-1.3 0-1.9.5-1.9 1.5h-2.8c.1-2.1 1.7-3.5 4.6-3.5 2.9 0 4.3 1.2 4.3 3.3v4.2c0 .9.1 1.7.2 2.5h-2.4c-.1-.6-.2-1.3-.2-2.1-.4 1.3-1.6 2.3-3.5 2.3-1.9.1-3.1-1-3.1-2.7m6.5-2.1v-.4c-.5.4-1 .5-1.6.6l-.8.2c-1 .3-1.4.6-1.4 1.4 0 .8.6 1.2 1.3 1.2 1.5-.1 2.5-1.2 2.5-3M1727.1 158.9h2.8v13.6h-2.8z"/><path class="st2" d="M1646.8 186.5c0 2.5-1.2 4.7-4.1 4.7-1.5 0-2.5-.6-3.1-1.5v1.3h-2.6v-12.3h2.6v4.8c.6-1 1.6-1.6 3.1-1.6 2.9-.1 4.1 2.1 4.1 4.6m-2.6 0c0-1.8-.6-2.6-2.2-2.6-1.7 0-2.3.8-2.3 2.6s.7 2.6 2.3 2.6c1.6.1 2.2-.8 2.2-2.6"/><path class="st2" d="m1655.6 182.1-3.1 9c-.7 2.2-1.5 3.2-4 3.2h-2.2v-2.1h3.4l.6-1.6h-1.5l-3-8.6h2.7l1.9 5.5.5 1.4.4-1.4 1.9-5.5h2.4zM1685.6 182.1v8.8h-2.6v-1.7c-.5 1.2-1.5 2-3.1 2-2.3 0-3.3-1.4-3.3-3.7v-5.4h2.6v5c0 1.4.6 1.9 1.7 1.9 1.3 0 2.1-1 2.1-3v-4h2.6zM1695.9 186.5c0 2.5-1.2 4.7-4.1 4.7-1.5 0-2.5-.6-3.1-1.5v1.3h-2.6v-12.3h2.6v4.8c.6-1 1.6-1.6 3.1-1.6 3-.1 4.1 2.1 4.1 4.6m-2.6 0c0-1.8-.6-2.6-2.2-2.6-1.7 0-2.3.8-2.3 2.6s.7 2.6 2.3 2.6c1.7.1 2.2-.8 2.2-2.6M1695.5 181.1l-.2-.7 4.5-1.5.5 1.7-4.8.5zm1 1h2.6v8.8h-2.6v-8.8zM1709.3 182.1v12.3h-2.6v-4.8c-.6 1-1.6 1.6-3.1 1.6-2.9 0-4-2.2-4-4.7s1.2-4.7 4-4.7c1.5 0 2.5.6 3.1 1.6v-1.3h2.6zm-2.6 4.4c0-1.8-.7-2.6-2.3-2.6-1.7 0-2.2.8-2.2 2.6s.6 2.6 2.2 2.6c1.6.1 2.3-.8 2.3-2.6M1719 182.1v8.8h-2.6v-1.7c-.5 1.2-1.5 2-3.1 2-2.3 0-3.3-1.4-3.3-3.7v-5.4h2.6v5c0 1.4.6 1.9 1.7 1.9 1.3 0 2.1-1 2.1-3v-4h2.6zM1729.1 182.1v8.8h-2.6v-1.3c-.6 1-1.5 1.6-3.1 1.6-2.9 0-4-2.2-4-4.7s1.1-4.7 4-4.7c1.5 0 2.5.6 3.1 1.6v-1.3h2.6zm-2.6 4.4c0-1.9-.7-2.6-2.3-2.6-1.6 0-2.2.7-2.2 2.6 0 1.9.6 2.6 2.2 2.6 1.5.1 2.3-.7 2.3-2.6"/><path transform="rotate(-65.329 1665.27 188.548)" class="st2" d="M1664.7 187.3h1v2.5h-1z"/><path transform="rotate(-16.654 1670.48 189.046)" class="st2" d="M1669 188.6h3.2v.9h-3.2z"/><path transform="rotate(-74.527 1668.563 186.891)" class="st2" d="M1667 186.4h3.3v1h-3.3z"/><path class="st2" d="M1669.5 185.6c-1.4 0-2.5-1.1-2.5-2.5s1.1-2.5 2.5-2.5 2.5 1.1 2.5 2.5c0 1.3-1.1 2.5-2.5 2.5m0-4.1c-.8 0-1.5.7-1.5 1.5s.7 1.5 1.5 1.5 1.5-.7 1.5-1.5-.7-1.5-1.5-1.5M1673.4 189.7c-.9 0-1.7-.8-1.7-1.7 0-.9.8-1.7 1.7-1.7.9 0 1.7.8 1.7 1.7 0 1-.7 1.7-1.7 1.7m0-2.5c-.5 0-.8.4-.8.8 0 .5.4.8.8.8.5 0 .8-.4.8-.8s-.3-.8-.8-.8M1667.6 191.6c-1.1 0-2-.9-2-2s.9-2 2-2 2 .9 2 2-.9 2-2 2m0-2.9c-.5 0-1 .4-1 1s.4 1 1 1c.5 0 1-.4 1-1s-.4-1-1-1M1660.7 190.3c-2.3 0-4.2-1.9-4.2-4.2s1.9-4.2 4.2-4.2c2.3 0 4.2 1.9 4.2 4.2s-1.9 4.2-4.2 4.2m0-7.2c-1.7 0-3 1.4-3 3 0 1.7 1.3 3 3 3s3-1.3 3-3-1.3-3-3-3"/><path class="st0" d="M1527.7 118.9c-17.2 0-31.2 14-31.2 31.2 0 15.3 11 28 25.6 30.7v-.5l4.7-11h-3.9c-.3 0-.6-.2-.8-.4-.2-.3-.2-.6 0-.9l4.1-7.3c-.2-.1-.3-.3-.5-.5-.4-.4-.7-.9-.9-1.5h-11.6c-3.1 0-5.9-1-8-2.9-2.2-1.9-3.4-4.6-3.4-7.7 0-4.2 3-7.8 7.1-8.6.6-5.1 4.8-8.9 10-8.9.5 0 1 .1 1.5.1h.4c1.7-1.3 3.8-1.9 5.9-1.9 1.9 0 3.7.5 5.3 1.5 1.1-.4 2.3-.6 3.5-.6 4.1 0 7.8 2.5 9.3 6.2 4.9.7 8.7 5 8.7 10 0 1.8-.5 3.5-1.4 5.1.9 1.2 1.4 2.6 1.4 4.1 0 2-.9 4-2.4 5.3-1.3 1.1-2.9 1.7-4.6 1.7h-9.7l-1.5 1.8h2.5c.3 0 .7.2.8.5.1.3.1.7-.2.9l-14.7 15.6c1.3.2 2.7.3 4 .3 17.2 0 31.2-14 31.2-31.2s-14-31.1-31.2-31.1"/><path class="st1" d="M1532.6 165.2c-.1-.3-.1-.7.1-.9l5.3-6.1c.3-.4.9-.4 1.2-.1.4.3.4.9.1 1.2l-1 1.2h8.2c1.3 0 2.5-.5 3.4-1.3 1.2-1 1.8-2.5 1.8-4 0-.9-.3-1.8-.7-2.6-.1.2-.3.3-.4.5-.2.2-.4.3-.6.3-.2 0-.4-.1-.6-.2-.3-.3-.4-.9 0-1.2.4-.4.7-.8 1-1.2.9-1.4 1.4-3 1.4-4.6 0-3.8-2.7-7.2-6.3-8.1.1.4.1.9.2 1.3 0 .5-.3.9-.8.9h-.1c-.5 0-.8-.4-.9-.8 0-.8-.2-1.5-.4-2.2-1.2-3.3-4.3-5.6-7.9-5.6-1.1 0-2.2.2-3.2.7h-.7c-.1 0-.1 0-.2-.1h-.1c-1.4-.9-3-1.4-4.7-1.4-1.4 0-2.7.3-3.9 1 .8.4 1.5.9 2.2 1.6 1.6 1.6 2.5 3.7 2.6 6 0 .5-.4.9-.8.9-.5 0-.9-.4-.9-.8-.1-1.8-.8-3.6-2.1-4.9-.9-.9-1.9-1.5-3.1-1.8-.6-.1-1.2-.2-1.8-.2-4.1 0-7.6 3-8.2 7H1511c2 .1 3.9.9 5.4 2.2 1.2-1.4 2.9-2.2 4.7-2.2.5 0 .9.4.9.9s-.4.9-.9.9c-1.4 0-2.7.7-3.5 1.8 1.1 1.5 1.8 3.3 1.8 5.2 0 .5-.4.9-.9.9s-.9-.4-.9-.9c0-1.7-.6-3.3-1.7-4.6-1.3-1.4-3-2.3-4.9-2.4h-1.1c-3.6.4-6.2 3.4-6.2 7 0 5.1 4.1 8.8 9.6 8.8h11c0-.3-.1-.6-.1-.9 0-1.4.5-2.8 1.4-3.9.1-.2.2-.3.3-.4.7-.8 1.6-1.3 2.6-1.6.3-1.1.8-2.1 1.5-3.1.1-.2.3-.4.5-.6.8-1 1.8-1.8 3-2.4 0 0 .1 0 .1-.1v-.1c.3-1.3.8-2.5 1.5-3.5.4-.6.8-1.1 1.3-1.6.3-.3.9-.3 1.2 0 .3.3.3.9 0 1.2-.4.4-.8.9-1.1 1.3-.4.6-.7 1.2-.9 1.9.8-.2 1.7-.4 2.6-.4 1.9 0 3.7.5 5.3 1.5.4.3.5.8.3 1.2-.2.3-.5.4-.7.4-.2 0-.3 0-.5-.1-1.3-.8-2.8-1.3-4.4-1.3-1.2 0-2.4.3-3.5.8h-.1c-.1.1-.3.1-.4.2-.9.5-1.8 1.2-2.4 2-.2.2-.3.4-.4.5-.4.6-.7 1.1-1 1.8 2.3.1 4.3 1.3 5.3 3.4.2.4 0 1-.4 1.2-.1.1-.3.1-.4.1-.3 0-.6-.2-.8-.5-.8-1.5-2.2-2.4-3.9-2.4-.3 0-.6 0-.9.1h-.2c-.8.2-1.6.7-2.1 1.3l-.1.1c-.7.8-1.1 1.8-1.1 2.9 0 1.1.4 2.1 1.1 2.9.8.9 2 1.5 3.3 1.5.5 0 .9.4.9.9s-.4.9-.9.9c-.9 0-1.9-.2-2.7-.6l-3.3 5.9h3.8c.3 0 .6.1.7.4.2.2.2.6.1.8l-3.3 7.7 10.1-10.7h-2.3c-.2-.3-.6-.5-.7-.8"/><g><path class="st3" d="M106.5 14.3c8.6 0 12 5.5 12 12.1 0 7-3.4 12.5-12 12.5H95.2V52h-8.7V14.3h20zm-2.7 17.9c4.3 0 5.7-2.4 5.7-5.7 0-3.2-1.4-5.5-5.7-5.5h-8.7v11.2h8.7zM148.4 34.6V52H140V35.9c0-4.5-1.9-6.4-5.4-6.4-4.5 0-7 2.8-7 9.6V52h-8.4V12.3h8.4v16.9c1.8-3.9 5-6.5 10.2-6.5 7.5 0 10.6 4.5 10.6 11.9M168.6 14.3c12.3 0 17.8 8.9 17.8 18.8 0 10-5.6 19-17.8 19h-18.2V14.3h18.2zm-1.9 30.9c7.8 0 10.8-4.1 10.8-12.1 0-8.1-3.1-12-10.8-12h-7.6v24.1h7.6z"/><path class="st4" d="M89.3 59.4c3.1 0 4.6 1.7 4.7 4h-1.8c-.2-1.3-.9-2.4-2.8-2.4s-3.1 1-3.1 3.6c0 2.7 1.2 3.6 3.1 3.6 1.9 0 2.8-1.1 2.9-2.5h1.8c-.1 2.2-1.7 4.1-4.8 4.1-3.3 0-5-2.3-5-5.2s1.7-5.2 5-5.2M94.9 64.6c0-2.9 1.7-5.2 5-5.2 3.4 0 5 2.3 5 5.2 0 2.9-1.7 5.2-5 5.2s-5-2.3-5-5.2m5.1 3.7c2.1 0 3.1-1 3.1-3.6s-1-3.6-3.1-3.6-3.1 1-3.1 3.6c0 2.5.9 3.6 3.1 3.6M121.1 63.4v6.1h-2v-5.9c0-1.9-.8-2.5-2.1-2.5-1.8 0-2.8 1.2-2.8 4.3v4.1h-1.9v-5.9c0-1.9-.8-2.5-2.1-2.5-1.7 0-2.8 1.2-2.8 4.3v4.1h-2v-9.8h2v2.1c.6-1.4 1.6-2.4 3.4-2.4 1.9 0 2.8.9 3.2 2.5.6-1.5 1.6-2.5 3.6-2.5 2.5 0 3.5 1.4 3.5 4M132.3 64.6c0 2.9-1.4 5.2-4.6 5.2-1.8 0-2.9-.7-3.6-2v5.6h-2V59.7h2v1.7c.7-1.3 1.8-2 3.6-2 3.2 0 4.6 2.4 4.6 5.2m-1.9 0c0-2.4-.8-3.6-3-3.6-2.1 0-3.2 1.1-3.2 3.6s1.2 3.6 3.2 3.6c2.2.1 3-1.1 3-3.6M132.7 66.9c0-1.6.8-2.6 3-3l2.4-.4c.9-.2 1.4-.5 1.4-1.1 0-.9-.4-1.5-2.1-1.5-1.6 0-2.4.6-2.5 1.9h-2c0-2.1 1.5-3.4 4.3-3.4 2.7 0 4 1.2 4 3v4.8c0 .7 0 1.3.1 2.2h-1.8c-.1-.8-.1-1.4-.1-2.2-.4 1.2-1.5 2.5-3.5 2.5-2 .1-3.2-1-3.2-2.8m6.7-2.1v-.6c-.5.4-1.1.5-1.7.7l-1.3.3c-1.2.3-1.7.7-1.7 1.6 0 .9.7 1.4 1.7 1.4 2 .1 3-1.5 3-3.4M148 59.6v1.9h-.5c-2.6 0-3.2 1.6-3.2 4.3v3.7h-2v-9.8h1.9v2.4c.6-1.5 1.6-2.5 3.5-2.5h.3zM153.7 69.5c-2.4 0-3-.9-3-2.9v-5.4h-1.9v-1l2-.7.8-2h1v2.2h3.1v1.5h-3.1v6.7h2.9v1.6h-1.8zM156.5 56.5h2.5v1.8h-2.5v-1.8zm.3 3.2h2v9.8h-2v-9.8zM160 55.8h2v13.7h-2zM172.4 63.4v6.1h-2v-5.9c0-2.1-.9-2.5-2.2-2.5-1.9 0-3 1.2-3 4.3v4.1h-2V55.8h2v6.1c.6-1.5 1.7-2.5 3.5-2.5 2.7 0 3.7 1.4 3.7 4M173.1 66.9c0-1.6.8-2.6 3-3l2.4-.4c.9-.2 1.4-.5 1.4-1.1 0-.9-.4-1.5-2.1-1.5-1.6 0-2.4.6-2.5 1.9h-2c0-2.1 1.5-3.4 4.3-3.4 2.7 0 4 1.2 4 3v4.8c0 .7 0 1.3.1 2.2H180c-.1-.8-.1-1.4-.1-2.2-.4 1.2-1.5 2.5-3.5 2.5-2.1.1-3.3-1-3.3-2.8m6.8-2.1v-.6c-.5.4-1.1.5-1.7.7l-1.3.3c-1.2.3-1.7.7-1.7 1.6 0 .9.7 1.4 1.7 1.4 1.9.1 3-1.5 3-3.4"/><path class="st3" d="M12 27.8c3.6 0 6.9 1.6 9.2 4.1l12.6-8.2c-.4-1.2-.7-2.6-.7-3.9 0-6.5 5.1-11.9 11.6-12.4-3.2-1-6.6-1.5-10.2-1.5-17 0-31.2 12.5-33.7 28.9 2.1-4.2 6.4-7 11.2-7M45.5 52.5c-4.5 0-8 3.6-8 8 0 4.5 3.6 8 8 8s8-3.6 8-8-3.5-8-8-8"/><path class="st3" d="M68.6 39.9c0-10.6-4.8-20-12.3-26.2 1 1.8 1.6 3.9 1.6 6.1 0 6.8-5.6 12.4-12.4 12.4-3.9 0-7.3-1.8-9.6-4.6l-12.4 8.1c.6 1.4.9 2.9.9 4.6 0 1.6-.3 3.1-.9 4.6l3.5 2.4c.1.1.2.1.4.2.9.8 1.1 2.1.3 3.1-.8.9-2.1 1.1-3.1.3l-3.4-2.3c-2.3 2.5-5.5 4.1-9.2 4.1-4.8 0-9-2.8-11-6.8C3.8 61.8 17.7 74 34.6 74c3.1 0 6.2-.4 9.1-1.2-5.9-.9-10.5-6.1-10.5-12.2 0-1.4.3-2.7.7-4l-3.3-2.2c-.6-.4-.9-.9-1-1.6-.1-1.2.7-2.3 1.9-2.4.5 0 1 .1 1.5.4l3 2c2.3-2.8 5.7-4.6 9.6-4.6 6.8 0 12.4 5.6 12.4 12.4 0 1.9-.4 3.7-1.2 5.3 7.2-6.3 11.8-15.6 11.8-26"/><path d="M45.5 11.8c4.4 0 8 3.6 8 8s-3.6 8-8 8c-4.5 0-8-3.6-8-8 0-4.5 3.6-8 8-8" style="fill:#d3ddf1"/><path class="st4" d="M12 32.2c4.4 0 8 3.6 8 8 0 4.5-3.6 8-8 8-4.5 0-8-3.6-8-8 0-4.5 3.6-8 8-8"/><path class="st6" d="M203.2 51.4c0 2.2-1 4.1-3.6 4.1-1.3 0-2.2-.5-2.8-1.4v1.1h-2.3V44.4h2.3v4.2c.5-.9 1.4-1.4 2.8-1.4 2.5.1 3.6 2 3.6 4.2m-2.3 0c0-1.6-.5-2.3-2-2.3s-2.1.7-2.1 2.3c0 1.6.6 2.3 2.1 2.3s2-.7 2-2.3"/><path class="st6" d="m211 47.5-2.7 8c-.6 1.9-1.3 2.9-3.5 2.9h-1.9v-1.8h3l.5-1.4H205l-2.6-7.6h2.3l1.7 4.8.4 1.3.4-1.3 1.7-4.8h2.1zM202.4 62.6v7.7h-2.3v-1.5c-.5 1.1-1.3 1.7-2.7 1.7-2 0-2.9-1.2-2.9-3.3v-4.7h2.3V67c0 1.2.5 1.7 1.5 1.7 1.2 0 1.9-.9 1.9-2.6v-3.5h2.2zM211.6 66.5c0 2.2-1 4.1-3.6 4.1-1.3 0-2.2-.5-2.8-1.4v1.1H203V59.5h2.3v4.2c.5-.9 1.4-1.4 2.8-1.4 2.5 0 3.5 2 3.5 4.2m-2.3 0c0-1.6-.5-2.3-2-2.3s-2.1.7-2.1 2.3c0 1.6.6 2.3 2.1 2.3s2-.7 2-2.3M211.2 61.7l-.2-.6 3.9-1.3.5 1.5-4.2.4zm.9.9h2.3v7.7h-2.3v-7.7zM223.4 62.6v10.8h-2.3v-4.3c-.5.9-1.4 1.4-2.8 1.4-2.5 0-3.6-1.9-3.6-4.1 0-2.2 1-4.1 3.6-4.1 1.3 0 2.2.5 2.8 1.4v-1.1h2.3zm-2.3 3.9c0-1.6-.6-2.3-2.1-2.3s-2 .7-2 2.3c0 1.6.5 2.3 2 2.3s2.1-.7 2.1-2.3M231.9 62.6v7.7h-2.3v-1.5c-.5 1.1-1.3 1.7-2.7 1.7-2 0-2.9-1.2-2.9-3.3v-4.7h2.3V67c0 1.2.5 1.7 1.5 1.7 1.2 0 1.9-.9 1.9-2.6v-3.5h2.2zM240.8 62.6v7.7h-2.3v-1.2c-.5.9-1.4 1.4-2.7 1.4-2.6 0-3.5-1.9-3.5-4.1 0-2.2.9-4.1 3.5-4.1 1.3 0 2.2.5 2.7 1.4v-1.1h2.3zm-2.3 3.9c0-1.7-.6-2.3-2-2.3s-1.9.7-1.9 2.3c0 1.7.5 2.3 1.9 2.3 1.3 0 2-.7 2-2.3"/><path transform="rotate(-65.349 219.416 53.194)" class="st6" d="M219 52.1h.9v2.2h-.9z"/><path transform="rotate(-16.715 224.166 53.648)" class="st6" d="M222.7 53.3h2.8v.8h-2.8z"/><path transform="rotate(-74.525 222.448 51.757)" class="st6" d="M221 51.3h2.9v.9H221z"/><path class="st6" d="M223.2 50.6c-1.2 0-2.2-1-2.2-2.2 0-1.2 1-2.2 2.2-2.2 1.2 0 2.2 1 2.2 2.2 0 1.2-1 2.2-2.2 2.2m0-3.6c-.7 0-1.3.6-1.3 1.3 0 .7.6 1.3 1.3 1.3.7 0 1.3-.6 1.3-1.3 0-.7-.6-1.3-1.3-1.3M226.7 54.2c-.8 0-1.5-.7-1.5-1.5s.7-1.5 1.5-1.5 1.5.7 1.5 1.5c0 .9-.7 1.5-1.5 1.5m0-2.2c-.4 0-.7.3-.7.7 0 .4.3.7.7.7.4 0 .7-.3.7-.7 0-.4-.3-.7-.7-.7M221.6 55.9c-1 0-1.8-.8-1.8-1.8s.8-1.8 1.8-1.8 1.8.8 1.8 1.8c-.1 1-.9 1.8-1.8 1.8m0-2.6c-.5 0-.9.4-.9.9s.4.9.9.9.9-.4.9-.9c-.1-.5-.5-.9-.9-.9M215.5 54.7c-2 0-3.7-1.7-3.7-3.7s1.7-3.7 3.7-3.7 3.7 1.7 3.7 3.7c0 2.1-1.7 3.7-3.7 3.7m0-6.3c-1.5 0-2.7 1.2-2.7 2.7 0 1.5 1.2 2.7 2.7 2.7 1.5 0 2.7-1.2 2.7-2.7-.1-1.5-1.3-2.7-2.7-2.7"/></g></svg>