<svg version="1.1" id="Camada_1" xmlns="http://www.w3.org/2000/svg" x="0" y="0" viewBox="0 0 260 84.9" style="enable-background:new 0 0 260 84.9" xml:space="preserve"><style>.st0{fill:#525682}.st1{fill:#8e95ca}.st2{fill:#fff}.st4{fill:#1c1d3c}.st5{fill:#535783}</style><path class="st0" d="M49.2 5.4c-4.5-2.4-9.6-3.7-15-3.7S23.7 3 19.2 5.4h30zM34.2 33.4l6.7-9.6H27.6zM64.6 23.3l-16.7 22c3.1 3.4 4.9 7.9 4.9 12.5 0 .8-.1 1.6-.1 2.3 8.3-5.8 13.7-15.5 13.7-26.4 0-3.6-.6-7.1-1.8-10.4M15.6 57.9c0-4.7 1.8-9.1 4.9-12.5L3.8 23.3C2.6 26.6 2 30.2 2 33.9c0 10.9 5.4 20.5 13.7 26.4 0-.9-.1-1.6-.1-2.4M13.7 7.5h41.4v14.1H13.7z"/><path class="st1" d="M27.5 51 5.6 22l8.1-14.5 28.7 41.4z"/><path class="st2" d="m11.5 11.4 26.7 38.1h.3L11.6 11.2zM8.1 17.4l23.2 33.1.3-.1L8.3 17.2z"/><path class="st1" d="M26.1 48.9 54.8 7.5 62.9 22l-22 29z"/><path class="st2" d="m30.3 49.5.3.1 26.5-37.8-.1-.3zM37.2 50.5h.3l23-32.7-.1-.3z"/><path class="st0" d="M50.7 57.9c0 9.1-7.4 16.5-16.5 16.5S17.7 67 17.7 57.9s7.4-16.5 16.5-16.5 16.5 7.4 16.5 16.5"/><path d="M45.8 57.9c0 6.4-5.2 11.6-11.6 11.6s-11.6-5.2-11.6-11.6c0-6.4 5.2-11.6 11.6-11.6s11.6 5.2 11.6 11.6" style="fill:#d3ddf1"/><path class="st0" d="M87.3 23.2c.1 2.6 1.8 4.5 5.6 4.5 3.7 0 4.9-1.3 4.9-3.2 0-1.9-1.1-2.8-3.3-3.1l-5.4-.7c-4.4-.6-6.8-2.9-6.8-7 0-4.4 3.3-7.6 10.2-7.6 7.3 0 10.4 3.6 10.6 7.9h-5.5c-.3-2.3-1.9-3.8-5.2-3.8-3 0-4.6 1.2-4.6 3.1 0 1.4.8 2.5 2.9 2.7l5.1.6c5 .6 7.5 2.9 7.5 7.2 0 4.8-3 8-10.6 8-8.1 0-10.8-4.3-11-8.7h5.6zM117.6 25.7h5.2c-.5 2.9-2.9 6.2-9.5 6.2-7.2 0-9.9-4.6-9.9-9.8 0-5.3 3.1-9.8 9.9-9.8 7 0 9.5 4.5 9.5 9.7 0 .6 0 1.1-.1 1.5h-14c.3 3.5 2.1 4.6 4.7 4.6 2.4 0 3.6-1 4.2-2.4m-8.8-5.5h8.9c-.2-2.8-1.6-4.2-4.3-4.2-2.7 0-4.2 1.1-4.6 4.2M135.3 12.6v5.3h-1.8c-3.7 0-4.9 2-4.9 6.2v7.3h-5.5V12.9h5.3v3.9c.9-2.7 2.5-4.2 5.6-4.2h1.3z"/><path class="st1" d="M99.2 49.5c-.3 2.6-1.7 4.6-5.2 4.6s-5.5-1.6-5.5-6.5 2.1-6.5 5.6-6.5c3.3 0 4.8 1.7 5 4.5h6.3c-.1-5.4-3.9-9.5-11.4-9.5-8.5-.1-12 5.4-12 11.5s3.6 11.6 12.1 11.6c7.7 0 11.3-4.6 11.4-9.7h-6.3z"/><path class="st1" d="M126.2 43.4c0-4.7-3.2-7.4-9.8-7.4-6.7 0-10.4 3.1-10.6 7.8h6.3c.1-2.2 1.5-3.4 4.4-3.4s3.8 1 3.8 2.5c0 1.3-.7 1.8-2.7 2.2l-5.1.9c-5.6 1-7.1 3.3-7.1 6.7 0 4 2.8 6.4 7.2 6.4 4.5 0 7.1-2.2 8.1-5.2 0 1.8.1 3.2.3 4.7h5.6c-.2-1.9-.3-3.6-.3-5.7v-9.5zm-5.9 4.7c0 4-2.1 6.5-5.6 6.5-1.7 0-3-.9-3-2.6 0-1.7.9-2.5 3.2-3l1.8-.4c1.3-.3 2.4-.6 3.6-1.4v.9zM156.4 36c-4.1 0-6.4 2-7.8 5.1-1-3.3-3.3-5.1-7.2-5.1-3.8 0-6.1 1.9-7.4 4.7v-4h-6.4v21.8h6.4v-9.9c0-5.2 1.6-7.4 4.9-7.4 2.6 0 3.9 1.6 3.9 4.8v12.5h6.3v-9.9c0-5.2 1.6-7.4 4.9-7.4 2.6 0 3.9 1.6 3.9 4.8v12.5h6.4V45.1c.1-5.7-2.3-9.1-7.9-9.1M233.6 43.4c0-4.7-3.2-7.4-9.8-7.4-6.7 0-10.4 3.1-10.6 7.8h6.3c.1-2.2 1.5-3.4 4.4-3.4s3.8 1 3.8 2.5c0 1.3-.7 1.8-2.7 2.2l-5.1.9c-5.2.9-6.9 2.9-7.1 5.9h-6.1c-.7 1.6-2.1 2.8-4.9 2.8-3.1 0-5.1-1.3-5.5-5.5h16.6c.1-.5.1-1.1.1-1.7 0-6.1-3-11.5-11.3-11.5-7 0-10.7 4-11.5 9.2-.7-5.2-3.7-9.2-9.9-9.2-3.8 0-6.2 1.4-7.7 3.8v-3.1h-6.4v30.5h6.4V55.3c1.5 2.4 4 3.9 7.7 3.9 6.2 0 9.2-4.1 9.9-9.2.8 5.1 4.2 9.2 11.5 9.2 7.5 0 10.5-3.5 11.2-6.9v.4c0 4 2.8 6.4 7.2 6.4 4.5 0 7.1-2.2 8.1-5.2 0 1.8.1 3.2.3 4.7h5.6c-.2-1.9-.3-3.6-.3-5.7v-9.5zm-32-3c3.2 0 4.8 1.7 5.1 5h-10.5c.5-3.8 2.3-5 5.4-5m-23.5 13.7c-4.1 0-5.8-2-5.8-6.5s1.7-6.5 5.8-6.5 5.5 2 5.5 6.5-1.3 6.5-5.5 6.5m49.5-6c0 4-2.1 6.5-5.6 6.5-1.7 0-3-.9-3-2.6 0-1.7.9-2.5 3.2-3l1.8-.4c1.3-.3 2.4-.6 3.6-1.4v.9zM219.8 33.4c0-.9.3-1.3 1-1.3 1.5 0 3.7 2 6.4 2 2.3 0 4-1.1 4-3.7v-1.1h-4v.7c0 .9-.3 1.3-1 1.3-1.6 0-3.4-2-6.4-2-2.3 0-4 1-4 3.6v1.3h4v-.8z"/><path class="st1" d="M245.9 36c-8.7 0-12.1 5.5-12.1 11.5 0 6.1 3.4 11.6 12.1 11.6S258 53.6 258 47.5c0-5.9-3.4-11.5-12.1-11.5m0 18.1c-3.9 0-5.6-1.7-5.6-6.5s1.7-6.5 5.6-6.5c4 0 5.6 1.7 5.6 6.5s-1.6 6.5-5.6 6.5"/><path class="st4" d="M171.9 75.1c0 2.6-1.2 4.8-4.2 4.8-1.6 0-2.6-.6-3.2-1.6v1.3h-2.7V67h2.7v4.9c.6-1 1.6-1.6 3.2-1.6 3 0 4.2 2.2 4.2 4.8m-2.7 0c0-1.9-.6-2.7-2.3-2.7-1.7 0-2.4.8-2.4 2.7 0 1.9.7 2.7 2.4 2.7s2.3-.8 2.3-2.7"/><path class="st4" d="m181 70.6-3.2 9.3c-.7 2.2-1.5 3.3-4.1 3.3h-2.3v-2.1h3.5l.6-1.7H174l-3.1-8.9h2.7l2 5.6.5 1.5.4-1.5 1.9-5.6h2.6zM211.9 70.6v9h-2.7v-1.7c-.6 1.2-1.6 2-3.2 2-2.4 0-3.4-1.4-3.4-3.8v-5.5h2.7v5.1c0 1.4.6 2 1.8 2 1.4 0 2.2-1 2.2-3v-4.1h2.6zM222.6 75.1c0 2.6-1.2 4.8-4.2 4.8-1.6 0-2.6-.6-3.2-1.6v1.3h-2.7V67h2.7v4.9c.6-1 1.6-1.6 3.2-1.6 3 0 4.2 2.2 4.2 4.8m-2.7 0c0-1.9-.6-2.7-2.3-2.7-1.7 0-2.4.8-2.4 2.7 0 1.9.7 2.7 2.4 2.7s2.3-.8 2.3-2.7M222.1 69.6l-.2-.7 4.6-1.6.5 1.7-4.9.6zm1 1h2.7v9h-2.7v-9zM236.4 70.6v12.7h-2.7v-5c-.6 1-1.7 1.6-3.2 1.6-3 0-4.2-2.2-4.2-4.8 0-2.6 1.2-4.8 4.2-4.8 1.6 0 2.6.6 3.2 1.6v-1.3h2.7zm-2.7 4.5c0-1.9-.7-2.7-2.4-2.7s-2.3.8-2.3 2.7c0 1.9.6 2.7 2.3 2.7 1.7 0 2.4-.8 2.4-2.7M246.3 70.6v9h-2.7v-1.7c-.6 1.2-1.6 2-3.2 2-2.4 0-3.4-1.4-3.4-3.8v-5.5h2.7v5.1c0 1.4.6 2 1.8 2 1.4 0 2.2-1 2.2-3v-4.1h2.6zM256.7 70.6v9H254v-1.4c-.6 1-1.6 1.6-3.2 1.6-3 0-4.1-2.2-4.1-4.8 0-2.6 1.1-4.8 4.1-4.8 1.6 0 2.6.6 3.2 1.6v-1.3h2.7zm-2.7 4.5c0-2-.7-2.7-2.3-2.7-1.6 0-2.2.8-2.2 2.7 0 1.9.6 2.7 2.2 2.7s2.3-.7 2.3-2.7"/><path transform="rotate(-65.337 190.873 77.205)" class="st4" d="M190.4 75.9h1v2.6h-1z"/><path transform="rotate(-16.724 196.397 77.718)" class="st4" d="M194.8 77.3h3.3v.9h-3.3z"/><path transform="rotate(-74.543 194.429 75.52)" class="st4" d="M192.7 75h3.4v1h-3.4z"/><path class="st4" d="M195.3 74.2c-1.4 0-2.6-1.2-2.6-2.6 0-1.4 1.2-2.6 2.6-2.6 1.4 0 2.6 1.2 2.6 2.6 0 1.4-1.2 2.6-2.6 2.6m0-4.2c-.9 0-1.6.7-1.6 1.6 0 .9.7 1.6 1.6 1.6.9 0 1.6-.7 1.6-1.6-.1-.9-.8-1.6-1.6-1.6M199.4 78.4c-1 0-1.8-.8-1.8-1.8s.8-1.8 1.8-1.8 1.8.8 1.8 1.8c-.1 1-.9 1.8-1.8 1.8m0-2.6c-.5 0-.8.4-.8.8 0 .5.4.8.8.8.5 0 .8-.4.8-.8s-.4-.8-.8-.8M193.4 80.4c-1.1 0-2-.9-2-2s.9-2 2-2 2 .9 2 2-.9 2-2 2m0-3.1c-.6 0-1 .4-1 1s.4 1 1 1 1-.4 1-1-.5-1-1-1M186.3 79c-2.4 0-4.3-1.9-4.3-4.3s1.9-4.3 4.3-4.3 4.3 1.9 4.3 4.3-1.9 4.3-4.3 4.3m0-7.4c-1.7 0-3.1 1.4-3.1 3.1 0 1.7 1.4 3.1 3.1 3.1 1.7 0 3.1-1.4 3.1-3.1 0-1.7-1.4-3.1-3.1-3.1"/><path class="st5" d="M33.9 65.3c-1.6-1-2.9-2-4.6-2.7-1.1-.5-2.3-.8-3.6-1-.7-.1-1-.3-.9-.8.5-2 .9-4.1 1.3-6.1.1-.5.4-.6 1-.6 2.4.2 4.5.8 6.2 2 .3.2.6.5.6.8 0 2.7.1 5.3.1 8 0 0-.1.1-.1.4M34.5 65.3c1.6-1 2.9-2 4.6-2.7 1.1-.5 2.3-.8 3.6-1 .7-.1 1-.3.9-.8-.5-2-.9-4.1-1.3-6.1-.1-.5-.4-.6-1-.6-2.4.2-4.5.8-6.2 2-.3.2-.6.5-.6.8 0 2.7-.1 5.3-.1 8-.1 0 0 .1.1.4"/></svg>