<svg version="1.1" id="Camada_1" xmlns="http://www.w3.org/2000/svg" x="0" y="0" viewBox="0 0 286.9 78.4" style="enable-background:new 0 0 286.9 78.4" xml:space="preserve"><style>.st0{fill:#525682}.st1{fill:#8e95ca}.st2{fill:#1c1d3c}</style><path class="st0" d="M82.7 27.5c.1 1.5 1.2 2.7 3.6 2.7 2.1 0 2.8-.7 2.8-1.8 0-1-.4-1.6-2.2-1.8l-3.5-.4c-3-.4-4.5-1.9-4.5-4.6 0-3.5 3-5.1 7.1-5.1 4.2 0 7 1.6 7.3 5.1H89c-.2-1.3-1.1-2.2-3.1-2.2s-2.8.7-2.8 1.7c0 .8.4 1.4 2 1.6l3.3.4c3.7.5 5.1 2.1 5.1 4.8 0 3.1-1.9 5.2-7.3 5.2-5.5 0-7.6-2.6-7.7-5.6h4.2z"/><path class="st0" d="M105.2 27.9h4.4c-.4 2.5-2.5 5.2-8 5.2-6.1 0-8.4-3.9-8.4-8.3 0-4.5 2.6-8.3 8.4-8.3 5.9 0 8.1 3.8 8.1 8.2 0 .5 0 .9-.1 1.2H97.7c.3 3 1.7 3.9 4 3.9 2 .1 3-.7 3.5-1.9m-7.4-4.7h7.5c-.2-2.4-1.3-3.6-3.6-3.6-2.3.1-3.6 1-3.9 3.6M120.2 16.8v4.5h-1.5c-3.1 0-4.1 1.7-4.1 5.2v6.1H110V17h4.5v3.3c.7-2.2 2.2-3.6 4.8-3.6h.9zM134.4 26.2h-4.8v5h-3.4v-5h-4.9V23h4.9v-5h3.4v5h4.8zM90.8 48.6h4.4c-.4 2.5-2.5 5.2-8 5.2-6.1 0-8.4-3.9-8.4-8.3 0-4.5 2.6-8.3 8.4-8.3 5.9 0 8.1 3.8 8.1 8.2 0 .5 0 .9-.1 1.2H83.3c.3 3 1.7 3.9 4 3.9 2 .1 3-.8 3.5-1.9m-7.4-4.7h7.5c-.2-2.4-1.3-3.6-3.6-3.6s-3.6.9-3.9 3.6M121.9 43.7v9.6h-4.6v-8.9c0-2.3-.9-3.4-2.8-3.4-2.4 0-3.5 1.5-3.5 5.3v7.1h-4.5v-8.9c0-2.3-.9-3.4-2.8-3.4-2.4 0-3.5 1.5-3.5 5.3v7.1h-4.6V37.7h4.6v2.8c1-2 2.6-3.3 5.3-3.3 2.8 0 4.4 1.3 5.1 3.6 1-2.2 2.6-3.6 5.6-3.6 4 0 5.7 2.4 5.7 6.5M140.4 45.5c0 4.4-2.1 8.3-7.2 8.3-2.7 0-4.5-1-5.5-2.8v8.5H123V37.7h4.6V40c1.1-1.7 2.8-2.7 5.5-2.7 5.2-.1 7.3 3.7 7.3 8.2m-4.7 0c0-3.2-1-4.7-4-4.7s-4.1 1.5-4.1 4.7 1.2 4.7 4.1 4.7c3 0 4-1.4 4-4.7M151.7 37.5V42h-1.5c-3.1 0-4.1 1.7-4.1 5.2v6.1h-4.6V37.7h4.5V41c.7-2.2 2.2-3.6 4.8-3.6h.9zM163.9 48.6h4.4c-.4 2.5-2.5 5.2-8 5.2-6.1 0-8.4-3.9-8.4-8.3 0-4.5 2.6-8.3 8.4-8.3 5.9 0 8.1 3.8 8.1 8.2 0 .5 0 .9-.1 1.2h-11.9c.3 3 1.7 3.9 4 3.9 2 .1 3-.8 3.5-1.9m-7.5-4.7h7.5c-.2-2.4-1.3-3.6-3.6-3.6-2.2 0-3.5.9-3.9 3.6M181.2 48.6h4.4c-.4 2.5-2.5 5.2-8 5.2-6.1 0-8.4-3.9-8.4-8.3 0-4.5 2.6-8.3 8.4-8.3 5.9 0 8.1 3.8 8.1 8.2 0 .5 0 .9-.1 1.2h-11.9c.3 3 1.7 3.9 4 3.9 2 .1 3-.8 3.5-1.9m-7.5-4.7h7.5c-.2-2.4-1.3-3.6-3.6-3.6-2.2 0-3.5.9-3.9 3.6M202.5 43.7v9.6h-4.6v-8.9c0-2.5-1.1-3.5-3-3.5-2.5 0-3.8 1.5-3.8 5.3v7.1h-4.6V37.7h4.6v3.1c1-2.1 2.7-3.6 5.6-3.6 4.1 0 5.8 2.4 5.8 6.5M220.3 31.5v21.8h-4.6V51c-1.1 1.8-2.9 2.8-5.6 2.8-5.1 0-7.2-3.8-7.2-8.3 0-4.4 2.1-8.3 7.2-8.3 2.7 0 4.5 1.1 5.6 2.8v-8.6h4.6zm-4.6 14c0-3.2-1.2-4.7-4.1-4.7-3 0-4 1.4-4 4.7 0 3.2 1 4.7 4 4.7 2.9 0 4.1-1.5 4.1-4.7M233.1 48.6h4.4c-.4 2.5-2.5 5.2-8 5.2-6.1 0-8.4-3.9-8.4-8.3 0-4.5 2.6-8.3 8.4-8.3 5.9 0 8.1 3.8 8.1 8.2 0 .5 0 .9-.1 1.2h-11.9c.3 3 1.7 3.9 4 3.9 2 .1 3-.8 3.5-1.9m-7.5-4.7h7.5c-.2-2.4-1.3-3.6-3.6-3.6-2.2 0-3.5.9-3.9 3.6M255.9 31.5v21.8h-4.6V51c-1.1 1.8-2.9 2.8-5.6 2.8-5.1 0-7.2-3.8-7.2-8.3 0-4.4 2.1-8.3 7.2-8.3 2.7 0 4.5 1.1 5.6 2.8v-8.6h4.6zm-4.6 14c0-3.2-1.2-4.7-4.1-4.7-3 0-4 1.4-4 4.7 0 3.2 1 4.7 4 4.7 2.9 0 4.1-1.5 4.1-4.7M256.7 45.5c0-4.3 2.4-8.3 8.6-8.3 6.2 0 8.6 4 8.6 8.3 0 4.4-2.4 8.3-8.6 8.3-6.2 0-8.6-4-8.6-8.3m8.6 4.7c2.8 0 4-1.2 4-4.7s-1.2-4.7-4-4.7-4 1.2-4 4.7 1.2 4.7 4 4.7M284.6 37.5V42h-1.5c-3.1 0-4.1 1.7-4.1 5.2v6.1h-4.6V37.7h4.5V41c.7-2.2 2.2-3.6 4.8-3.6h.9zM31.7 22.1c-2.1 3.8-.7 8.5 3.1 10.6 3.8 2.1 8.6.6 10.6-3.2 2.1-3.8.7-8.5-3.1-10.6-3.8-2.1-8.5-.6-10.6 3.2"/><path class="st1" d="m8.9 41 7.6-5.8.1.1c.6-3.8 1.4-7.4 2.7-10C29 6.3 46 6.1 48.8 6.2 33.4-1.9 14.3 3.9 6 19.2 1 28.5 1 39.1 5.1 48l3.8-7zM28.2 59.2c-.7.4-1.3.9-2 1.2l-5-2.7-.5-.3-5-2.7c0-.6 0-1.4-.1-2.3l-8.1.1c2.8 4.1 6.5 7.6 11.1 10.1 4.5 2.4 9.3 3.7 14 3.9l-4.4-7.3z"/><path class="st0" d="M49.5 6.5c1.6 2.3 10.7 16.7-.2 35.2-1.4 2.5-4 5.2-6.9 7.7l.1.1-1 9.3-4.1 7.5c10.1-1.1 19.4-6.9 24.7-16.5C70.5 34.3 64.9 15 49.5 6.5M11.8 62.3c-.8.7-1.6 1.4-2 2.1-4.1 6.2-.7 11.4-.6 11.4.1.1 6.3.8 9.9-5.7.4-.7.7-1.7.9-2.7l-8.2-5.1z"/><path class="st2" d="M201.1 66c0 2.6-1.2 4.8-4.2 4.8-1.6 0-2.6-.6-3.2-1.6v1.3H191V57.9h2.7v4.9c.6-1 1.6-1.6 3.2-1.6 3 0 4.2 2.3 4.2 4.8m-2.7.1c0-1.9-.6-2.7-2.3-2.7-1.7 0-2.4.9-2.4 2.7 0 1.9.7 2.7 2.4 2.7 1.8 0 2.3-.9 2.3-2.7"/><path class="st2" d="m210.2 61.5-3.2 9.3c-.7 2.2-1.5 3.3-4.1 3.3h-2.3V72h3.5l.6-1.7h-1.5l-3.1-8.9h2.7l2 5.6.5 1.5.4-1.5 1.9-5.6h2.6zM241.1 61.5v9h-2.7v-1.7c-.6 1.2-1.6 2-3.2 2-2.4 0-3.4-1.4-3.4-3.8v-5.5h2.7v5.1c0 1.4.6 2 1.8 2 1.4 0 2.2-1 2.2-3v-4.1h2.6zM251.8 66c0 2.6-1.2 4.8-4.2 4.8-1.6 0-2.6-.6-3.2-1.6v1.3h-2.7V57.9h2.7v4.9c.6-1 1.6-1.6 3.2-1.6 3 0 4.2 2.3 4.2 4.8m-2.7.1c0-1.9-.6-2.7-2.3-2.7-1.7 0-2.4.9-2.4 2.7 0 1.9.7 2.7 2.4 2.7s2.3-.9 2.3-2.7M251.3 60.5l-.2-.7 4.6-1.6.5 1.7-4.9.6zm1 1h2.7v9h-2.7v-9zM265.6 61.5v12.7h-2.7v-5c-.6 1-1.7 1.6-3.2 1.6-3 0-4.2-2.2-4.2-4.8 0-2.6 1.2-4.8 4.2-4.8 1.6 0 2.6.6 3.2 1.6v-1.3h2.7zm-2.7 4.6c0-1.9-.7-2.7-2.4-2.7s-2.3.8-2.3 2.7c0 1.9.6 2.7 2.3 2.7 1.7 0 2.4-.9 2.4-2.7M275.5 61.5v9h-2.7v-1.7c-.6 1.2-1.6 2-3.2 2-2.4 0-3.4-1.4-3.4-3.8v-5.5h2.7v5.1c0 1.4.6 2 1.8 2 1.4 0 2.2-1 2.2-3v-4.1h2.6zM285.9 61.5v9h-2.7v-1.4c-.6 1-1.6 1.6-3.2 1.6-3 0-4.1-2.2-4.1-4.8 0-2.6 1.1-4.8 4.1-4.8 1.6 0 2.6.6 3.2 1.6v-1.3h2.7zm-2.7 4.6c0-2-.7-2.7-2.3-2.7-1.6 0-2.2.8-2.2 2.7 0 1.9.6 2.7 2.2 2.7s2.3-.8 2.3-2.7"/><path transform="rotate(-65.337 220.087 68.155)" class="st2" d="M219.6 66.9h1v2.6h-1z"/><path transform="rotate(-16.704 225.61 68.66)" class="st2" d="M224 68.2h3.3v.9H224z"/><path transform="rotate(-74.509 223.62 66.466)" class="st2" d="M222 65.9h3.4v1H222z"/><path class="st2" d="M224.5 65.1c-1.4 0-2.6-1.2-2.6-2.6 0-1.4 1.2-2.6 2.6-2.6 1.4 0 2.6 1.2 2.6 2.6 0 1.4-1.2 2.6-2.6 2.6m0-4.2c-.9 0-1.6.7-1.6 1.6 0 .9.7 1.6 1.6 1.6.9 0 1.6-.7 1.6-1.6 0-.9-.8-1.6-1.6-1.6M228.6 69.4c-1 0-1.8-.8-1.8-1.8s.8-1.8 1.8-1.8 1.8.8 1.8 1.8c-.1 1-.9 1.8-1.8 1.8m0-2.6c-.5 0-.8.4-.8.8 0 .5.4.8.8.8.5 0 .8-.4.8-.8 0-.5-.4-.8-.8-.8M222.6 71.3c-1.1 0-2-.9-2-2s.9-2 2-2 2 .9 2 2-.9 2-2 2m0-3c-.6 0-1 .4-1 1s.4 1 1 1 1-.4 1-1-.5-1-1-1M215.5 69.9c-2.4 0-4.3-1.9-4.3-4.3s1.9-4.3 4.3-4.3 4.3 1.9 4.3 4.3-1.9 4.3-4.3 4.3m0-7.4c-1.7 0-3.1 1.4-3.1 3.1 0 1.7 1.4 3.1 3.1 3.1 1.7 0 3.1-1.4 3.1-3.1 0-1.7-1.4-3.1-3.1-3.1"/></svg>