<svg version="1.1" id="Camada_1" xmlns="http://www.w3.org/2000/svg" x="0" y="0" viewBox="0 0 288.8 89.2" style="enable-background:new 0 0 288.8 89.2" xml:space="preserve"><style>.st0{fill:#525682}.st1{fill:#8e95ca}.st2{fill:#1c1d3c}</style><path class="st0" d="M87.9 30.2c.2 2.1 1.7 3.7 5 3.7 3 0 3.9-1 3.9-2.5 0-1.4-.6-2.3-3-2.6l-4.9-.6c-4.1-.5-6.3-2.7-6.3-6.4 0-4.8 4.1-7.1 9.9-7.1 5.9 0 9.8 2.3 10.2 7.1h-6c-.2-1.8-1.5-3-4.3-3s-3.9 1-3.9 2.4c0 1.1.5 1.9 2.7 2.2l4.6.5c5.2.7 7.1 2.9 7.1 6.7 0 4.3-2.7 7.2-10.2 7.2-7.7 0-10.7-3.7-10.8-7.8h6z"/><path class="st0" d="M119.4 30.7h6.2c-.6 3.5-3.4 7.3-11.2 7.3-8.5 0-11.7-5.5-11.7-11.6 0-6.3 3.7-11.5 11.7-11.5 8.2 0 11.3 5.4 11.3 11.5 0 .7 0 1.3-.1 1.7H109c.4 4.1 2.4 5.5 5.5 5.5 2.8 0 4.2-1.2 4.9-2.9M109 24.2h10.5c-.2-3.3-1.9-5-5-5-3.2 0-5 1.3-5.5 5M140.4 15.2v6.3h-2.1c-4.4 0-5.8 2.4-5.8 7.3v8.6H126V15.5h6.3v4.7c1-3.1 3-5 6.7-5h1.4z"/><path class="st1" d="M105.5 57.9h-6.2c-.7 1.6-2.1 2.8-4.9 2.8-3.1 0-5.1-1.3-5.5-5.5h16.6c.1-.5.1-1.1.1-1.7 0-6.1-3-11.5-11.3-11.5-8.1 0-11.7 5.2-11.7 11.5 0 6.1 3.2 11.6 11.7 11.6 7.7.1 10.6-3.7 11.2-7.2M94.3 46.4c3.2 0 4.8 1.7 5 5H88.9c.5-3.7 2.3-5 5.4-5"/><path class="st1" d="M173 53.5c0-6.1-3-11.5-11.3-11.5-7 0-10.7 4-11.5 9.2-.7-5.2-3.7-9.2-9.9-9.2-3.8 0-6.2 1.4-7.7 3.8v-3.1h-6.4V64l-7.9-10.5 7.9-10.8h-7l-4.4 6.9-4.6-6.9h-7.6l8.2 11.1-8.1 10.6h7.1l4.6-6.8 4.7 6.8h7.1v8.7h6.4V61.3c1.5 2.4 4 3.9 7.7 3.9 6.2 0 9.2-4.1 9.9-9.2.8 5.1 4.2 9.2 11.5 9.2 7.8 0 10.7-3.8 11.2-7.3h-6.2c-.7 1.6-2.1 2.8-4.9 2.8-3.1 0-5.1-1.3-5.5-5.5h16.6c.2-.4.1-1 .1-1.7m-34.6 6.7c-4.1 0-5.8-2-5.8-6.5s1.7-6.5 5.8-6.5 5.5 2 5.5 6.5-1.4 6.5-5.5 6.5m18-8.8c.5-3.7 2.3-5 5.4-5 3.2 0 4.8 1.7 5 5h-10.4zM187.8 42.4h-1.4c-3.7 0-5.6 1.9-6.7 5v-4.7h-6.3v21.8h6.4v-8.6c0-4.9 1.4-7.3 5.8-7.3h2v15.8h6.4V42.7h-6.4v-.3zM187.4 35.6h7v4.3h-7zM217.7 53.5c0-6.1-3-11.5-11.3-11.5-8.1 0-11.7 5.2-11.7 11.5 0 6.1 3.2 11.6 11.7 11.6 7.8 0 10.7-3.8 11.2-7.3h-6.2c-.7 1.6-2.1 2.8-4.9 2.8-3.1 0-5.1-1.3-5.5-5.5h16.6c.1-.3.1-.9.1-1.6M201 51.4c.5-3.7 2.3-5 5.4-5 3.2 0 4.8 1.7 5 5H201zM232.3 42c-4 0-6.4 2-7.8 5v-4.3h-6.4v21.8h6.4v-9.9c0-5.2 1.9-7.4 5.4-7.4 2.7 0 4.1 1.4 4.1 4.9v12.4h6.4V51.1c0-5.7-2.4-9.1-8.1-9.1M275.3 60.8c-3.1 0-5.1-1.4-5.5-5.5h16.6c.1-.5.1-1.1.1-1.7 0-6.1-3-11.5-11.3-11.5-6.5 0-10.2 3.5-11.3 8.1-.7-4.7-4.5-8.1-11.3-8.1-8.5 0-11.9 5.5-11.9 11.6s3.6 11.6 12.1 11.6c6.8 0 10.4-3.6 11.2-7.9 1.1 4.5 4.6 7.9 11.3 7.9 7.8 0 10.7-3.8 11.2-7.3h-6.2c-.8 1.5-2.2 2.8-5 2.8m-.1-14.4c3.2 0 4.8 1.7 5.1 5h-10.5c.5-3.7 2.3-5 5.4-5m-17.4 9.1c-.3 2.6-1.7 4.6-5.2 4.6s-5.5-1.6-5.5-6.5 2.1-6.5 5.6-6.5c3.3 0 4.8 1.7 5 4.5h5.9c-.1.7-.1 1.3-.1 2s0 1.3.1 2h-5.8z"/><path class="st2" d="M200.5 79.1c0 2.6-1.2 4.8-4.2 4.8-1.6 0-2.6-.6-3.2-1.6v1.3h-2.7V71h2.7v4.9c.6-1 1.6-1.6 3.2-1.6 3 0 4.2 2.3 4.2 4.8m-2.7 0c0-1.9-.6-2.7-2.3-2.7-1.7 0-2.4.9-2.4 2.7 0 1.9.7 2.7 2.4 2.7s2.3-.8 2.3-2.7"/><path class="st2" d="m209.6 74.6-3.2 9.3c-.7 2.2-1.5 3.3-4.1 3.3H200v-2.1h3.5l.6-1.7h-1.5l-3.1-8.9h2.7l2 5.6.5 1.5.4-1.5 1.9-5.6h2.6zM240.4 74.6v9h-2.7v-1.7c-.6 1.2-1.6 2-3.2 2-2.4 0-3.4-1.4-3.4-3.8v-5.5h2.7v5.1c0 1.4.6 2 1.8 2 1.4 0 2.2-1 2.2-3v-4.1h2.6zM251.1 79.1c0 2.6-1.2 4.8-4.2 4.8-1.6 0-2.6-.6-3.2-1.6v1.3H241V71h2.7v4.9c.6-1 1.6-1.6 3.2-1.6 3 0 4.2 2.3 4.2 4.8m-2.7 0c0-1.9-.6-2.7-2.3-2.7-1.7 0-2.4.9-2.4 2.7 0 1.9.7 2.7 2.4 2.7 1.8 0 2.3-.8 2.3-2.7M250.7 73.6l-.2-.7 4.6-1.6.5 1.7-4.9.6zm1 1h2.7v9h-2.7v-9zM264.9 74.6v12.7h-2.7v-5c-.6 1-1.7 1.6-3.2 1.6-3 0-4.2-2.2-4.2-4.8 0-2.6 1.2-4.8 4.2-4.8 1.6 0 2.6.6 3.2 1.6v-1.3h2.7zm-2.6 4.5c0-1.9-.7-2.7-2.4-2.7s-2.3.8-2.3 2.7c0 1.9.6 2.7 2.3 2.7 1.6 0 2.4-.8 2.4-2.7M274.8 74.6v9h-2.7v-1.7c-.6 1.2-1.6 2-3.2 2-2.4 0-3.4-1.4-3.4-3.8v-5.5h2.7v5.1c0 1.4.6 2 1.8 2 1.4 0 2.2-1 2.2-3v-4.1h2.6zM285.2 74.6v9h-2.7v-1.4c-.6 1-1.6 1.6-3.2 1.6-3 0-4.1-2.2-4.1-4.8 0-2.6 1.1-4.8 4.1-4.8 1.6 0 2.6.6 3.2 1.6v-1.3h2.7zm-2.6 4.5c0-2-.7-2.7-2.3-2.7-1.6 0-2.2.8-2.2 2.7 0 1.9.6 2.7 2.2 2.7 1.5 0 2.3-.7 2.3-2.7"/><path transform="rotate(-65.337 219.447 81.222)" class="st2" d="M218.9 79.9h1v2.6h-1z"/><path transform="rotate(-16.665 224.983 81.736)" class="st2" d="M223.3 81.3h3.3v.9h-3.3z"/><path transform="rotate(-74.543 223.005 79.535)" class="st2" d="M221.3 79h3.4v1h-3.4z"/><path class="st2" d="M223.8 78.2c-1.4 0-2.6-1.2-2.6-2.6 0-1.4 1.2-2.6 2.6-2.6 1.4 0 2.6 1.2 2.6 2.6.1 1.4-1.1 2.6-2.6 2.6m0-4.2c-.9 0-1.6.7-1.6 1.6 0 .9.7 1.6 1.6 1.6.9 0 1.6-.7 1.6-1.6 0-.9-.7-1.6-1.6-1.6M227.9 82.4c-1 0-1.8-.8-1.8-1.8s.8-1.8 1.8-1.8 1.8.8 1.8 1.8c0 1.1-.8 1.8-1.8 1.8m0-2.6c-.5 0-.8.4-.8.8 0 .5.4.8.8.8.5 0 .8-.4.8-.8.1-.4-.3-.8-.8-.8M222 84.4c-1.1 0-2-.9-2-2s.9-2 2-2 2 .9 2 2-.9 2-2 2m0-3c-.6 0-1 .4-1 1s.4 1 1 1 1-.4 1-1-.5-1-1-1M214.9 83c-2.4 0-4.3-1.9-4.3-4.3s1.9-4.3 4.3-4.3 4.3 1.9 4.3 4.3-2 4.3-4.3 4.3m0-7.4c-1.7 0-3.1 1.4-3.1 3.1 0 1.7 1.4 3.1 3.1 3.1 1.7 0 3.1-1.4 3.1-3.1 0-1.7-1.4-3.1-3.1-3.1"/><path class="st0" d="M34.3 14.2c-.9-.6-1.6-1.7-1.6-2.9V4.5c-6.1.7-11.7 3-16.3 6.6l4.7 4.7c.7.7 1 1.5 1 2.4 0 .3 0 .5-.1.8 3.6-2.8 7.8-4.5 12.3-4.8M11.5 32.3c1.2 0 2.3.6 2.9 1.6.4-4.5 2.1-8.8 5.1-12.2-.2.1-.5.1-.7.1-.9 0-1.8-.4-2.4-1L11.6 16c-3.8 4.6-6.3 10.2-7.1 16.4h7zM55.9 11.1c-4.6-3.6-10.2-5.9-16.3-6.6v6.8c0 1.2-.7 2.3-1.6 2.9 4.4.4 8.6 2.2 12 5.1-.1-.2-.1-.5-.1-.7 0-.9.4-1.8 1-2.4l5-5.1zM60.4 39.2c-1.2 0-2.3-.6-2.9-1.6-.4 4.8-2.4 9.4-5.8 12.9-1.7 1.8-2.6 4.1-2.6 6.5v2.4c0 1.7-.9 3.1-2.2 4 .7.6 1.1 1.5 1.1 2.5v.3c11-4.3 19.1-14.7 20.2-27h-7.8zM60.4 32.3H68c-.8-6.2-3.3-11.8-7.1-16.4L55.8 21c-.7.7-1.5 1-2.4 1-.3 0-.5 0-.8-.1 2.8 3.4 4.5 7.5 4.9 11.9.6-.9 1.7-1.5 2.9-1.5M24 65.9c0-1 .4-1.9 1.1-2.5-1.3-.8-2.2-2.3-2.2-4V57c0-2.4-.9-4.7-2.6-6.5-3.4-3.6-5.4-8.1-5.8-13-.6 1-1.7 1.6-2.9 1.6H4.3C5.3 51.3 13.1 61.6 24 66v-.1z"/><path class="st2" d="M12.8 35.7c0-.7-.6-1.3-1.3-1.3H3.7c-.7 0-1.3.6-1.3 1.3 0 .7.6 1.3 1.3 1.3h7.8c.7 0 1.3-.6 1.3-1.3M17.9 19.2c.2.2.6.4.9.4s.7-.1.9-.4c.5-.5.5-1.3 0-1.8l-5.6-5.6c-.5-.5-1.3-.5-1.8 0s-.5 1.3 0 1.8l5.6 5.6zM36.2 12.5c.7 0 1.3-.6 1.3-1.3v-8c0-.7-.6-1.3-1.3-1.3-.7 0-1.3.6-1.3 1.3v8.1c0 .7.6 1.2 1.3 1.2"/><path class="st1" d="M42.7 72.6H29.2c-.7 0-1.3.6-1.3 1.3 0 .7.6 1.3 1.3 1.3h13.5c.7 0 1.3-.6 1.3-1.3 0-.7-.6-1.3-1.3-1.3"/><path class="st2" d="M53.4 19.8c.3 0 .6-.1.9-.4l5.9-5.9c.5-.5.5-1.3 0-1.8s-1.3-.5-1.8 0l-5.9 5.9c-.5.5-.5 1.3 0 1.8.2.3.5.4.9.4M68.8 34.4h-8.4c-.7 0-1.3.6-1.3 1.3 0 .7.6 1.3 1.3 1.3h8.4c.7 0 1.3-.6 1.3-1.3-.1-.7-.6-1.3-1.3-1.3"/><path class="st1" d="M44.5 68.6h-17c-.7 0-1.3.6-1.3 1.3 0 .7.6 1.3 1.3 1.3h17c.7 0 1.3-.6 1.3-1.3-.1-.7-.6-1.3-1.3-1.3M44.5 64.6h-17c-.7 0-1.3.6-1.3 1.3 0 .7.6 1.3 1.3 1.3h17c.7 0 1.3-.6 1.3-1.3-.1-.7-.6-1.3-1.3-1.3M36.2 16.3c-10.8-.1-19.6 8.4-19.7 19.3 0 5.2 2 10 5.3 13.5 2 2.2 3.2 5 3.2 8v2.4c0 1.3 1.1 2.4 2.4 2.4h17c1.3 0 2.4-1.1 2.4-2.4V57c0-3 1.2-5.8 3.2-8 3.3-3.5 5.3-8.1 5.3-13.3.1-10.6-8.5-19.3-19.1-19.4m-5.3 31.8c-.6-.4-.8-1.2-.4-1.8l4.9-7.6-3-1.9c-.3-.2-.5-.5-.6-.8-.1-.3 0-.7.2-1l5.6-8.7c.4-.6 1.2-.8 1.8-.4.4.3.6.8.6 1.2 0 .2-.1.4-.2.5l-4.9 7.6 3 1.9c.3.2.5.5.6.8.1.3 0 .7-.2 1l-5.6 8.7c-.4.7-1.2.9-1.8.5"/></svg>