<svg version="1.1" id="Camada_1" xmlns="http://www.w3.org/2000/svg" x="0" y="0" viewBox="0 0 270.2 84.9" style="enable-background:new 0 0 270.2 84.9" xml:space="preserve"><style>.st0{fill:#525682}.st1{fill:#d3ddf1}.st2{fill:#8e95ca}.st3{fill:#1c1d3c}</style><path class="st0" d="M22.7 42.1c-.9-2.5-1.5-5-2-7.6-1.1 1.6-2.1 3.2-2.8 4.8 1.5 1.1 3.1 1.9 4.8 2.8"/><path class="st1" d="M20.2 31.2c-.3-2.8-.4-5.4-.2-7.9-.6.2-1.3.2-1.8.4-.2 1.8-1.7 3.1-3.4 3.1-.7 0-1.4-.2-1.9-.6-.9.7-1.4 1.6-1.7 2.6-.7 2.8 1.2 6.1 5 9 .9-2.2 2.3-4.4 4-6.6"/><path class="st0" d="M27.8 23.1c-1.9-.2-3.8-.2-5.5 0-.1 1.8-.1 3.6 0 5.5 1.7-2 3.5-3.8 5.5-5.5"/><path class="st1" d="M17 41.6c-1.7 4.5-1.8 8.3.3 10.3 2 2.1 5.9 2 10.3.3-1.4-2-2.6-4.4-3.7-7-2.5-1-4.9-2.3-6.9-3.6"/><path class="st0" d="M27.1 46.5c.9 1.8 1.8 3.4 2.8 4.8 1.5-.7 3.1-1.7 4.7-2.8-2.9-.6-5.1-1.2-7.5-2"/><path class="st2" d="M17.3 23.3c0 1.5-1.2 2.8-2.8 2.8-1.5 0-2.8-1.2-2.8-2.8 0-1.5 1.2-2.8 2.8-2.8 1.5 0 2.8 1.3 2.8 2.8"/><path class="st0" d="M85.4 23.8c.1 1.8 1.4 3.2 4.2 3.2 2.5 0 3.3-.8 3.3-2.1 0-1.1-.5-1.9-2.6-2.2l-4.1-.5c-3.5-.4-5.3-2.3-5.3-5.4 0-4.1 3.5-6 8.4-6 5 0 8.3 1.9 8.7 6h-5c-.2-1.5-1.3-2.6-3.6-2.6-2.4 0-3.3.9-3.3 2.1 0 .9.4 1.6 2.3 1.9l3.9.4c4.4.6 6 2.4 6 5.7 0 3.6-2.3 6.1-8.6 6.1-6.6 0-9-3.1-9.1-6.6h4.8zM99.2 5.3h5.9v3.6h-5.9V5.3zm.2 6h5.5v18.4h-5.5V11.3zM125.9 18.4v11.3h-5.5V19.3c0-2.9-1.3-4.1-3.5-4.1-2.9 0-4.5 1.8-4.5 6.2v8.4H107V11.3h5.5V15c1.2-2.5 3.2-4.2 6.6-4.2 4.8 0 6.8 2.8 6.8 7.6M147.6 11.3V29c0 5.6-2.8 8.5-10.3 8.5-6.3 0-9.4-2.8-9.7-7h5.3c.3 1.9 1.5 3.1 4.6 3.1 3.2 0 4.6-1.1 4.6-4.1v-3.4c-1.3 1.9-3.3 2.9-6.4 2.9-6 0-8.6-4.1-8.6-9.2 0-5.2 2.6-9.2 8.6-9.2 3.1 0 5.1 1.1 6.4 3v-2.4h5.5zm-5.5 8.8c0-3.5-1.3-5.1-4.7-5.1-3.5 0-4.9 1.4-4.9 5.1 0 3.7 1.4 5.1 4.9 5.1 3.4 0 4.7-1.6 4.7-5.1M167.8 11.3v18.4h-5.5v-3.5c-1.1 2.5-3.2 4.1-6.5 4.1-4.9 0-7-2.9-7-7.7V11.3h5.5v10.5c0 2.9 1.3 4.1 3.6 4.1 2.8 0 4.4-2 4.4-6.2v-8.4h5.5zM169.3 4h5.5v25.8h-5.5zM176.4 24.9c0-2.9 1.3-4.9 6-5.7l4.3-.7c1.7-.3 2.3-.8 2.3-1.8 0-1.3-.7-2.1-3.2-2.1s-3.6 1-3.8 2.9h-5.3c.1-4 3.4-6.6 9-6.6s8.3 2.4 8.3 6.3v8c0 1.7.1 3.2.3 4.8h-4.8c-.2-1.2-.3-2.4-.3-3.9-.8 2.5-3 4.4-6.8 4.4-3.6-.3-6-2.3-6-5.6M189 21v-.8c-1 .7-1.9.9-3 1.2l-1.5.4c-2 .5-2.7 1.1-2.7 2.6s1.1 2.2 2.6 2.2c2.8-.1 4.6-2.2 4.6-5.6M207.3 11v5.3h-1.8c-3.7 0-4.9 2-4.9 6.2v7.3h-5.5V11.3h5.3v3.9c.9-2.7 2.5-4.2 5.6-4.2h1.3zM90 59.5c-5.2 0-6.8-2.2-6.8-6.6v-7.7h-3.4v-2.6l3.8-1.5 2.2-4.3h2.8v4.4h5.3v4.1h-5.3v9.9h4.8v4.3H90zM108.5 53.9h5.2c-.5 2.9-2.9 6.2-9.5 6.2-7.2 0-9.9-4.6-9.9-9.8 0-5.3 3.1-9.8 9.9-9.8 7 0 9.5 4.5 9.5 9.7 0 .6 0 1.1-.1 1.5h-14c.3 3.5 2.1 4.6 4.7 4.6 2.4 0 3.6-1 4.2-2.4m-8.8-5.5h8.9c-.2-2.8-1.6-4.2-4.3-4.2-2.7 0-4.2 1-4.6 4.2M124.8 40.5c6.3 0 9.5 3.5 9.6 8.1h-5.3c-.2-2.3-1.4-3.8-4.2-3.8-2.9 0-4.7 1.4-4.7 5.5 0 4.2 1.7 5.5 4.6 5.5 2.9 0 4.2-1.7 4.4-3.9h5.3c-.1 4.3-3.2 8.2-9.7 8.2-7.2 0-10.2-4.6-10.2-9.8.1-5.2 3-9.8 10.2-9.8"/><path class="st0" d="M154.5 48.2v11.3H149V49c0-2.9-1.3-4.1-3.5-4.1-2.9 0-4.5 1.8-4.5 6.2v8.4h-5.5V33.7h5.5v11c1.2-2.5 3.2-4.2 6.6-4.2 4.9 0 6.9 2.9 6.9 7.7M166.2 53.5c.1 1.8 1.4 3.2 4.2 3.2 2.5 0 3.3-.8 3.3-2.1 0-1.1-.5-1.9-2.6-2.2l-4.1-.5c-3.5-.4-5.3-2.3-5.3-5.4 0-4.1 3.5-6 8.4-6 5 0 8.3 1.9 8.7 6h-5c-.2-1.5-1.3-2.6-3.6-2.6-2.4 0-3.3.9-3.3 2.1 0 .9.4 1.6 2.3 1.9l3.9.4c4.4.6 6 2.4 6 5.7 0 3.6-2.3 6.1-8.6 6.1-6.6 0-9-3.1-9.1-6.6h4.8zM189.5 40.5c6.3 0 9.5 3.5 9.6 8.1h-5.3c-.2-2.3-1.4-3.8-4.2-3.8-2.9 0-4.7 1.4-4.7 5.5 0 4.2 1.7 5.5 4.6 5.5 2.9 0 4.2-1.7 4.4-3.9h5.3c-.1 4.3-3.2 8.2-9.7 8.2-7.2 0-10.2-4.6-10.2-9.8.1-5.2 3-9.8 10.2-9.8M219.2 48.2v11.3h-5.5V49c0-2.9-1.3-4.1-3.5-4.1-2.9 0-4.5 1.8-4.5 6.2v8.4h-5.5V33.7h5.5v11c1.2-2.5 3.2-4.2 6.6-4.2 4.9 0 6.9 2.9 6.9 7.7M220.1 50.3c0-5.1 2.9-9.8 10.2-9.8 7.4 0 10.2 4.7 10.2 9.8 0 5.2-2.8 9.8-10.2 9.8-7.3 0-10.2-4.7-10.2-9.8m10.2 5.5c3.4 0 4.8-1.4 4.8-5.5s-1.4-5.5-4.8-5.5c-3.3 0-4.7 1.4-4.7 5.5s1.4 5.5 4.7 5.5M240.8 50.3c0-5.1 2.9-9.8 10.2-9.8 7.4 0 10.2 4.7 10.2 9.8 0 5.2-2.8 9.8-10.2 9.8-7.3 0-10.2-4.7-10.2-9.8m10.2 5.5c3.4 0 4.8-1.4 4.8-5.5s-1.4-5.5-4.8-5.5c-3.3 0-4.7 1.4-4.7 5.5s1.5 5.5 4.7 5.5M261.6 33.7h5.5v25.8h-5.5z"/><path class="st1" d="M30.5 20.9c2.2-1.7 4.5-3 6.6-4.2-2.2-2.7-5.6-5.7-9.1-4.9-2.8.8-4.7 4.1-5.4 8.8 2.5-.1 5.1 0 7.9.3"/><path class="st2" d="M22.7 31.9c.6 3.8 1.6 7.9 3.1 11.5 3.6 1.5 7.5 2.6 11.5 3.1 3.3-2.6 6.1-5.4 8.5-8.5-.6-3.8-1.6-7.7-3.1-11.5-3.5-1.4-7.4-2.5-11.5-3.1-3.3 2.5-6.1 5.4-8.5 8.5m10.1-3.2h2.7v3.8l3.4-1.9 1.4 2.4-3.3 2 3.3 1.9-1.4 2.4-3.4-1.9v3.8h-2.7v-3.8l-3.4 1.9-1.4-2.4 3.3-1.9-3.3-1.9 1.4-2.4 3.4 1.9v-3.9z"/><path class="st0" d="M41.3 23.5c-.8-1.8-1.8-3.4-2.7-4.8-1.5.7-3.1 1.7-4.8 2.8 2.6.5 5 1.2 7.5 2"/><path class="st1" d="M51.4 28.4c1.7-4.5 1.8-8.3-.3-10.3-.6-.6-1.2-1-2-1.2-.6 1-1.7 1.6-2.9 1.6s-2.2-.6-2.9-1.5c-.8.2-1.7.5-2.6.8 1.4 2 2.6 4.4 3.7 7 2.6 1 5 2.3 7 3.6"/><path class="st0" d="M45.7 27.9c.9 2.6 1.6 5 2 7.6 1.1-1.6 2.1-3.3 2.8-4.8-1.5-1.1-3.1-2-4.8-2.8"/><path class="st1" d="M52.4 32.1c-1 2.2-2.5 4.4-4.2 6.6.4 2.8.5 5.5.3 7.9 4.7-.8 8.1-2.6 8.8-5.4.8-2.8-1.1-6.1-4.9-9.1"/><path class="st0" d="M33.8 3.2c-17.6 0-32 14.3-32 32 0 17.6 14.3 32 32 32s32-14.3 32-32c-.1-17.7-14.4-32-32-32m14.3 45.9c-.2 1.1-.4 2.2-.7 3.3.7.6 1.2 1.5 1.2 2.6 0 1.9-1.5 3.4-3.4 3.4-.3 0-.6-.1-.9-.2-1 1-2.2 1.8-3.4 2.1-3.2.9-6.7-.6-9.9-3.8-.6-.7-1.4-1.5-2-2.3-5.6 2.2-10.7 2.2-13.5-.6-2.9-2.9-2.9-7.9-.6-13.5-.9-.6-1.6-1.3-2.3-2-3.2-3.2-4.7-6.7-3.8-9.9.4-1.5 1.3-2.8 2.6-3.8-.1-.3-.2-.6-.2-1 0-1.9 1.5-3.4 3.4-3.4 1.2 0 2.2.6 2.9 1.5.9-.2 1.8-.3 2.6-.5.9-6 3.4-10.3 7.3-11.3 3.8-1 8.2 1.4 11.9 6.2 1.2-.5 2.3-.9 3.4-1.1.2-1.8 1.7-3.1 3.4-3.1s3.2 1.4 3.4 3c1.3.4 2.3 1 3.2 1.8 2.9 2.9 2.9 7.9.6 13.5 4.8 3.7 7.2 8 6 11.9-.9 3.8-5.1 6.3-11.2 7.2"/><path class="st0" d="M40.6 46.9c1.9.2 3.8.2 5.5 0 .2-1.7.2-3.6 0-5.5-1.6 1.8-3.4 3.7-5.5 5.5"/><path class="st1" d="M38 49.1c-2.2 1.7-4.5 3.1-6.7 4.2 3 3.7 6.3 5.6 9.1 4.9.8-.2 1.4-.6 2.1-1.2-.4-.6-.6-1.3-.6-2 0-1.9 1.5-3.4 3.4-3.4.2-.6.4-1.4.5-2.2-2.4.1-5 0-7.8-.3"/><path class="st2" d="M49 15c0 1.5-1.2 2.8-2.8 2.8-1.5 0-2.8-1.2-2.8-2.8 0-1.5 1.2-2.8 2.8-2.8 1.5.1 2.8 1.3 2.8 2.8M48.1 54.9c0 1.5-1.2 2.8-2.8 2.8-1.5 0-2.8-1.2-2.8-2.8 0-1.5 1.2-2.8 2.8-2.8 1.5.1 2.8 1.3 2.8 2.8"/><path class="st3" d="M183.6 73.6c0 2.6-1.2 4.8-4.2 4.8-1.6 0-2.6-.6-3.2-1.6v1.3h-2.7V65.5h2.7v4.9c.6-1 1.6-1.6 3.2-1.6 3 0 4.2 2.3 4.2 4.8m-2.7 0c0-1.9-.6-2.7-2.3-2.7-1.7 0-2.4.9-2.4 2.7 0 1.9.7 2.7 2.4 2.7s2.3-.8 2.3-2.7"/><path class="st3" d="m192.7 69.1-3.2 9.3c-.7 2.2-1.5 3.3-4.1 3.3h-2.3v-2.1h3.5l.6-1.7h-1.5l-3.1-8.9h2.7l2 5.6.5 1.5.4-1.5 1.9-5.6h2.6zM223.6 69.1v9h-2.7v-1.7c-.6 1.2-1.6 2-3.2 2-2.4 0-3.4-1.4-3.4-3.8v-5.5h2.7v5.1c0 1.4.6 2 1.8 2 1.4 0 2.2-1 2.2-3v-4.1h2.6zM234.3 73.6c0 2.6-1.2 4.8-4.2 4.8-1.6 0-2.6-.6-3.2-1.6v1.3h-2.7V65.5h2.7v4.9c.6-1 1.6-1.6 3.2-1.6 2.9 0 4.2 2.3 4.2 4.8m-2.7 0c0-1.9-.6-2.7-2.3-2.7-1.7 0-2.4.9-2.4 2.7 0 1.9.7 2.7 2.4 2.7s2.3-.8 2.3-2.7M233.8 68.1l-.2-.7 4.6-1.6.5 1.7-4.9.6zm1 1h2.7v9h-2.7v-9zM248.1 69.1v12.7h-2.7v-5c-.6 1-1.7 1.6-3.2 1.6-3 0-4.2-2.2-4.2-4.8 0-2.6 1.2-4.8 4.2-4.8 1.6 0 2.6.6 3.2 1.6v-1.3h2.7zm-2.7 4.5c0-1.9-.7-2.7-2.4-2.7s-2.3.8-2.3 2.7c0 1.9.6 2.7 2.3 2.7 1.7 0 2.4-.8 2.4-2.7M258 69.1v9h-2.7v-1.7c-.6 1.2-1.6 2-3.2 2-2.4 0-3.4-1.4-3.4-3.8v-5.5h2.7v5.1c0 1.4.6 2 1.8 2 1.4 0 2.2-1 2.2-3v-4.1h2.6zM268.4 69.1v9h-2.7v-1.4c-.6 1-1.6 1.6-3.2 1.6-3 0-4.1-2.2-4.1-4.8 0-2.6 1.1-4.8 4.1-4.8 1.6 0 2.6.6 3.2 1.6V69h2.7zm-2.7 4.5c0-2-.7-2.7-2.3-2.7-1.6 0-2.2.8-2.2 2.7 0 1.9.6 2.7 2.2 2.7 1.5 0 2.3-.7 2.3-2.7"/><path transform="rotate(-65.337 202.563 75.716)" class="st3" d="M202.1 74.4h1V77h-1z"/><path transform="rotate(-16.665 208.1 76.231)" class="st3" d="M206.5 75.8h3.3v.9h-3.3z"/><path transform="rotate(-74.543 206.12 74.029)" class="st3" d="M204.4 73.5h3.4v1h-3.4z"/><path class="st3" d="M207 72.7c-1.4 0-2.6-1.2-2.6-2.6 0-1.4 1.2-2.6 2.6-2.6 1.4 0 2.6 1.2 2.6 2.6 0 1.4-1.2 2.6-2.6 2.6m0-4.2c-.9 0-1.6.7-1.6 1.6 0 .9.7 1.6 1.6 1.6.9 0 1.6-.7 1.6-1.6-.1-.9-.8-1.6-1.6-1.6M211 76.9c-1 0-1.8-.8-1.8-1.8s.8-1.8 1.8-1.8 1.8.8 1.8 1.8-.8 1.8-1.8 1.8m0-2.6c-.5 0-.8.4-.8.8 0 .5.4.8.8.8.5 0 .8-.4.8-.8.1-.4-.3-.8-.8-.8M205.1 78.9c-1.1 0-2-.9-2-2s.9-2 2-2 2 .9 2 2-.9 2-2 2m0-3c-.6 0-1 .4-1 1s.4 1 1 1 1-.4 1-1-.5-1-1-1M198 77.5c-2.4 0-4.3-1.9-4.3-4.3s1.9-4.3 4.3-4.3 4.3 1.9 4.3 4.3-1.9 4.3-4.3 4.3m0-7.4c-1.7 0-3.1 1.4-3.1 3.1 0 1.7 1.4 3.1 3.1 3.1 1.7 0 3.1-1.4 3.1-3.1 0-1.7-1.4-3.1-3.1-3.1"/></svg>